<?xml version="1.0" encoding="UTF-8" standalone="no"?>
<!-- Created with Inkscape (http://www.inkscape.org/) -->

<svg
   width="761.49591mm"
   height="271.50211mm"
   viewBox="0 0 761.49592 271.50211"
   version="1.1"
   id="svg1"
   inkscape:version="1.3.2 (091e20e, 2023-11-25, custom)"
   sodipodi:docname="logo.svg"
   xmlns:inkscape="http://www.inkscape.org/namespaces/inkscape"
   xmlns:sodipodi="http://sodipodi.sourceforge.net/DTD/sodipodi-0.dtd"
   xmlns:xlink="http://www.w3.org/1999/xlink"
   xmlns="http://www.w3.org/2000/svg"
   xmlns:svg="http://www.w3.org/2000/svg">
  <sodipodi:namedview
     id="namedview1"
     pagecolor="#ffffff"
     bordercolor="#000000"
     borderopacity="0.25"
     inkscape:showpageshadow="2"
     inkscape:pageopacity="0.0"
     inkscape:pagecheckerboard="0"
     inkscape:deskcolor="#d1d1d1"
     inkscape:document-units="mm"
     inkscape:zoom="0.17527532"
     inkscape:cx="1611.75"
     inkscape:cy="790.18541"
     inkscape:window-width="1920"
     inkscape:window-height="1001"
     inkscape:window-x="-9"
     inkscape:window-y="-9"
     inkscape:window-maximized="1"
     inkscape:current-layer="layer1" />
  <defs
     id="defs1">
    <linearGradient
       id="linearGradient101"
       inkscape:collect="always">
      <stop
         style="stop-color:#ffffff;stop-opacity:1;"
         offset="0"
         id="stop101" />
      <stop
         style="stop-color:#007cf7;stop-opacity:0.49803922;"
         offset="0.71941715"
         id="stop103" />
      <stop
         style="stop-color:#e7e7e7;stop-opacity:1;"
         offset="0.86773604"
         id="stop104" />
      <stop
         style="stop-color:#000000;stop-opacity:0.66423357;"
         offset="1"
         id="stop102" />
    </linearGradient>
    <clipPath
       clipPathUnits="userSpaceOnUse"
       id="clipPath5">
      <path
         id="path5"
         style="stroke-width:0.1;stroke-linecap:square;paint-order:markers fill stroke;stop-color:#000000"
         d="M 438.25066,553.76374 H 1298.1212 V 755.15928 H 438.25066 Z"
         sodipodi:nodetypes="ccccc" />
    </clipPath>
    <clipPath
       clipPathUnits="userSpaceOnUse"
       id="clipPath27">
      <rect
         style="fill:none;stroke:#000000;stroke-width:0.999999;stroke-linecap:butt;stroke-linejoin:bevel;paint-order:stroke markers fill;stop-color:#000000"
         id="rect28-6"
         width="46.160622"
         height="39.922417"
         x="86.574379"
         y="420.06253" />
    </clipPath>
    <clipPath
       clipPathUnits="userSpaceOnUse"
       id="clipPath15">
      <rect
         style="fill:none;stroke:#000000;stroke-linecap:butt;stroke-linejoin:bevel;paint-order:stroke markers fill;stop-color:#000000"
         id="rect15-7"
         width="45.034248"
         height="38.955639"
         x="262.48285"
         y="121.00073" />
    </clipPath>
    <radialGradient
       inkscape:collect="always"
       xlink:href="#linearGradient101"
       id="radialGradient102"
       cx="102.93865"
       cy="91.038994"
       fx="102.93865"
       fy="91.038994"
       r="19.752483"
       gradientUnits="userSpaceOnUse"
       gradientTransform="matrix(1.353208,0,0,1.353208,-34.033181,-33.635619)" />
  </defs>
  <g
     inkscape:label="Layer 1"
     inkscape:groupmode="layer"
     id="layer1"
     style="display:inline"
     transform="matrix(5.0787509,0,0,5.0787509,-398.85979,-319.09718)">
    <circle
       style="display:inline;fill:url(#radialGradient102);fill-opacity:1;stroke:#ffffff;stroke-width:0;stroke-dasharray:none;stroke-opacity:1"
       id="path76"
       cx="105.26424"
       cy="89.559074"
       r="26.729219" />
    <path
       style="font-size:35.2778px;font-family:Magneto;-inkscape-font-specification:'Magneto, Normal';fill:#ededed;stroke-width:0.264583"
       d="m 161.91336,98.501139 q -0.0689,1.291912 -1.20579,2.067061 -1.03353,0.68902 -2.39434,0.68902 h -6.63181 q -1.36082,0 -2.06706,-0.72347 -0.46509,-0.46509 -1.17134,-2.032611 l -3.39342,-7.510313 q 0.63734,-0.120578 2.94556,-0.981853 2.23931,-0.826823 2.80776,-1.136882 3.42787,-1.774226 3.42787,-4.444176 0,-3.066137 -4.34083,-3.066137 h -17.56999 l 2.68717,-4.340824 h 17.34607 q 9.35344,0 9.35344,5.96002 0,5.047068 -9.7324,8.81945 l 3.10059,6.700715 z m -14.41774,-14.917273 -6.2873,17.673354 h -6.20118 l 6.23563,-17.673354 z m 36.07017,14.917273 q -0.36173,1.326363 -1.65364,2.084281 -1.15411,0.6718 -2.6355,0.6718 h -9.5946 q -8.37159,0 -8.37159,-5.047071 0,-3.238392 2.85943,-5.081519 2.46325,-1.584745 5.85667,-1.584745 h 2.4977 q 2.18763,0 3.84128,0.671794 2.20486,0.895725 2.30822,2.721627 0.0861,1.843128 -1.77423,3.066137 h -5.70164 l 1.86036,-3.70348 h -3.63458 l -1.41249,4.151343 q -0.12058,0.361735 -0.12058,0.654569 0,1.395264 2.23931,1.395264 z m 22.25534,0 q -0.79238,2.756081 -5.11597,2.756081 h -3.06614 q -1.53307,4.16857 -3.04891,6.02892 -2.22209,2.72163 -5.63274,2.72163 -1.92925,0 -3.08336,-1.08521 -1.13688,-1.06798 -1.13688,-2.98001 0,-3.73793 2.18763,-4.82314 -1.61919,-0.37896 -2.66995,-1.498614 -1.22301,-1.274686 -1.22301,-3.083363 0,-0.706245 0.22393,-1.481392 0.7407,-2.807754 3.25562,-4.23747 2.20486,-1.274686 5.30545,-1.274686 h 9.85298 l -3.15226,8.957254 z m -11.3516,-6.201176 h -3.66903 l -1.37804,4.375274 q -0.12058,0.396187 -0.12058,0.723471 0,1.464166 2.13596,1.464166 0.13781,0 0.39619,-0.01723 0.27561,-0.01723 0.41341,-0.01723 z m -3.03169,9.422347 q -1.11965,0 -2.10151,1.27468 -0.96463,1.29191 -0.96463,2.5666 0,1.13688 0.98186,1.8259 z m 37.03481,-3.221171 q -0.36174,1.429716 -1.58475,2.170411 -0.96462,0.58567 -2.04983,0.58567 h -7.20025 q -2.53215,0 -2.53215,-1.619199 -1.34359,1.619199 -3.63458,1.619199 h -3.03168 q -1.39527,0 -2.17042,-0.72347 -0.72347,-0.671797 -0.72347,-1.774229 0,-0.620117 0.24116,-1.274686 l 2.89388,-7.94095 h 6.25286 l -3.22117,8.957254 h 3.49677 l 3.20394,-8.957254 h 6.18395 l -3.13503,8.957254 z"
       id="text2"
       inkscape:label="text1"
       aria-label="Regu" />
  </g>
</svg>
