<svg version="1.1" id="Layer_1" xmlns="http://www.w3.org/2000/svg" xmlns:xlink="http://www.w3.org/1999/xlink" x="0px" y="0px"
	 width="100%" viewBox="0 0 256 256" enable-background="new 0 0 256 256" xml:space="preserve">
<path fill="none" opacity="1.000000" stroke="none" 
	d="
M143.000000,257.000000 
	C95.333336,257.000000 48.166672,257.000000 1.000006,257.000000 
	C1.000004,171.666672 1.000004,86.333351 1.000002,1.000018 
	C86.333321,1.000012 171.666641,1.000012 257.000000,1.000006 
	C257.000000,86.333313 257.000000,171.666626 257.000000,256.999969 
	C219.166672,257.000000 181.333328,257.000000 143.000000,257.000000 
M240.405472,186.624191 
	C240.411285,186.066360 240.417099,185.508545 240.771591,184.081009 
	C240.831039,147.979416 240.942520,111.877670 240.843597,75.776505 
	C240.836304,73.109657 239.314117,70.446960 238.394684,67.069466 
	C235.080582,63.912243 232.222656,59.978069 228.379623,57.721676 
	C199.677795,40.869675 170.764999,24.377401 141.955399,7.708272 
	C133.523895,2.829828 125.255630,2.867189 116.902458,7.819664 
	C110.031731,11.893217 103.114883,15.889651 96.194084,19.877941 
	C74.131226,32.592239 52.080086,45.327183 29.974882,57.967529 
	C22.013105,62.520283 18.056854,69.167290 18.073309,78.376030 
	C18.133999,112.342491 18.011503,146.309662 18.227331,180.274872 
	C18.250105,183.858932 20.049849,187.431702 21.057678,191.707062 
	C23.957640,194.588303 26.411707,198.231247 29.827707,200.230957 
	C58.573910,217.058762 87.548782,233.495468 116.334435,250.256653 
	C125.293213,255.473114 133.714966,255.534134 142.701248,250.301376 
	C171.484207,233.540955 200.471878,217.131317 229.201126,200.280426 
	C232.685410,198.236740 235.074356,194.325684 238.520157,191.048950 
	C238.989273,189.689850 239.458389,188.330765 240.405472,186.624191 
z"/>
<path fill="#9740AD" opacity="1.000000" stroke="none" 
	d="
M21.025190,191.009720 
	C20.049849,187.431702 18.250105,183.858932 18.227331,180.274872 
	C18.011503,146.309662 18.133999,112.342491 18.073309,78.376030 
	C18.056854,69.167290 22.013105,62.520283 29.974882,57.967529 
	C52.080086,45.327183 74.131226,32.592239 96.194084,19.877941 
	C103.114883,15.889651 110.031731,11.893217 116.902458,7.819664 
	C125.255630,2.867189 133.523895,2.829828 141.955399,7.708272 
	C170.764999,24.377401 199.677795,40.869675 228.379623,57.721676 
	C232.222656,59.978069 235.080582,63.912243 238.047363,67.508865 
	C232.491730,70.747780 227.236572,73.464119 222.085175,76.364685 
	C212.347565,81.847610 202.669556,87.436417 192.992279,92.608627 
	C192.731659,91.311134 192.643814,90.254768 192.130493,89.480469 
	C178.268448,68.570847 158.850693,56.660789 133.793304,55.265491 
	C108.977783,53.883663 88.209038,63.099552 72.335953,82.304359 
	C59.364334,97.998680 54.025627,116.195000 55.825764,136.586014 
	C56.782223,147.420319 60.654442,157.199066 64.861519,166.920898 
	C58.555260,170.306808 52.618980,173.616547 46.668190,176.900024 
	C38.126076,181.613327 29.573370,186.307419 21.025190,191.009720 
z"/>
<path fill="#6A247C" opacity="1.000000" stroke="none" 
	d="
M21.041435,191.358398 
	C29.573370,186.307419 38.126076,181.613327 46.668190,176.900024 
	C52.618980,173.616547 58.555260,170.306808 65.135925,167.112823 
	C66.512939,168.320297 67.245659,169.428116 67.992119,170.526550 
	C85.077690,195.668579 114.774139,207.913589 144.540787,201.815582 
	C165.920349,197.435776 181.884033,185.207779 193.877289,167.051086 
	C202.006805,171.415436 209.789520,175.763885 217.590302,180.079681 
	C224.373230,183.832321 231.176605,187.548035 237.970947,191.280060 
	C235.074356,194.325684 232.685410,198.236740 229.201126,200.280426 
	C200.471878,217.131317 171.484207,233.540955 142.701248,250.301376 
	C133.714966,255.534134 125.293213,255.473114 116.334435,250.256653 
	C87.548782,233.495468 58.573910,217.058762 29.827707,200.230957 
	C26.411707,198.231247 23.957640,194.588303 21.041435,191.358398 
z"/>
<path fill="#843099" opacity="1.000000" stroke="none" 
	d="
M238.245544,191.164505 
	C231.176605,187.548035 224.373230,183.832321 217.590302,180.079681 
	C209.789520,175.763885 202.006805,171.415436 193.766876,166.696716 
	C193.040863,165.903503 192.858002,165.335037 192.473831,165.109375 
	C183.030441,159.562592 173.590866,154.007751 164.065842,148.603806 
	C163.111206,148.062210 161.614914,148.475327 160.168243,148.116577 
	C157.046463,145.731674 154.211060,143.540482 151.188873,141.647476 
	C144.844101,137.673325 138.401154,133.855911 132.033951,129.623291 
	C133.419907,128.162918 134.656052,126.862076 136.139755,125.975487 
	C144.741699,120.835449 153.401932,115.792984 162.339142,110.492889 
	C172.746155,104.505913 182.856461,98.743561 192.966782,92.981201 
	C202.669556,87.436417 212.347565,81.847610 222.085175,76.364685 
	C227.236572,73.464119 232.491730,70.747780 238.098114,67.865295 
	C239.314117,70.446960 240.836304,73.109657 240.843597,75.776505 
	C240.942520,111.877670 240.831039,147.979416 240.355957,184.580994 
	C239.936050,185.711197 239.931763,186.341431 239.927490,186.971664 
	C239.458389,188.330765 238.989273,189.689850 238.245544,191.164505 
M197.997238,137.172928 
	C200.386124,137.172928 202.775009,137.172928 205.428299,137.172928 
	C205.233917,140.817123 205.088196,143.548920 204.942474,146.280716 
	C205.350479,146.703079 205.758484,147.125458 206.166489,147.547836 
	C207.912994,146.464996 211.033447,145.527679 211.166214,144.273941 
	C211.717270,139.070587 213.314453,135.694534 218.933167,136.884415 
	C221.735352,130.994553 217.241348,131.007950 213.906998,130.052719 
	C214.407578,126.883675 214.866089,123.980988 215.329376,121.047989 
	C217.645172,120.698067 219.566177,120.407799 221.314102,120.143677 
	C223.259247,115.542450 221.033508,113.822815 216.952698,113.443413 
	C217.242615,110.523865 217.500519,107.926620 217.777283,105.139290 
	C214.763596,104.561150 212.006241,103.061745 211.019394,107.612839 
	C209.447205,114.863457 208.958572,115.046600 200.907944,113.345589 
	C201.122742,110.689011 201.342239,107.974396 201.560242,105.278419 
	C197.172729,103.523727 194.764389,104.635406 194.536072,109.184273 
	C194.367874,112.535225 193.208572,114.459129 189.385040,114.237297 
	C188.503738,114.186165 186.720398,115.937508 186.770126,116.775192 
	C186.846542,118.062111 187.955780,119.488419 189.001221,120.447350 
	C189.711777,121.099098 191.062958,121.052452 192.057129,121.300522 
	C191.715714,130.066254 191.679504,130.116333 184.998566,131.392242 
	C182.649170,135.847351 185.638138,137.113098 189.298553,137.844788 
	C189.006363,140.749893 188.745956,143.338989 188.477707,146.006210 
	C192.956970,147.925064 195.282623,146.832886 195.711685,142.012817 
	C195.850815,140.449982 196.659698,138.946777 197.997238,137.172928 
z"/>
<path fill="#9740AD" opacity="1.000000" stroke="none" 
	d="
M240.166473,186.797928 
	C239.931763,186.341431 239.936050,185.711197 240.181625,185.015839 
	C240.417099,185.508545 240.411285,186.066360 240.166473,186.797928 
z"/>
<path fill="#FCFAFC" opacity="1.000000" stroke="none" 
	d="
M192.992279,92.608627 
	C182.856461,98.743561 172.746155,104.505913 162.046204,110.262825 
	C160.702744,109.385590 159.890549,108.557297 159.203674,107.635590 
	C145.588333,89.365257 119.924835,87.333694 103.721115,103.255859 
	C91.876625,114.894539 89.286499,135.026367 98.112198,147.336273 
	C100.563988,150.738678 102.642914,154.181503 105.491234,156.781403 
	C121.967537,171.820724 150.707016,167.368378 160.370010,148.445374 
	C161.614914,148.475327 163.111206,148.062210 164.065842,148.603806 
	C173.590866,154.007751 183.030441,159.562592 192.473831,165.109375 
	C192.858002,165.335037 193.040863,165.903503 193.427917,166.666626 
	C181.884033,185.207779 165.920349,197.435776 144.540787,201.815582 
	C114.774139,207.913589 85.077690,195.668579 67.992119,170.526550 
	C67.245659,169.428116 66.512939,168.320297 65.499413,167.024933 
	C60.654442,157.199066 56.782223,147.420319 55.825764,136.586014 
	C54.025627,116.195000 59.364334,97.998680 72.335953,82.304359 
	C88.209038,63.099552 108.977783,53.883663 133.793304,55.265491 
	C158.850693,56.660789 178.268448,68.570847 192.130493,89.480469 
	C192.643814,90.254768 192.731659,91.311134 192.992279,92.608627 
z"/>
<path fill="#9741AD" opacity="1.000000" stroke="none" 
	d="
M98.094711,146.987320 
	C89.286499,135.026367 91.876625,114.894539 103.721115,103.255859 
	C119.924835,87.333694 145.588333,89.365257 159.203674,107.635590 
	C159.890549,108.557297 160.702744,109.385590 161.749512,110.487442 
	C153.401932,115.792984 144.741699,120.835449 136.139755,125.975487 
	C134.656052,126.862076 133.419907,128.162918 131.631653,129.616135 
	C129.494370,130.420364 127.626678,130.572205 126.122780,131.391678 
	C116.734856,136.507217 107.428261,141.772003 98.094711,146.987320 
z"/>
<path fill="#6A247C" opacity="1.000000" stroke="none" 
	d="
M98.112198,147.336273 
	C107.428261,141.772003 116.734856,136.507217 126.122780,131.391678 
	C127.626678,130.572205 129.494370,130.420364 131.596191,129.967010 
	C138.401154,133.855911 144.844101,137.673325 151.188873,141.647476 
	C154.211060,143.540482 157.046463,145.731674 160.168243,148.116577 
	C150.707016,167.368378 121.967537,171.820724 105.491234,156.781403 
	C102.642914,154.181503 100.563988,150.738678 98.112198,147.336273 
z"/>
<path fill="#F4EDF6" opacity="1.000000" stroke="none" 
	d="
M197.579742,137.294617 
	C196.659698,138.946777 195.850815,140.449982 195.711685,142.012817 
	C195.282623,146.832886 192.956970,147.925064 188.477707,146.006210 
	C188.745956,143.338989 189.006363,140.749893 189.298553,137.844788 
	C185.638138,137.113098 182.649170,135.847351 184.999115,131.391907 
	C191.679504,130.116333 191.715714,130.066254 192.057129,121.300522 
	C191.062958,121.052452 189.711777,121.099098 189.001221,120.447350 
	C187.955780,119.488419 186.846542,118.062111 186.770126,116.775192 
	C186.720398,115.937508 188.503738,114.186165 189.385040,114.237297 
	C193.208572,114.459129 194.367874,112.535225 194.536072,109.184273 
	C194.764389,104.635406 197.172729,103.523727 201.560242,105.278419 
	C201.342239,107.974396 201.122742,110.689011 200.907944,113.345589 
	C208.958572,115.046600 209.447205,114.863457 211.019394,107.612839 
	C212.006241,103.061745 214.763596,104.561150 217.777283,105.139290 
	C217.500519,107.926620 217.242615,110.523865 216.952698,113.443413 
	C221.033508,113.822815 223.259247,115.542450 221.314102,120.143677 
	C219.566177,120.407799 217.645172,120.698067 215.329376,121.047989 
	C214.866089,123.980988 214.407578,126.883675 213.906998,130.052719 
	C217.241348,131.007950 221.735352,130.994553 218.933167,136.884415 
	C213.314453,135.694534 211.717270,139.070587 211.166214,144.273941 
	C211.033447,145.527679 207.912994,146.464996 206.166489,147.547836 
	C205.758484,147.125458 205.350479,146.703079 204.942474,146.280716 
	C205.088196,143.548920 205.233917,140.817123 205.428299,137.172928 
	C202.775009,137.172928 200.386124,137.172928 197.579742,137.294617 
M202.716278,120.181816 
	C198.490036,121.045753 197.349518,123.745354 198.366043,130.478775 
	C207.632843,132.151367 209.293152,130.557861 208.317642,120.443687 
	C206.783600,120.357971 205.180191,120.268379 202.716278,120.181816 
z"/>
<path fill="#8F42A3" opacity="1.000000" stroke="none" 
	d="
M203.146515,120.180298 
	C205.180191,120.268379 206.783600,120.357971 208.317642,120.443687 
	C209.293152,130.557861 207.632843,132.151367 198.366043,130.478775 
	C197.349518,123.745354 198.490036,121.045753 203.146515,120.180298 
z"/>
</svg>