<svg version="1.1" id="Layer_1" xmlns="http://www.w3.org/2000/svg" xmlns:xlink="http://www.w3.org/1999/xlink" x="0px" y="0px"
	 width="100%" viewBox="0 0 256 256" enable-background="new 0 0 256 256" xml:space="preserve">
<path fill="none" opacity="1.000000" stroke="none" 
	d="
M146.000000,257.000000 
	C97.333336,257.000000 49.166672,257.000000 1.000006,257.000000 
	C1.000004,171.666672 1.000004,86.333351 1.000002,1.000018 
	C86.333321,1.000012 171.666641,1.000012 257.000000,1.000006 
	C257.000000,86.333313 257.000000,171.666626 257.000000,256.999969 
	C220.166672,257.000000 183.333328,257.000000 146.000000,257.000000 
M94.610771,243.904602 
	C104.718819,246.686539 114.792824,249.604050 124.958427,252.156815 
	C127.556854,252.809326 130.614532,252.932968 133.174179,252.239716 
	C160.149429,244.933990 187.048645,237.347504 214.023514,230.040359 
	C217.170303,229.187927 218.247894,227.770279 218.510590,224.689514 
	C220.222321,204.615402 222.102432,184.555725 223.899826,164.488846 
	C227.836029,120.543472 231.763474,76.597298 235.675568,32.649765 
	C236.422058,24.264013 237.081665,15.870528 237.796051,7.304556 
	C165.268753,7.304556 93.206558,7.304556 20.749731,7.304556 
	C21.161674,11.787031 21.555975,15.907401 21.916759,20.030704 
	C24.383812,48.226006 26.809278,76.424988 29.314421,104.616898 
	C32.851204,144.418518 36.517265,184.208923 39.901737,224.023361 
	C40.234665,227.939850 41.722183,229.275986 45.254711,230.218231 
	C61.488869,234.548523 77.646034,239.167480 94.610771,243.904602 
z"/>
<path fill="#274EE4" opacity="1.000000" stroke="none" 
	d="
M94.220795,243.793716 
	C77.646034,239.167480 61.488869,234.548523 45.254711,230.218231 
	C41.722183,229.275986 40.234665,227.939850 39.901737,224.023361 
	C36.517265,184.208923 32.851204,144.418518 29.314421,104.616898 
	C26.809278,76.424988 24.383812,48.226006 21.916759,20.030704 
	C21.555975,15.907401 21.161674,11.787031 20.749731,7.304556 
	C93.206558,7.304556 165.268753,7.304556 237.796051,7.304556 
	C237.081665,15.870528 236.422058,24.264013 235.675568,32.649765 
	C231.763474,76.597298 227.836029,120.543472 223.899826,164.488846 
	C222.102432,184.555725 220.222321,204.615402 218.510590,224.689514 
	C218.247894,227.770279 217.170303,229.187927 214.023514,230.040359 
	C187.048645,237.347504 160.149429,244.933990 133.174179,252.239716 
	C130.614532,252.932968 127.556854,252.809326 124.958427,252.156815 
	C114.792824,249.604050 104.718819,246.686539 94.220795,243.793716 
M135.500000,53.000557 
	C110.746758,53.000557 85.993515,53.000557 60.670467,53.000557 
	C61.521397,62.019939 62.306541,70.342033 63.128998,79.059601 
	C97.931801,79.059601 132.342148,79.059601 167.456680,79.059601 
	C166.610046,88.896950 165.805389,98.246643 164.963531,108.028625 
	C131.884842,108.028625 99.150093,108.028625 65.660545,108.028625 
	C66.464897,116.969589 67.221947,125.384705 68.016670,134.218628 
	C100.055504,134.218628 131.453735,134.218628 163.220169,134.218628 
	C162.111343,145.895737 161.116882,157.073181 159.877518,168.223404 
	C159.765656,169.229904 158.222366,170.542953 157.091080,170.890198 
	C152.094177,172.423950 147.011765,173.683350 141.946640,174.989075 
	C137.992706,176.008331 133.741592,178.367447 130.105957,177.657089 
	C119.599731,175.604279 109.337677,172.301773 99.123161,169.528854 
	C98.701836,163.463776 98.552803,157.824631 97.768898,152.275162 
	C97.548782,150.716904 95.525337,148.268677 94.221992,148.197784 
	C86.913712,147.800385 79.567665,147.874222 72.248474,148.153488 
	C71.208115,148.193176 69.302971,150.307724 69.387680,151.330276 
	C70.421265,163.806992 71.684952,176.266785 73.115402,188.704941 
	C73.251091,189.884750 74.726677,191.534760 75.898422,191.877014 
	C92.221359,196.644882 108.579033,201.299377 124.991936,205.746414 
	C126.969055,206.282104 129.387512,205.717651 131.482544,205.190613 
	C137.833206,203.593018 144.122681,201.753143 150.441086,200.026260 
	C161.921997,196.888382 173.406570,193.763931 184.536880,190.730026 
	C188.658798,144.575562 192.733078,98.954636 196.837112,53.000557 
	C176.440628,53.000557 156.470322,53.000557 135.500000,53.000557 
z"/>
<path fill="#FFFFFF" opacity="1.000000" stroke="none" 
	d="
M136.000000,53.000557 
	C156.470322,53.000557 176.440628,53.000557 196.837112,53.000557 
	C192.733078,98.954636 188.658798,144.575562 184.536880,190.730026 
	C173.406570,193.763931 161.921997,196.888382 150.441086,200.026260 
	C144.122681,201.753143 137.833206,203.593018 131.482544,205.190613 
	C129.387512,205.717651 126.969055,206.282104 124.991936,205.746414 
	C108.579033,201.299377 92.221359,196.644882 75.898422,191.877014 
	C74.726677,191.534760 73.251091,189.884750 73.115402,188.704941 
	C71.684952,176.266785 70.421265,163.806992 69.387680,151.330276 
	C69.302971,150.307724 71.208115,148.193176 72.248474,148.153488 
	C79.567665,147.874222 86.913712,147.800385 94.221992,148.197784 
	C95.525337,148.268677 97.548782,150.716904 97.768898,152.275162 
	C98.552803,157.824631 98.701836,163.463776 99.123161,169.528854 
	C109.337677,172.301773 119.599731,175.604279 130.105957,177.657089 
	C133.741592,178.367447 137.992706,176.008331 141.946640,174.989075 
	C147.011765,173.683350 152.094177,172.423950 157.091080,170.890198 
	C158.222366,170.542953 159.765656,169.229904 159.877518,168.223404 
	C161.116882,157.073181 162.111343,145.895737 163.220169,134.218628 
	C131.453735,134.218628 100.055504,134.218628 68.016670,134.218628 
	C67.221947,125.384705 66.464897,116.969589 65.660545,108.028625 
	C99.150093,108.028625 131.884842,108.028625 164.963531,108.028625 
	C165.805389,98.246643 166.610046,88.896950 167.456680,79.059601 
	C132.342148,79.059601 97.931801,79.059601 63.128998,79.059601 
	C62.306541,70.342033 61.521397,62.019939 60.670467,53.000557 
	C85.993515,53.000557 110.746758,53.000557 136.000000,53.000557 
z"/>
</svg>