<svg version="1.1" id="Layer_1" xmlns="http://www.w3.org/2000/svg" xmlns:xlink="http://www.w3.org/1999/xlink" x="0px" y="0px"
	 width="100%" viewBox="0 0 560 560" enable-background="new 0 0 560 560" xml:space="preserve">
<path fill="black" opacity="1.000000" stroke="none" 
	d="
M387.000000,561.000000 
	C258.000000,561.000000 129.500000,561.000000 1.000000,561.000000 
	C1.000000,374.333344 1.000000,187.666672 1.000000,1.000000 
	C187.666672,1.000000 374.333344,1.000000 561.000000,1.000000 
	C561.000000,187.666672 561.000000,374.333344 561.000000,561.000000 
	C503.166656,561.000000 445.333344,561.000000 387.000000,561.000000 
M228.424637,454.019073 
	C228.256424,450.525330 228.093857,447.031342 227.918274,443.537964 
	C227.775162,440.690887 226.518188,439.227875 223.439484,439.722900 
	C220.649185,440.171600 217.830017,440.442078 215.022568,440.782654 
	C190.408447,443.768433 164.234802,434.591583 155.280777,408.321106 
	C151.526672,397.306824 144.093933,388.326782 133.831253,382.087860 
	C131.728180,380.809357 129.811050,379.075623 128.158981,377.236633 
	C125.006393,373.727356 125.887962,371.038879 130.422684,369.506073 
	C136.367233,367.496765 141.983826,369.089203 147.406235,371.335968 
	C156.996918,375.309814 163.845398,382.379028 169.284058,391.086823 
	C182.436172,412.144501 202.145859,418.695312 224.746765,409.786469 
	C227.611038,408.657440 229.284393,407.150177 229.896606,403.834961 
	C231.048157,397.598907 233.353317,391.690613 236.773392,386.261322 
	C239.500015,381.932892 238.639359,380.311462 233.444839,379.368744 
	C228.212906,378.419250 222.946945,377.582672 217.787140,376.322876 
	C191.128052,369.813782 169.546616,356.406494 157.360382,330.762482 
	C151.371628,318.160126 148.788620,304.691467 147.327255,290.826508 
	C144.650375,265.428894 148.936859,242.078918 165.397308,221.823425 
	C167.248810,219.545059 167.710526,217.419174 166.852844,214.501251 
	C162.294739,198.993988 163.773788,183.645050 168.126816,168.300903 
	C169.644104,162.952530 172.519516,160.826569 177.854645,161.670609 
	C179.166824,161.878204 180.495636,161.983398 181.805237,162.204254 
	C197.780380,164.898315 211.569183,172.596436 224.888306,181.260254 
	C227.626205,183.041214 230.067657,183.611618 233.245636,182.708664 
	C242.544601,180.066574 252.113464,178.714325 261.700562,177.725159 
	C284.264221,175.397110 306.571442,177.212189 328.576019,182.628250 
	C332.052917,183.484039 334.892517,183.116409 337.913239,181.007553 
	C345.303345,175.848328 353.257202,171.604706 361.535278,168.046631 
	C369.507538,164.619980 377.674835,161.871094 386.512878,161.597290 
	C390.239380,161.481827 392.322449,162.805328 393.505341,166.431473 
	C398.568512,181.952515 400.214355,197.630676 395.798309,213.546036 
	C394.807343,217.117447 395.178345,219.686829 397.608398,222.610947 
	C405.614777,232.245132 410.852539,243.306305 413.450470,255.595734 
	C416.878510,271.811829 416.063110,288.065399 413.255188,304.194397 
	C408.557404,331.178772 395.758362,352.881470 370.937225,366.220673 
	C357.570190,373.404236 343.099670,377.106079 328.200378,379.335846 
	C326.213043,379.633270 324.199188,379.681885 322.692230,382.064667 
	C325.500824,386.495667 328.518616,391.058014 330.330383,396.250763 
	C333.452911,405.200623 334.010376,414.507904 333.990631,423.828918 
	C333.953918,441.154938 333.481079,458.479950 333.432800,475.806030 
	C333.406799,485.127747 339.643219,489.558594 348.424561,486.589264 
	C354.094604,484.672028 359.692627,482.476471 365.164764,480.049194 
	C452.822113,441.166595 503.097412,347.869141 487.787933,252.919662 
	C479.043427,198.686081 453.155487,154.240204 410.039917,120.464615 
	C361.460388,82.408699 306.067535,68.483849 245.228058,78.769005 
	C198.345703,86.694664 158.588501,108.706192 126.764168,144.115448 
	C82.497673,193.368439 65.265442,251.411606 73.677330,316.768127 
	C78.398735,353.451355 92.736687,386.624573 115.457985,415.942871 
	C140.581161,448.360474 172.383408,471.752319 211.024826,485.685089 
	C222.915405,489.972443 228.609573,485.957825 228.615402,473.448151 
	C228.618271,467.283203 228.536896,461.118164 228.424637,454.019073 
z"/>
</svg>