<svg version="1.1" id="Layer_1" xmlns="http://www.w3.org/2000/svg" xmlns:xlink="http://www.w3.org/1999/xlink" x="0px" y="0px"
	 width="100%" viewBox="0 0 859 859" enable-background="new 0 0 859 859" xml:space="preserve">
<path fill="none" opacity="1.000000" stroke="none" 
	d="
M464.000000,860.000000 
	C309.333374,860.000000 155.166763,860.000000 1.000103,860.000000 
	C1.000069,573.666809 1.000069,287.333588 1.000034,1.000295 
	C287.333099,1.000197 573.666199,1.000197 859.999512,1.000098 
	C859.999634,287.333038 859.999634,573.666077 859.999817,859.999512 
	C728.166687,860.000000 596.333313,860.000000 464.000000,860.000000 
M224.563568,154.378021 
	C202.217743,180.919846 185.579025,210.665482 174.849625,243.650513 
	C156.970840,298.614655 157.389999,354.090057 171.750885,409.556152 
	C175.889374,425.540314 182.796158,440.807709 188.545059,457.139099 
	C189.192841,458.668640 189.791794,460.221039 190.495544,461.724365 
	C206.191864,495.253754 227.417419,525.249390 249.980545,554.356812 
	C265.235352,574.036072 280.775238,593.494751 296.241302,613.009644 
	C301.154449,619.208984 306.240509,625.271362 311.379791,632.006104 
	C312.024689,632.968384 312.654999,633.940857 313.316711,634.891418 
	C329.297211,657.849304 345.705322,680.523865 361.142059,703.841614 
	C375.871124,726.090393 386.346832,750.518066 395.006470,775.732117 
	C399.960663,790.157227 404.764801,804.660217 410.469116,818.792053 
	C414.145355,827.899414 421.878754,832.474426 431.863525,832.435730 
	C441.600830,832.398010 448.937561,827.933044 453.015961,819.141418 
	C456.425140,811.792297 459.490601,804.216003 461.918213,796.492004 
	C469.248932,773.168152 476.825775,749.823547 488.613495,728.422974 
	C500.082306,707.601379 512.933777,687.452087 526.390930,667.839844 
	C540.175110,647.750916 555.222839,628.511475 570.104919,609.198730 
	C582.892822,592.603577 596.616760,576.722656 609.214539,559.989624 
	C622.802063,541.941895 635.918030,523.512573 648.600464,504.816162 
	C668.457520,475.542694 683.403381,443.839966 692.027588,409.473022 
	C706.264221,352.740814 706.826660,296.152863 687.575012,240.320877 
	C683.216003,227.679260 676.857056,215.727219 671.326782,202.770645 
	C671.065491,202.160400 670.851013,201.524796 670.536194,200.943527 
	C645.498962,154.712173 610.427795,118.244576 564.576416,92.344513 
	C548.184082,83.085007 531.096985,75.356903 512.314392,69.753777 
	C497.423004,66.414352 482.660431,62.251846 467.614899,59.897385 
	C429.863556,53.989708 392.580719,57.710522 356.023346,68.179131 
	C316.374542,79.533020 281.187622,99.268059 250.824051,127.192276 
	C241.708313,135.575653 233.722565,145.187744 224.563568,154.378021 
z"/>
<path fill="#34A853" opacity="1.000000" stroke="none" 
	d="
M671.418701,203.457764 
	C676.857056,215.727219 683.216003,227.679260 687.575012,240.320877 
	C706.826660,296.152863 706.264221,352.740814 692.027588,409.473022 
	C683.403381,443.839966 668.457520,475.542694 648.600464,504.816162 
	C635.918030,523.512573 622.802063,541.941895 609.214539,559.989624 
	C596.616760,576.722656 582.892822,592.603577 570.104919,609.198730 
	C555.222839,628.511475 540.175110,647.750916 526.390930,667.839844 
	C512.933777,687.452087 500.082306,707.601379 488.613495,728.422974 
	C476.825775,749.823547 469.248932,773.168152 461.918213,796.492004 
	C459.490601,804.216003 456.425140,811.792297 453.015961,819.141418 
	C448.937561,827.933044 441.600830,832.398010 431.863525,832.435730 
	C421.878754,832.474426 414.145355,827.899414 410.469116,818.792053 
	C404.764801,804.660217 399.960663,790.157227 395.006470,775.732117 
	C386.346832,750.518066 375.871124,726.090393 361.142059,703.841614 
	C345.705322,680.523865 329.297211,657.849304 313.316711,634.891418 
	C312.654999,633.940857 312.024689,632.968384 311.580414,631.492554 
	C313.527008,628.771790 315.218201,626.518494 317.027252,624.364197 
	C337.789948,599.639221 358.537231,574.901184 379.356384,550.223694 
	C397.590637,528.610229 415.938629,507.092712 434.183014,485.487701 
	C445.467682,472.124329 456.625732,458.654144 467.891846,445.275024 
	C475.005035,436.827728 482.306458,428.537323 489.335114,420.021088 
	C492.477753,416.213348 495.157959,412.023926 498.032898,408.020355 
	C498.017731,408.032959 497.977509,408.028107 498.274841,408.161682 
	C498.763123,407.913483 498.954102,407.531738 499.436218,406.956787 
	C506.130768,399.244019 512.534119,391.724365 519.212402,384.088135 
	C519.657715,383.623352 519.828125,383.275146 519.998962,382.964722 
	C519.999390,383.002502 519.923889,383.004059 520.228027,382.887146 
	C520.716614,382.192780 520.901123,381.615326 521.073975,381.074585 
	C521.062317,381.111328 521.120178,381.162262 521.466309,381.147888 
	C531.083923,370.277039 540.419983,359.475037 549.614441,348.553741 
	C575.302063,318.041687 600.936646,287.484894 626.581116,256.936462 
	C641.537903,239.119431 656.473572,221.284576 671.418701,203.457764 
z"/>
<path fill="#FBBC05" opacity="1.000000" stroke="none" 
	d="
M498.048035,408.007751 
	C495.157959,412.023926 492.477753,416.213348 489.335114,420.021088 
	C482.306458,428.537323 475.005035,436.827728 467.891846,445.275024 
	C456.625732,458.654144 445.467682,472.124329 434.183014,485.487701 
	C415.938629,507.092712 397.590637,528.610229 379.356384,550.223694 
	C358.537231,574.901184 337.789948,599.639221 317.027252,624.364197 
	C315.218201,626.518494 313.527008,628.771790 311.514221,631.187744 
	C306.240509,625.271362 301.154449,619.208984 296.241302,613.009644 
	C280.775238,593.494751 265.235352,574.036072 249.980545,554.356812 
	C227.417419,525.249390 206.191864,495.253754 190.495544,461.724365 
	C189.791794,460.221039 189.192841,458.668640 188.736664,456.473083 
	C200.469482,442.069580 212.011414,428.332703 223.551773,414.594482 
	C242.142120,392.463501 260.731384,370.331604 279.321228,348.200195 
	C296.308624,327.976471 313.248199,307.712189 330.319305,287.559326 
	C334.319092,282.837433 338.764069,278.492676 343.003174,274.333191 
	C333.150909,291.445038 328.044586,309.580383 328.485413,328.971405 
	C329.224396,361.475494 342.301758,388.212708 367.536865,408.809265 
	C401.142273,436.237549 452.206848,438.444092 485.399017,415.418884 
	C489.402527,412.641663 493.821594,410.463531 498.048035,408.007751 
z"/>
<path fill="#4285F4" opacity="1.000000" stroke="none" 
	d="
M671.372803,203.114197 
	C656.473572,221.284576 641.537903,239.119431 626.581116,256.936462 
	C600.936646,287.484894 575.302063,318.041687 549.614441,348.553741 
	C540.419983,359.475037 531.083923,370.277039 521.403687,380.777344 
	C521.651672,379.079712 522.262573,377.713470 522.972229,376.400574 
	C534.235107,355.562805 537.609009,333.323883 533.728271,310.153046 
	C523.022888,246.234604 455.765289,207.696671 395.344177,231.171204 
	C384.662994,235.321030 375.115112,242.387833 365.033142,247.745132 
	C365.700439,246.067642 366.162537,244.571991 367.088867,243.464722 
	C381.218170,226.575439 395.380096,209.713272 409.591064,192.892593 
	C426.368774,173.033813 443.250885,153.263031 459.996124,133.376999 
	C477.700623,112.351860 495.297363,91.236000 512.941162,70.159760 
	C531.096985,75.356903 548.184082,83.085007 564.576416,92.344513 
	C610.427795,118.244576 645.498962,154.712173 670.536194,200.943527 
	C670.851013,201.524796 671.065491,202.160400 671.372803,203.114197 
z"/>
<path fill="#EA4436" opacity="1.000000" stroke="none" 
	d="
M343.004211,273.974426 
	C338.764069,278.492676 334.319092,282.837433 330.319305,287.559326 
	C313.248199,307.712189 296.308624,327.976471 279.321228,348.200195 
	C260.731384,370.331604 242.142120,392.463501 223.551773,414.594482 
	C212.011414,428.332703 200.469482,442.069580 188.681000,456.105377 
	C182.796158,440.807709 175.889374,425.540314 171.750885,409.556152 
	C157.389999,354.090057 156.970840,298.614655 174.849625,243.650513 
	C185.579025,210.665482 202.217743,180.919846 225.124298,154.506485 
	C267.878662,190.170670 310.072327,225.706375 352.146790,261.556030 
	C349.514038,265.232086 347.000519,268.594269 344.127075,272.041199 
	C343.505463,272.759338 343.243866,273.392731 342.980713,274.010010 
	C342.979218,273.993927 343.004211,273.974396 343.004211,273.974426 
z"/>
<path fill="#1B73E8" opacity="1.000000" stroke="none" 
	d="
M352.265991,261.242096 
	C310.072327,225.706375 267.878662,190.170670 225.452087,154.435944 
	C233.722565,145.187744 241.708313,135.575653 250.824051,127.192276 
	C281.187622,99.268059 316.374542,79.533020 356.023346,68.179131 
	C392.580719,57.710522 429.863556,53.989708 467.614899,59.897385 
	C482.660431,62.251846 497.423004,66.414352 512.627808,69.956772 
	C495.297363,91.236000 477.700623,112.351860 459.996124,133.376999 
	C443.250885,153.263031 426.368774,173.033813 409.591064,192.892593 
	C395.380096,209.713272 381.218170,226.575439 367.088867,243.464722 
	C366.162537,244.571991 365.700439,246.067642 364.893097,248.042938 
	C360.597870,252.882843 356.431915,257.062469 352.265991,261.242096 
z"/>
<path fill="#FFFFFF" opacity="1.000000" stroke="none" 
	d="
M352.146790,261.556030 
	C356.431915,257.062469 360.597870,252.882843 364.903839,248.405426 
	C375.115112,242.387833 384.662994,235.321030 395.344177,231.171204 
	C455.765289,207.696671 523.022888,246.234604 533.728271,310.153046 
	C537.609009,333.323883 534.235107,355.562805 522.972229,376.400574 
	C522.262573,377.713470 521.651672,379.079712 521.057495,380.791718 
	C521.120178,381.162262 521.062317,381.111328 520.753662,381.145081 
	C520.271301,381.787231 520.097595,382.395660 519.923889,383.004059 
	C519.923889,383.004059 519.999390,383.002502 519.689453,383.022797 
	C519.232117,383.430298 519.084839,383.817535 518.937500,384.204742 
	C512.534119,391.724365 506.130768,399.244019 499.119720,406.881104 
	C498.333832,407.341766 498.155670,407.684937 497.977509,408.028107 
	C497.977509,408.028107 498.017731,408.032959 498.032898,408.020386 
	C493.821594,410.463531 489.402527,412.641663 485.399017,415.418884 
	C452.206848,438.444092 401.142273,436.237549 367.536865,408.809265 
	C342.301758,388.212708 329.224396,361.475494 328.485413,328.971405 
	C328.044586,309.580383 333.150909,291.445038 343.003143,274.333191 
	C343.004211,273.974396 342.979218,273.993927 343.297119,273.890411 
	C343.905670,273.176758 344.196350,272.566589 344.487000,271.956421 
	C347.000519,268.594269 349.514038,265.232086 352.146790,261.556030 
z"/>
<path fill="#4285F4" opacity="1.000000" stroke="none" 
	d="
M520.228027,382.887146 
	C520.097595,382.395660 520.271301,381.787231 520.765320,381.108337 
	C520.901123,381.615326 520.716614,382.192780 520.228027,382.887146 
z"/>
<path fill="#4285F4" opacity="1.000000" stroke="none" 
	d="
M519.212402,384.088135 
	C519.084839,383.817535 519.232117,383.430298 519.688965,382.985016 
	C519.828125,383.275146 519.657715,383.623352 519.212402,384.088135 
z"/>
<path fill="#FBBC05" opacity="1.000000" stroke="none" 
	d="
M498.274841,408.161682 
	C498.155670,407.684937 498.333832,407.341766 498.828552,407.074280 
	C498.954102,407.531738 498.763123,407.913483 498.274841,408.161682 
z"/>
<path fill="#FBBC05" opacity="1.000000" stroke="none" 
	d="
M344.127045,272.041199 
	C344.196350,272.566589 343.905670,273.176758 343.298615,273.906494 
	C343.243866,273.392731 343.505463,272.759338 344.127045,272.041199 
z"/>
</svg>