<svg version="1.1" id="Layer_1" xmlns="http://www.w3.org/2000/svg" xmlns:xlink="http://www.w3.org/1999/xlink" x="0px" y="0px"
	 width="100%" viewBox="0 0 256 256" enable-background="new 0 0 256 256" xml:space="preserve">
<path fill="none" opacity="1.000000" stroke="none" 
	d="
M144.000000,257.000000 
	C96.000000,257.000000 48.500004,257.000000 1.000006,257.000000 
	C1.000004,171.666672 1.000004,86.333351 1.000002,1.000018 
	C86.333321,1.000012 171.666641,1.000012 257.000000,1.000006 
	C257.000000,86.333313 257.000000,171.666626 257.000000,256.999969 
	C219.500000,257.000000 182.000000,257.000000 144.000000,257.000000 
M165.306458,243.836639 
	C181.500031,239.328796 197.664490,234.711029 213.911697,230.405563 
	C217.175171,229.540741 218.530548,228.246201 218.823120,224.828705 
	C221.179840,197.301468 223.727966,169.790649 226.194061,142.272720 
	C229.685165,103.317451 233.162262,64.360924 236.629608,25.403540 
	C237.196548,19.033640 237.682693,12.656549 238.219574,6.119742 
	C164.994232,6.119742 92.620262,6.119742 19.941351,6.119742 
	C19.941351,8.055107 19.817087,9.680976 19.959791,11.283065 
	C22.543644,40.291103 25.180794,69.294395 27.763811,98.302513 
	C31.528463,140.580765 35.285828,182.859726 38.947071,225.146988 
	C39.204464,228.119904 40.299072,229.413956 43.213516,230.212219 
	C70.503929,237.686829 97.734390,245.380447 125.029861,252.836212 
	C127.439278,253.494324 130.324097,253.449417 132.752625,252.821030 
	C143.387100,250.069290 153.934799,246.982208 165.306458,243.836639 
z"/>
<path fill="#E34E28" opacity="1.000000" stroke="none" 
	d="
M164.910217,243.926727 
	C153.934799,246.982208 143.387100,250.069290 132.752625,252.821030 
	C130.324097,253.449417 127.439278,253.494324 125.029861,252.836212 
	C97.734390,245.380447 70.503929,237.686829 43.213516,230.212219 
	C40.299072,229.413956 39.204464,228.119904 38.947071,225.146988 
	C35.285828,182.859726 31.528463,140.580765 27.763811,98.302513 
	C25.180794,69.294395 22.543644,40.291103 19.959791,11.283065 
	C19.817087,9.680976 19.941351,8.055107 19.941351,6.119742 
	C92.620262,6.119742 164.994232,6.119742 238.219574,6.119742 
	C237.682693,12.656549 237.196548,19.033640 236.629608,25.403540 
	C233.162262,64.360924 229.685165,103.317451 226.194061,142.272720 
	C223.727966,169.790649 221.179840,197.301468 218.823120,224.828705 
	C218.530548,228.246201 217.175171,229.540741 213.911697,230.405563 
	C197.664490,234.711029 181.500031,239.328796 164.910217,243.926727 
M135.499603,51.899792 
	C110.537369,51.899792 85.575134,51.899792 60.255684,51.899792 
	C60.382858,53.709885 60.454483,54.989250 60.565098,56.265232 
	C62.706947,80.970825 64.940979,105.669022 66.911674,130.388229 
	C67.236168,134.458481 69.497879,134.240448 72.292694,134.238785 
	C100.121490,134.222122 127.950317,134.248413 155.779129,134.262344 
	C157.712692,134.263306 159.646255,134.262466 162.147507,134.262466 
	C161.134979,145.277100 160.064804,155.480621 159.336807,165.708511 
	C159.116241,168.807053 157.747223,170.027969 154.992294,170.740494 
	C147.596329,172.653381 140.288162,174.919662 132.858780,176.681519 
	C130.356949,177.274811 127.475555,177.275909 124.975075,176.678894 
	C117.224861,174.828415 109.600883,172.455048 101.871735,170.507599 
	C98.908028,169.760834 97.940262,168.270538 97.881935,165.260361 
	C97.770905,159.529739 97.185394,153.808319 96.803619,148.182068 
	C87.259422,148.182068 78.316650,148.182068 69.319954,148.182068 
	C69.161484,148.871384 68.930977,149.341446 68.968307,149.789185 
	C70.044678,162.700226 71.071922,175.616653 72.370575,188.505692 
	C72.493134,189.722092 74.158524,191.417618 75.428932,191.787735 
	C91.990021,196.612503 108.587463,201.318268 125.239098,205.819656 
	C127.516365,206.435257 130.267624,206.265320 132.577026,205.639008 
	C149.007874,201.182922 165.406067,196.598862 181.731705,191.774780 
	C183.294235,191.313034 185.210663,189.037781 185.397018,187.423630 
	C186.519943,177.698044 187.152328,167.916748 188.014496,158.159882 
	C188.890259,148.249298 189.864288,138.347443 190.752594,128.437927 
	C191.370834,121.540871 191.917023,114.637367 192.545410,107.139954 
	C158.899902,107.139954 125.993233,107.139954 92.972931,107.139954 
	C92.203491,97.559990 91.476852,88.513008 90.697800,78.813416 
	C125.638458,78.813416 160.187683,78.813416 194.694412,78.813416 
	C195.603638,69.636795 196.450531,61.089386 197.361084,51.899380 
	C176.727188,51.899380 156.613449,51.899380 135.499603,51.899792 
z"/>
<path fill="#FFFDFD" opacity="1.000000" stroke="none" 
	d="
M135.999649,51.899586 
	C156.613449,51.899380 176.727188,51.899380 197.361084,51.899380 
	C196.450531,61.089386 195.603638,69.636795 194.694412,78.813416 
	C160.187683,78.813416 125.638458,78.813416 90.697800,78.813416 
	C91.476852,88.513008 92.203491,97.559990 92.972931,107.139954 
	C125.993233,107.139954 158.899902,107.139954 192.545410,107.139954 
	C191.917023,114.637367 191.370834,121.540871 190.752594,128.437927 
	C189.864288,138.347443 188.890259,148.249298 188.014496,158.159882 
	C187.152328,167.916748 186.519943,177.698044 185.397018,187.423630 
	C185.210663,189.037781 183.294235,191.313034 181.731705,191.774780 
	C165.406067,196.598862 149.007874,201.182922 132.577026,205.639008 
	C130.267624,206.265320 127.516365,206.435257 125.239098,205.819656 
	C108.587463,201.318268 91.990021,196.612503 75.428932,191.787735 
	C74.158524,191.417618 72.493134,189.722092 72.370575,188.505692 
	C71.071922,175.616653 70.044678,162.700226 68.968307,149.789185 
	C68.930977,149.341446 69.161484,148.871384 69.319954,148.182068 
	C78.316650,148.182068 87.259422,148.182068 96.803619,148.182068 
	C97.185394,153.808319 97.770905,159.529739 97.881935,165.260361 
	C97.940262,168.270538 98.908028,169.760834 101.871735,170.507599 
	C109.600883,172.455048 117.224861,174.828415 124.975075,176.678894 
	C127.475555,177.275909 130.356949,177.274811 132.858780,176.681519 
	C140.288162,174.919662 147.596329,172.653381 154.992294,170.740494 
	C157.747223,170.027969 159.116241,168.807053 159.336807,165.708511 
	C160.064804,155.480621 161.134979,145.277100 162.147507,134.262466 
	C159.646255,134.262466 157.712692,134.263306 155.779129,134.262344 
	C127.950317,134.248413 100.121490,134.222122 72.292694,134.238785 
	C69.497879,134.240448 67.236168,134.458481 66.911674,130.388229 
	C64.940979,105.669022 62.706947,80.970825 60.565098,56.265232 
	C60.454483,54.989250 60.382858,53.709885 60.255684,51.899792 
	C85.575134,51.899792 110.537369,51.899792 135.999649,51.899586 
z"/>
</svg>