<svg version="1.1" id="Layer_1" xmlns="http://www.w3.org/2000/svg" xmlns:xlink="http://www.w3.org/1999/xlink" x="0px" y="0px"
	 width="100%" viewBox="0 0 256 256" enable-background="new 0 0 256 256" xml:space="preserve">
<path fill="none" opacity="1.000000" stroke="none" 
	d="
M174.000000,257.000000 
	C116.000000,257.000000 58.500008,257.000000 1.000008,257.000000 
	C1.000005,171.666672 1.000005,86.333351 1.000003,1.000019 
	C86.333321,1.000013 171.666641,1.000013 257.000000,1.000006 
	C257.000000,86.333313 257.000000,171.666626 257.000000,256.999969 
	C229.500000,257.000000 202.000000,257.000000 174.000000,257.000000 
M88.382446,67.192314 
	C88.024773,69.021988 86.950912,71.062798 87.418587,72.649155 
	C93.009468,91.613373 99.024208,110.454086 104.483704,129.454803 
	C106.398628,136.119339 111.269775,133.721222 115.355263,134.205505 
	C119.578072,134.706039 120.172195,131.645432 120.881912,128.648819 
	C123.910919,115.859428 126.947197,103.071754 130.001419,90.288376 
	C130.470551,88.324829 131.047409,86.387039 131.574448,84.437332 
	C132.719559,85.160240 132.913116,85.724327 133.052429,86.301498 
	C136.366745,100.032135 139.665451,113.766556 142.991928,127.494232 
	C143.794495,130.806198 143.857117,134.378876 149.036972,134.370834 
	C157.877563,134.357132 158.012680,134.552017 159.948547,128.276749 
	C161.125732,124.460808 162.290283,120.640961 163.476456,116.827843 
	C168.069351,102.063217 172.730225,87.319061 177.172775,72.509384 
	C177.630142,70.984688 177.376511,68.013672 176.468094,67.517853 
	C171.571228,64.845047 165.472183,67.757423 164.108246,73.043213 
	C160.699890,86.251923 157.338043,99.472641 153.926941,112.680634 
	C153.315781,115.047035 152.558029,117.375572 151.503433,120.960884 
	C147.481064,104.006416 143.642410,88.525490 140.218506,72.953377 
	C139.236343,68.486382 137.277313,66.906372 132.769867,67.039703 
	C128.425797,67.168213 125.174797,67.365494 124.079994,72.783516 
	C121.676262,84.679230 118.693077,96.458549 115.902397,108.274986 
	C115.054909,111.863449 114.063118,115.417824 113.137413,118.987816 
	C108.804886,104.800293 105.352577,90.766335 101.703377,76.783760 
	C98.824860,65.754189 100.104233,67.242310 88.382446,67.192314 
M61.690567,173.949478 
	C48.151676,168.026138 34.623913,162.077072 21.059624,156.212479 
	C19.386900,155.489288 17.519283,155.216873 15.741978,154.735565 
	C15.501771,155.287750 15.261563,155.839951 15.021357,156.392136 
	C16.304741,157.793930 17.458113,159.347473 18.890766,160.575073 
	C45.741199,183.582504 76.749130,197.049271 111.966805,200.291733 
	C149.784637,203.773575 185.149231,196.170456 217.330475,175.503220 
	C219.704453,173.978607 224.232651,172.680084 221.943832,168.651093 
	C219.738571,164.769180 216.275101,167.804871 213.554977,168.866104 
	C163.797699,188.278458 113.446922,190.064667 61.690567,173.949478 
M54.329727,65.354561 
	C47.062107,66.872681 39.729080,68.138428 32.550220,69.999016 
	C27.883980,71.208397 29.029541,75.471458 29.473099,78.786316 
	C29.518389,79.124794 33.574661,79.271729 35.664478,78.906158 
	C38.424194,78.423409 41.027325,77.001266 43.788845,76.580109 
	C64.274170,73.455879 67.487862,80.126076 66.791878,95.558990 
	C66.779457,95.834572 66.529266,96.099426 66.276649,96.589005 
	C64.054924,96.183907 61.754219,95.333481 59.494690,95.431549 
	C52.104187,95.752350 44.356701,95.175751 37.435795,97.247223 
	C27.406261,100.249138 22.975481,110.393417 25.145023,121.126968 
	C26.934195,129.978683 34.321815,135.637665 44.479794,136.013229 
	C53.722622,136.354919 61.254608,132.710602 67.454033,126.062172 
	C69.092682,128.441895 70.492134,130.704834 72.121712,132.787735 
	C74.684410,136.063324 77.036179,133.935623 79.407181,132.343918 
	C81.628212,130.852875 83.644852,129.911453 82.445419,126.137878 
	C80.716576,120.698685 79.682983,114.913284 79.276474,109.209785 
	C78.732719,101.580750 79.306465,93.878708 78.979340,86.226021 
	C78.483078,74.616302 71.656532,67.436615 60.184834,65.941170 
	C58.533039,65.725845 56.873787,65.567757 54.329727,65.354561 
M201.825699,76.882355 
	C211.119003,73.617790 220.002945,76.635712 228.998886,79.489159 
	C229.544662,74.875992 230.797760,70.720055 226.037857,68.730873 
	C215.816483,64.459351 205.357040,63.306770 195.085266,68.344360 
	C188.159256,71.741089 183.893555,77.457428 184.207047,85.458961 
	C184.514587,93.308228 188.616882,99.033630 195.927750,101.962852 
	C201.930573,104.367989 208.182159,106.144562 214.260941,108.370567 
	C218.119583,109.783577 221.003174,112.320061 220.697342,116.833046 
	C220.387619,121.403557 217.443024,123.957443 213.189392,125.051903 
	C205.127304,127.126282 197.377502,125.710991 189.679626,123.037636 
	C187.892807,122.417091 185.777405,122.742722 183.813171,122.632988 
	C183.992935,125.217033 183.755493,127.935791 184.528137,130.328384 
	C184.915543,131.528091 187.051193,132.358276 188.553162,132.970398 
	C196.452682,136.189819 204.728271,137.044525 213.084045,135.774002 
	C224.691483,134.009064 232.391052,126.666588 233.102463,117.295799 
	C233.914474,106.599884 229.167374,100.824448 216.274216,96.637131 
	C211.534500,95.097809 206.671860,93.755974 202.195068,91.629730 
	C195.155289,88.286217 194.820694,82.022690 201.825699,76.882355 
M205.223450,154.677261 
	C203.404358,156.000443 201.585281,157.323639 199.766190,158.646820 
	C200.017334,159.084061 200.268494,159.521317 200.519638,159.958557 
	C201.620346,159.958557 202.722626,159.996994 203.821518,159.952301 
	C210.799973,159.668625 217.788757,158.981537 224.752457,159.181610 
	C231.373337,159.371826 233.187271,161.862625 231.602234,168.211121 
	C230.035721,174.485428 227.741913,180.576675 225.821671,186.765152 
	C225.333633,188.337997 225.052673,189.975113 224.408707,192.727554 
	C226.575272,191.505676 227.704514,191.137909 228.471054,190.395615 
	C237.946198,181.220322 242.039703,169.709076 242.754562,156.812759 
	C242.964264,153.029602 240.396561,151.662537 237.142334,151.034637 
	C226.386826,148.959305 215.943756,149.777512 205.223450,154.677261 
z"/>
<path fill="#2A3443" opacity="1.000000" stroke="none" 
	d="
M88.791000,67.174385 
	C100.104233,67.242310 98.824860,65.754189 101.703377,76.783760 
	C105.352577,90.766335 108.804886,104.800293 113.137413,118.987816 
	C114.063118,115.417824 115.054909,111.863449 115.902397,108.274986 
	C118.693077,96.458549 121.676262,84.679230 124.079994,72.783516 
	C125.174797,67.365494 128.425797,67.168213 132.769867,67.039703 
	C137.277313,66.906372 139.236343,68.486382 140.218506,72.953377 
	C143.642410,88.525490 147.481064,104.006416 151.503433,120.960884 
	C152.558029,117.375572 153.315781,115.047035 153.926941,112.680634 
	C157.338043,99.472641 160.699890,86.251923 164.108246,73.043213 
	C165.472183,67.757423 171.571228,64.845047 176.468094,67.517853 
	C177.376511,68.013672 177.630142,70.984688 177.172775,72.509384 
	C172.730225,87.319061 168.069351,102.063217 163.476456,116.827843 
	C162.290283,120.640961 161.125732,124.460808 159.948547,128.276749 
	C158.012680,134.552017 157.877563,134.357132 149.036972,134.370834 
	C143.857117,134.378876 143.794495,130.806198 142.991928,127.494232 
	C139.665451,113.766556 136.366745,100.032135 133.052429,86.301498 
	C132.913116,85.724327 132.719559,85.160240 131.574448,84.437332 
	C131.047409,86.387039 130.470551,88.324829 130.001419,90.288376 
	C126.947197,103.071754 123.910919,115.859428 120.881912,128.648819 
	C120.172195,131.645432 119.578072,134.706039 115.355263,134.205505 
	C111.269775,133.721222 106.398628,136.119339 104.483704,129.454803 
	C99.024208,110.454086 93.009468,91.613373 87.418587,72.649155 
	C86.950912,71.062798 88.024773,69.021988 88.791000,67.174385 
z"/>
<path fill="#FF9B05" opacity="1.000000" stroke="none" 
	d="
M62.080505,174.032532 
	C113.446922,190.064667 163.797699,188.278458 213.554977,168.866104 
	C216.275101,167.804871 219.738571,164.769180 221.943832,168.651093 
	C224.232651,172.680084 219.704453,173.978607 217.330475,175.503220 
	C185.149231,196.170456 149.784637,203.773575 111.966805,200.291733 
	C76.749130,197.049271 45.741199,183.582504 18.890766,160.575073 
	C17.458113,159.347473 16.304741,157.793930 15.021357,156.392136 
	C15.261563,155.839951 15.501771,155.287750 15.741978,154.735565 
	C17.519283,155.216873 19.386900,155.489288 21.059624,156.212479 
	C34.623913,162.077072 48.151676,168.026138 62.080505,174.032532 
z"/>
<path fill="#293342" opacity="1.000000" stroke="none" 
	d="
M54.773857,65.368866 
	C56.873787,65.567757 58.533039,65.725845 60.184834,65.941170 
	C71.656532,67.436615 78.483078,74.616302 78.979340,86.226021 
	C79.306465,93.878708 78.732719,101.580750 79.276474,109.209785 
	C79.682983,114.913284 80.716576,120.698685 82.445419,126.137878 
	C83.644852,129.911453 81.628212,130.852875 79.407181,132.343918 
	C77.036179,133.935623 74.684410,136.063324 72.121712,132.787735 
	C70.492134,130.704834 69.092682,128.441895 67.454033,126.062172 
	C61.254608,132.710602 53.722622,136.354919 44.479794,136.013229 
	C34.321815,135.637665 26.934195,129.978683 25.145023,121.126968 
	C22.975481,110.393417 27.406261,100.249138 37.435795,97.247223 
	C44.356701,95.175751 52.104187,95.752350 59.494690,95.431549 
	C61.754219,95.333481 64.054924,96.183907 66.276649,96.589005 
	C66.529266,96.099426 66.779457,95.834572 66.791878,95.558990 
	C67.487862,80.126076 64.274170,73.455879 43.788845,76.580109 
	C41.027325,77.001266 38.424194,78.423409 35.664478,78.906158 
	C33.574661,79.271729 29.518389,79.124794 29.473099,78.786316 
	C29.029541,75.471458 27.883980,71.208397 32.550220,69.999016 
	C39.729080,68.138428 47.062107,66.872681 54.773857,65.368866 
M58.913738,123.682335 
	C66.276680,119.619362 67.613884,113.043739 66.587593,104.072876 
	C60.142273,104.072876 53.705448,103.557884 47.390190,104.213638 
	C40.697430,104.908592 37.351509,110.148415 38.043674,117.134644 
	C38.636642,123.119659 42.663383,126.402946 49.567436,125.971565 
	C52.477997,125.789719 55.331123,124.688675 58.913738,123.682335 
z"/>
<path fill="#2A3443" opacity="1.000000" stroke="none" 
	d="
M201.441742,77.032043 
	C194.820694,82.022690 195.155289,88.286217 202.195068,91.629730 
	C206.671860,93.755974 211.534500,95.097809 216.274216,96.637131 
	C229.167374,100.824448 233.914474,106.599884 233.102463,117.295799 
	C232.391052,126.666588 224.691483,134.009064 213.084045,135.774002 
	C204.728271,137.044525 196.452682,136.189819 188.553162,132.970398 
	C187.051193,132.358276 184.915543,131.528091 184.528137,130.328384 
	C183.755493,127.935791 183.992935,125.217033 183.813171,122.632988 
	C185.777405,122.742722 187.892807,122.417091 189.679626,123.037636 
	C197.377502,125.710991 205.127304,127.126282 213.189392,125.051903 
	C217.443024,123.957443 220.387619,121.403557 220.697342,116.833046 
	C221.003174,112.320061 218.119583,109.783577 214.260941,108.370567 
	C208.182159,106.144562 201.930573,104.367989 195.927750,101.962852 
	C188.616882,99.033630 184.514587,93.308228 184.207047,85.458961 
	C183.893555,77.457428 188.159256,71.741089 195.085266,68.344360 
	C205.357040,63.306770 215.816483,64.459351 226.037857,68.730873 
	C230.797760,70.720055 229.544662,74.875992 228.998886,79.489159 
	C220.002945,76.635712 211.119003,73.617790 201.441742,77.032043 
z"/>
<path fill="#FF9D09" opacity="1.000000" stroke="none" 
	d="
M205.552124,154.485718 
	C215.943756,149.777512 226.386826,148.959305 237.142334,151.034637 
	C240.396561,151.662537 242.964264,153.029602 242.754562,156.812759 
	C242.039703,169.709076 237.946198,181.220322 228.471054,190.395615 
	C227.704514,191.137909 226.575272,191.505676 224.408707,192.727554 
	C225.052673,189.975113 225.333633,188.337997 225.821671,186.765152 
	C227.741913,180.576675 230.035721,174.485428 231.602234,168.211121 
	C233.187271,161.862625 231.373337,159.371826 224.752457,159.181610 
	C217.788757,158.981537 210.799973,159.668625 203.821518,159.952301 
	C202.722626,159.996994 201.620346,159.958557 200.519638,159.958557 
	C200.268494,159.521317 200.017334,159.084061 199.766190,158.646820 
	C201.585281,157.323639 203.404358,156.000443 205.552124,154.485718 
z"/>
<path fill="none" opacity="1.000000" stroke="none" 
	d="
M58.562050,123.843895 
	C55.331123,124.688675 52.477997,125.789719 49.567436,125.971565 
	C42.663383,126.402946 38.636642,123.119659 38.043674,117.134644 
	C37.351509,110.148415 40.697430,104.908592 47.390190,104.213638 
	C53.705448,103.557884 60.142273,104.072876 66.587593,104.072876 
	C67.613884,113.043739 66.276680,119.619362 58.562050,123.843895 
z"/>
</svg>