<svg version="1.1" id="Layer_1" xmlns="http://www.w3.org/2000/svg" xmlns:xlink="http://www.w3.org/1999/xlink" x="0px" y="0px"
	 width="100%" viewBox="0 0 256 256" enable-background="new 0 0 256 256" xml:space="preserve">
<path fill="none" opacity="1.000000" stroke="none" 
	d="
M143.000000,257.000000 
	C95.333336,257.000000 48.166672,257.000000 1.000006,257.000000 
	C1.000004,171.666672 1.000004,86.333351 1.000002,1.000018 
	C86.333321,1.000012 171.666641,1.000012 257.000000,1.000006 
	C257.000000,86.333313 257.000000,171.666626 257.000000,256.999969 
	C219.166672,257.000000 181.333328,257.000000 143.000000,257.000000 
M238.240707,190.280762 
	C238.826859,187.771683 239.915710,185.264160 239.923508,182.753296 
	C240.034485,147.012772 240.052307,111.271599 239.902191,75.531372 
	C239.889648,72.546867 238.507202,69.568108 237.860748,65.922119 
	C235.475052,63.596687 233.423813,60.717960 230.647079,59.039368 
	C216.922272,50.742470 203.044724,42.695030 189.146530,34.688961 
	C172.143646,24.894424 155.390839,14.571628 137.826080,5.903455 
	C132.495987,3.273062 123.764755,3.150160 118.441917,5.716743 
	C102.868217,13.226114 88.229027,22.672930 73.220245,31.354700 
	C58.299664,39.985462 43.331604,48.535324 28.470995,57.268082 
	C21.419111,61.412083 17.023611,67.452477 17.015200,75.962685 
	C16.979975,111.598785 16.933092,147.235321 17.130171,182.870377 
	C17.145691,185.676590 19.000834,188.472626 20.033813,191.943527 
	C22.042330,194.297348 23.630146,197.333069 26.136765,198.879517 
	C34.262863,203.892899 42.788239,208.253021 51.046654,213.059204 
	C70.128540,224.164352 89.074211,235.505249 108.222122,246.494415 
	C115.442429,250.638214 122.423904,255.023193 131.745682,254.301483 
	C138.136124,253.806717 142.586411,250.228210 147.384201,247.551163 
	C172.230957,233.687225 196.730530,219.199463 221.304352,204.849091 
	C227.591400,201.177658 234.663132,198.352585 238.240707,190.280762 
z"/>
<path fill="#649AD2" opacity="1.000000" stroke="none" 
	d="
M20.001011,191.273392 
	C19.000834,188.472626 17.145691,185.676590 17.130171,182.870377 
	C16.933092,147.235321 16.979975,111.598785 17.015200,75.962685 
	C17.023611,67.452477 21.419111,61.412083 28.470995,57.268082 
	C43.331604,48.535324 58.299664,39.985462 73.220245,31.354700 
	C88.229027,22.672930 102.868217,13.226114 118.441917,5.716743 
	C123.764755,3.150160 132.495987,3.273062 137.826080,5.903455 
	C155.390839,14.571628 172.143646,24.894424 189.146530,34.688961 
	C203.044724,42.695030 216.922272,50.742470 230.647079,59.039368 
	C233.423813,60.717960 235.475052,63.596687 237.457016,66.340347 
	C229.588257,70.989883 222.164093,75.295502 214.646454,79.431160 
	C207.458206,83.385612 200.172714,87.163300 192.607559,90.914398 
	C191.800705,90.136574 191.297562,89.475624 190.834488,88.787682 
	C171.479568,60.033775 137.134064,48.118626 104.901291,58.979607 
	C73.039345,69.715630 53.039898,100.055725 54.929691,134.490234 
	C55.545444,145.710052 59.531891,155.852585 63.841255,166.183472 
	C49.101479,174.739014 34.551243,183.006195 20.001011,191.273392 
z"/>
<path fill="#014482" opacity="1.000000" stroke="none" 
	d="
M20.017410,191.608459 
	C34.551243,183.006195 49.101479,174.739014 64.143303,166.343796 
	C65.450806,167.470062 66.247688,168.737228 67.085388,169.976807 
	C97.897926,215.571609 164.948151,213.486252 193.048325,166.189209 
	C200.828415,170.586441 208.220261,174.957397 215.727188,179.120865 
	C223.049500,183.181885 230.489426,187.030869 237.877731,190.972931 
	C234.663132,198.352585 227.591400,201.177658 221.304352,204.849091 
	C196.730530,219.199463 172.230957,233.687225 147.384201,247.551163 
	C142.586411,250.228210 138.136124,253.806717 131.745682,254.301483 
	C122.423904,255.023193 115.442429,250.638214 108.222122,246.494415 
	C89.074211,235.505249 70.128540,224.164352 51.046654,213.059204 
	C42.788239,208.253021 34.262863,203.892899 26.136765,198.879517 
	C23.630146,197.333069 22.042330,194.297348 20.017410,191.608459 
z"/>
<path fill="#01589C" opacity="1.000000" stroke="none" 
	d="
M238.059219,190.626862 
	C230.489426,187.030869 223.049500,183.181885 215.727188,179.120865 
	C208.220261,174.957397 200.828415,170.586441 192.761353,166.021667 
	C183.977585,160.984055 175.849228,156.177368 167.640747,151.511597 
	C165.251816,150.153717 162.634064,149.198410 159.923203,147.778015 
	C155.714661,144.950653 151.713043,142.389648 147.691498,139.860321 
	C141.753983,136.125946 135.802292,132.414124 130.079941,128.444763 
	C131.873917,127.262558 133.452759,126.341759 135.013855,125.391800 
	C143.345688,120.321754 151.673050,115.244408 160.374054,110.168602 
	C167.801392,106.202034 174.908463,102.324936 181.891174,98.235512 
	C185.680069,96.016541 189.257278,93.436081 192.929962,91.018677 
	C200.172714,87.163300 207.458206,83.385612 214.646454,79.431160 
	C222.164093,75.295502 229.588257,70.989883 237.407257,66.672623 
	C238.507202,69.568108 239.889648,72.546867 239.902191,75.531372 
	C240.052307,111.271599 240.034485,147.012772 239.923508,182.753296 
	C239.915710,185.264160 238.826859,187.771683 238.059219,190.626862 
z"/>
<path fill="#FDFEFE" opacity="1.000000" stroke="none" 
	d="
M160.121216,148.058548 
	C162.634064,149.198410 165.251816,150.153717 167.640747,151.511597 
	C175.849228,156.177368 183.977585,160.984055 192.423462,165.904572 
	C164.948151,213.486252 97.897926,215.571609 67.085388,169.976807 
	C66.247688,168.737228 65.450806,167.470062 64.332848,166.055420 
	C59.531891,155.852585 55.545444,145.710052 54.929691,134.490234 
	C53.039898,100.055725 73.039345,69.715630 104.901291,58.979607 
	C137.134064,48.118626 171.479568,60.033775 190.834488,88.787682 
	C191.297562,89.475624 191.800705,90.136574 192.607559,90.914398 
	C189.257278,93.436081 185.680069,96.016541 181.891174,98.235512 
	C174.908463,102.324936 167.801392,106.202034 160.352539,109.813080 
	C151.401901,95.733345 136.191803,89.510719 119.842918,93.046593 
	C96.402245,98.116249 83.785736,127.719444 96.886307,147.389664 
	C104.264786,159.909851 115.178230,166.119492 129.232620,165.895981 
	C142.596848,165.683456 153.197968,159.844727 160.121216,148.058548 
z"/>
<path fill="#649AD2" opacity="1.000000" stroke="none" 
	d="
M96.830841,147.041824 
	C83.785736,127.719444 96.402245,98.116249 119.842918,93.046593 
	C136.191803,89.510719 151.401901,95.733345 159.980453,109.814072 
	C151.673050,115.244408 143.345688,120.321754 135.013855,125.391800 
	C133.452759,126.341759 131.873917,127.262558 129.741486,128.554779 
	C118.396751,134.955780 107.613792,140.998795 96.830841,147.041824 
z"/>
<path fill="#034583" opacity="1.000000" stroke="none" 
	d="
M96.886307,147.389664 
	C107.613792,140.998795 118.396751,134.955780 129.518158,128.802719 
	C135.802292,132.414124 141.753983,136.125946 147.691498,139.860321 
	C151.713043,142.389648 155.714661,144.950653 159.923203,147.778015 
	C153.197968,159.844727 142.596848,165.683456 129.232620,165.895981 
	C115.178230,166.119492 104.264786,159.909851 96.886307,147.389664 
z"/>
</svg>