<?xml version="1.0" encoding="UTF-8" standalone="no"?>
<!-- Created with Inkscape (http://www.inkscape.org/) -->

<svg
   version="1.1"
   id="svg1"
   width="907"
   height="671"
   viewBox="0 0 907 671"
   sodipodi:docname="discord.svg"
   inkscape:version="1.3.2 (091e20e, 2023-11-25, custom)"
   xmlns:inkscape="http://www.inkscape.org/namespaces/inkscape"
   xmlns:sodipodi="http://sodipodi.sourceforge.net/DTD/sodipodi-0.dtd"
   xmlns="http://www.w3.org/2000/svg"
   xmlns:svg="http://www.w3.org/2000/svg">
  <defs
     id="defs1" />
  <sodipodi:namedview
     id="namedview1"
     pagecolor="#ffffff"
     bordercolor="#000000"
     borderopacity="0.25"
     inkscape:showpageshadow="2"
     inkscape:pageopacity="0.0"
     inkscape:pagecheckerboard="0"
     inkscape:deskcolor="#d1d1d1"
     inkscape:zoom="0.82934879"
     inkscape:cx="288.78079"
     inkscape:cy="370.77283"
     inkscape:window-width="1920"
     inkscape:window-height="1001"
     inkscape:window-x="-9"
     inkscape:window-y="-9"
     inkscape:window-maximized="1"
     inkscape:current-layer="g1" />
  <g
     inkscape:groupmode="layer"
     inkscape:label="Image"
     id="g1">
    <g
       id="g2"
       transform="matrix(0.90910579,0,0,0.90910579,42.106182,34.741527)">
      <path
         style="display:none;fill:#e4e4e5"
         d="M 0,335.5 V 0 H 453.5 907 V 335.5 671 H 453.5 0 Z m 272.15348,275.75 c 12.7491,-18.12628 35.00492,-55.50676 33.73434,-56.65957 C 305.67452,554.3969 299.425,551.67247 292,548.53615 270.421,539.42116 242,525.00958 242,523.18241 242,521.91776 254.91997,512 256.56743,512 c 0.83174,0 3.37439,0.94999 5.65034,2.1111 11.49325,5.86341 47.87547,18.90199 67.78223,24.29164 54.19079,14.67185 108.63857,19.56703 162,14.56477 23.13868,-2.16909 25.73831,-2.53173 45.5,-6.34705 32.22111,-6.22083 61.03231,-14.91682 91.5,-27.61715 6.875,-2.86581 13.67564,-5.68924 15.11252,-6.27429 2.35457,-0.95868 3.31398,-0.5288 9.71664,4.35363 3.90726,2.97954 7.11912,5.69062 7.13747,6.02461 0.0927,1.68782 -36.98615,20.21778 -53.93772,26.95506 -5.2091,2.07032 -9.62907,4.23815 -9.82215,4.81741 -0.75849,2.27547 16.54004,32.47474 29.56875,51.62027 8.85434,13.01134 10.99057,15.5 13.30499,15.5 0.95252,0 7.06158,-1.8324 13.57568,-4.07201 6.5141,-2.2396 13.85074,-4.72149 16.30365,-5.51531 2.4529,-0.79383 7.1779,-2.50813 10.5,-3.80956 3.32209,-1.30143 9.19017,-3.59439 13.04017,-5.09546 3.85,-1.50107 8.8,-3.52646 11,-4.50087 2.2,-0.97441 7.21195,-3.16864 11.13766,-4.87608 28.99938,-12.61285 68.48378,-34.74236 99.58398,-55.81306 18.12081,-12.27703 19.21966,-13.19071 20.00381,-16.63303 0.39899,-1.75154 1.22262,-17.35962 1.83029,-34.68462 3.1591,-90.06846 -6.92401,-160.92612 -34.08106,-239.5 -1.52075,-4.4 -3.24799,-9.125 -3.83832,-10.5 -0.59032,-1.375 -2.6802,-6.775 -4.64417,-12 -1.96397,-5.225 -3.97544,-10.4 -4.46993,-11.5 C 766.61218,161.42406 753.23882,136.42604 728.14626,97.838919 719.99083,85.297571 719.85427,85.153798 713.70648,82.635681 710.29292,81.237495 702.55,78.021125 696.5,75.488192 676.61801,67.164268 646.25434,56.6655 626.5,51.284471 c -15.66774,-4.267851 -26.15538,-6.722187 -57,-13.339253 -7.55236,-1.6202 -10.21663,-1.21156 -11.7669,1.804782 -5.36823,10.444854 -13.95225,27.656176 -16.12341,32.328085 -2.3272,5.007686 -2.87437,5.544886 -5.35098,5.25342 -1.51729,-0.178566 -8.26552,-1.005144 -14.99607,-1.83684 -23.05506,-2.848923 -36.80115,-3.553312 -69.78762,-3.576118 -33.46117,-0.02313 -47.89656,0.764194 -73.68859,4.019086 -9.32705,1.177052 -14.41854,1.451603 -14.66701,0.790895 -2.31096,-6.145151 -19.5793,-38.967771 -20.73462,-39.411108 -2.41219,-0.925646 -27.88719,4.023528 -49.3848,9.594268 -23.51163,6.09264 -26.88966,7.071265 -44.5,12.891765 -22.90322,7.569882 -34.19115,11.889388 -56.90994,21.777497 -10.02818,4.364653 -9.81419,4.135747 -22.35951,23.91905 -45.82742,72.26746 -77.376136,148.82757 -92.099366,223.5 -5.328716,27.02587 -6.027486,31.19003 -7.635161,45.5 -0.865069,7.7 -2.057088,17.375 -2.648932,21.5 -1.60347,11.17578 -2.275711,92.3987 -0.905448,109.40001 0.625033,7.75499 1.399187,15.35249 1.720341,16.88333 1.422986,6.7829 62.805266,45.08664 102.838016,64.17292 16.32203,7.7818 33.78592,15.54374 34.97248,15.54374 0.35049,0 2.65966,0.92131 5.13149,2.04736 10.00374,4.55723 48.5133,17.8344 51.94227,17.90845 1.48745,0.0321 4.11103,-2.89147 9.60724,-10.70581 z m 36.74853,-177.75284 c -11.69922,-2.33152 -25.14293,-10.411 -34.33897,-20.63723 -9.51255,-10.57819 -15.22984,-21.88535 -18.50589,-36.59934 -6.24294,-28.03935 2.68991,-57.80313 22.98851,-76.59652 34.90566,-32.31729 88.56349,-18.46036 106.859,27.59593 3.96551,9.9826 5.40679,18.1769 5.40679,30.74 0,12.50226 -1.44837,20.80925 -5.43022,31.14444 -12.76872,33.14216 -43.72737,50.97945 -76.97922,44.35272 z M 565.5,433.60015 C 553.43478,430.83937 541.85924,423.88041 532.25615,413.61468 518.18097,398.56826 511,379.94886 511,358.5 c 0,-49.54736 41.1144,-85.80067 84.4367,-74.45348 14.1029,3.6939 25.47476,11.05008 35.07548,22.68949 19.22998,23.3134 23.43083,56.95353 10.70987,85.76399 -8.37257,18.96223 -24.33125,33.9362 -42.22205,39.6168 -8.3831,2.66176 -25.11275,3.40254 -33.5,1.48335 z"
         id="path5" />
      <path
         style="display:none;fill:#9da4ea;fill-rule:nonzero"
         d="m 439.80735,554.25254 c 6.76904,-0.17326 17.56904,-0.17273 24,0.001 6.43096,0.17391 0.89265,0.31567 -12.30735,0.31502 -13.2,-6.6e-4 -18.46169,-0.14295 -11.69265,-0.31621 z M 384,550 c -4.99791,-1.05201 0.1294,-1.09563 6,-0.051 4.05913,0.72226 4.1571,0.80007 1,0.79423 -1.925,-0.004 -5.075,-0.338 -7,-0.74319 z m 132.5,-0.47329 c 9.02635,-1.55307 12.35659,-1.76235 8.20704,-0.51575 -1.53614,0.46148 -5.81114,1.07602 -9.5,1.36564 L 508.5,550.90318 Z M 355,544.75641 c -2.475,-0.56618 -4.05,-1.18094 -3.5,-1.36615 0.55,-0.18521 3.475,0.27646 6.5,1.02592 6.36537,1.57706 3.71881,1.87721 -3,0.34023 z m 204,-3.02384 c 0.70789,-0.77696 12.33248,-3.73342 12.80837,-3.25753 0.36941,0.3694 -3.40858,1.5093 -10.30837,3.11023 -1.65,0.38285 -2.775,0.44913 -2.5,0.1473 z M 242.95167,525.16195 c -2.59908,-2.10461 -2.1854,-3.20794 2.32857,-6.21055 3.2179,-2.14048 3.21774,-2.13994 -0.28024,0.94807 l -3.5,3.0898 2.5,1.98313 c 1.375,1.09072 2.21235,1.99313 1.86078,2.00536 -0.35156,0.0122 -1.66066,-0.80488 -2.90911,-1.81581 z m 592.15686,-10.74528 c 0.0597,-3.25417 0.46604,-8.61667 0.90298,-11.91667 0.54783,-4.13749 0.63077,-2.4302 0.26717,5.5 -0.55534,12.11249 -1.35507,16.49791 -1.17015,6.41667 z M 66.32814,507.5 c 0.0044,-3.85 0.185183,-5.30246 0.401658,-3.2277 0.216476,2.07477 0.212846,5.22477 -0.0081,7 -0.220912,1.77524 -0.398028,0.0777 -0.393592,-3.7723 z m -1.018271,-13 c 0.0056,-3.3 0.192301,-4.52944 0.414862,-2.73209 0.222562,1.79735 0.217969,4.49735 -0.0102,6 -0.228174,1.50265 -0.41027,0.0321 -0.404657,-3.26791 z m 772.103311,-38 c 10e-4,-9.9 0.1507,-13.81474 0.33256,-8.69942 0.18186,5.11532 0.181,13.21532 -0.002,18 -0.18291,4.78468 -0.3317,0.59942 -0.33065,-9.30058 z M 312.5567,435.13169 c -1.61882,-0.34743 3.02024,-0.63169 10.30901,-0.63169 7.28878,0 12.21327,0.29264 10.94331,0.65032 -2.93446,0.82647 -17.37359,0.81381 -21.25232,-0.0186 z m 256,0 C 566.93788,434.78426 571.86237,434.5 579.5,434.5 c 7.63763,0 12.56212,0.28426 10.9433,0.63169 -1.61881,0.34742 -6.5433,0.63168 -10.9433,0.63168 -4.4,0 -9.32449,-0.28426 -10.9433,-0.63168 z M 65.276698,419.5 c -0.01555,-2.75 0.295024,-8.15 0.690171,-12 0.702435,-6.84398 0.719349,-6.87742 0.758905,-1.5 0.02225,3.025 -0.288326,8.425 -0.690171,12 -0.687412,6.11552 -0.732301,6.20425 -0.758905,1.5 z M 533.4687,415.75 527.5,409.5 l 6.25,5.9687 c 5.80572,5.54441 6.7076,6.5313 5.9687,6.5313 -0.15472,0 -2.96722,-2.8125 -6.25,-6.25 z m 302.01735,-8.09462 c -0.39095,-5.21459 -0.50871,-10.08279 -0.26169,-10.81823 0.24702,-0.73543 0.7717,3.32624 1.16596,9.02594 0.39425,5.6997 0.51202,10.56791 0.26169,10.81823 -0.25032,0.25032 -0.775,-3.81135 -1.16596,-9.02594 z M 390.72868,370.5 c 0.29963,-3.85 0.70825,-7.1875 0.90805,-7.41667 0.66808,-0.76627 0.13701,8.37727 -0.66309,11.41667 -0.47901,1.81963 -0.57538,0.2458 -0.24496,-4 z m 119.91317,-0.25 c -0.77087,-4.66371 -0.62349,-20.73297 0.22646,-24.6933 0.34743,-1.61882 0.63169,4.11868 0.63169,12.75 0,8.63131 -0.0536,15.6933 -0.11916,15.6933 -0.0655,0 -0.39808,-1.6875 -0.73899,-3.75 z M 70.689381,364.54832 c 0.325305,-3.27343 0.961891,-7.09843 1.414637,-8.5 1.019709,-3.15674 0.06198,5.84824 -1.164778,10.95168 -0.605875,2.52051 -0.675799,1.8344 -0.249859,-2.45168 z M 391.1571,350 c -0.0985,-1.925 -0.39224,-5.3 -0.65272,-7.5 l -0.47362,-4 1.0256,4 c 0.56408,2.2 0.8578,5.575 0.65272,7.5 l -0.37287,3.5 z M 269.7908,308.5 c 0.58394,-1.1 3.6695,-4.475 6.8568,-7.5 l 5.79508,-5.5 -6.42698,7 c -3.53483,3.85 -6.62039,7.225 -6.85679,7.5 -0.2364,0.275 0.048,-0.4 0.63189,-1.5 z m 357.77529,-5.25056 c -3.26365,-3.71219 -4.45938,-5.39944 -2.65718,-3.74944 3.13669,2.87178 9.62162,10.5006 8.92512,10.49944 -0.18372,-3e-4 -3.00429,-3.0378 -6.26794,-6.75 z M 319.76791,281.27527 c 1.79735,-0.22256 4.49735,-0.21797 6,0.0102 1.50265,0.22818 0.0321,0.41027 -3.26791,0.40466 -3.3,-0.006 -4.52944,-0.1923 -2.73209,-0.41486 z m 257,0 c 1.79735,-0.22256 4.49735,-0.21797 6,0.0102 1.50265,0.22818 0.0321,0.41027 -3.26791,0.40466 -3.3,-0.006 -4.52944,-0.1923 -2.73209,-0.41486 z M 170.5541,103.25 c 5.34437,-8.23768 6.75668,-10.25 7.1938,-10.25 0.26516,0 -0.32073,1.2375 -1.302,2.75 -5.34437,8.23768 -6.75668,10.25 -7.1938,10.25 -0.26516,0 0.32073,-1.2375 1.302,-2.75 z M 401.75,73.276604 c 1.7875,-0.221826 4.7125,-0.221826 6.5,0 1.7875,0.221827 0.325,0.403322 -3.25,0.403322 -3.575,0 -5.0375,-0.181495 -3.25,-0.403322 z m 91.9777,0.0017 c 1.77523,-0.220912 4.92523,-0.224542 7,-0.0081 2.07476,0.216475 0.6223,0.397221 -3.2277,0.401658 -3.85,0.0044 -5.54754,-0.17268 -3.7723,-0.393592 z m -78.9777,-1.0017 c 1.7875,-0.221826 4.7125,-0.221826 6.5,0 1.7875,0.221827 0.325,0.403322 -3.25,0.403322 -3.575,0 -5.0375,-0.181495 -3.25,-0.403322 z m 66,0 c 1.7875,-0.221826 4.7125,-0.221826 6.5,0 1.7875,0.221827 0.325,0.403322 -3.25,0.403322 -3.575,0 -5.0375,-0.181495 -3.25,-0.403322 z M 569.05822,38.90984 c -2.44298,-0.479065 -4.91798,-1.091963 -5.5,-1.361994 -1.73673,-0.805767 8.77038,0.660893 10.94178,1.527334 2.5694,1.02525 0.27394,0.955507 -5.44178,-0.16534 z"
         id="path4" />
      <path
         style="display:none;fill:#7a83ee"
         d="m 835.78423,492 c 0.27162,-8.525 0.65629,-15.6875 0.85481,-15.91667 0.64088,-0.73979 0.16769,19.22533 -0.60239,25.41667 -0.43113,3.4662 -0.53772,-0.54564 -0.25242,-9.5 z m -769.474361,3.5 c 0.0056,-3.3 0.192301,-4.52944 0.414862,-2.73209 0.222562,1.79735 0.217969,4.49735 -0.0102,6 -0.228174,1.50265 -0.41027,0.0321 -0.404657,-3.26791 z m -0.86231,-39 c -3.79e-4,-18.15 0.134775,-25.71608 0.300342,-16.81351 0.165568,8.90257 0.165879,23.75257 6.9e-4,33 C 65.583403,481.93392 65.447938,474.65 65.447559,456.5 Z m 770.926511,-29 c 0.002,-6.05 0.16696,-8.39607 0.36601,-5.21349 0.19905,3.18258 0.1972,8.13258 -0.004,11 -0.20131,2.86742 -0.36417,0.26349 -0.36191,-5.78651 z M 69.701616,376 c 0.313126,-3.025 0.73336,-5.6875 0.933852,-5.91667 0.700933,-0.80118 0.157716,6.43902 -0.669,8.91667 -0.538505,1.61389 -0.63238,0.55056 -0.264852,-3 z M 649.20754,358.33179 c -0.11415,-5.04252 -0.46652,-9.99252 -0.78305,-11 -0.53193,-1.69311 -0.49121,-1.70091 0.53781,-0.10302 0.68155,1.05831 0.98523,5.32436 0.78305,11 L 649.41508,367.5 Z M 366.5,78.051029 c 3.0846,-0.837367 10.16071,-1.345515 9.41667,-0.676228 -0.22917,0.20614 -3.11667,0.625862 -6.41667,0.932714 -3.94543,0.366868 -4.97271,0.27904 -3,-0.256486 z m 47.26791,-4.77576 c 1.79735,-0.222562 4.49735,-0.217969 6,0.0102 1.50265,0.228174 0.0321,0.41027 -3.26791,0.404657 -3.3,-0.0056 -4.52944,-0.192301 -2.73209,-0.414862 z m 69,0 c 1.79735,-0.222562 4.49735,-0.217969 6,0.0102 1.50265,0.228174 0.0321,0.41027 -3.26791,0.404657 -3.3,-0.0056 -4.52944,-0.192301 -2.73209,-0.414862 z M 437.25,72.252435 c 7.5625,-0.169881 19.9375,-0.169881 27.5,0 7.5625,0.16988 1.375,0.308873 -13.75,0.308873 -15.125,0 -21.3125,-0.138993 -13.75,-0.308873 z"
         id="path3" />
      <path
         style="display:inline;fill:#ffffff;fill-opacity:1"
         d="M 255.5,619.02695 C 245.32628,615.94062 213.92701,604.47919 207.34887,601.45073 205.61575,600.65283 203.94159,600 203.62851,600 c -0.31308,0 -2.94508,-1.06781 -5.84887,-2.37292 -2.9038,-1.30511 -9.10464,-4.07548 -13.77964,-6.15638 -19.38891,-8.63026 -48.9904,-24.27217 -66.5,-35.13969 -4.95,-3.07227 -9.9,-6.10272 -11,-6.73434 -4.69025,-2.69315 -31.255004,-20.6856 -35.679597,-24.16598 -2.54237,-1.99983 -2.584194,-2.25962 -3.699066,-22.97669 -2.002165,-37.20516 -1.123035,-90.98131 1.887435,-115.454 2.325062,-18.90087 5.053076,-37.89407 6.032504,-42 0.590387,-2.475 1.910377,-9 2.933311,-14.5 2.212087,-11.89371 5.879249,-27.58647 9.347398,-40 5.33903,-19.10997 6.819112,-24.06816 7.761328,-26 0.536501,-1.1 1.62173,-4.25 2.411618,-7 1.756937,-6.11678 6.250519,-19.27158 7.515039,-22 0.50981,-1.1 1.84113,-4.3625 2.95848,-7.25 6.77922,-17.51908 5.86631,-15.37153 16.0473,-37.75 6.34963,-13.95687 22.99728,-46.20308 28.13655,-54.5 1.53307,-2.475 3.93013,-6.525 5.32681,-9 4.36351,-7.73238 5.90484,-10.27783 10.89941,-18 12.66883,-19.587412 15.15901,-23.035139 17.06865,-23.632033 1.12905,-0.352909 4.8766,-1.930074 8.32787,-3.50481 C 197.22632,80.288421 200.38298,79 200.78985,79 c 0.40687,0 2.3081,-0.833806 4.22496,-1.852903 C 206.93166,76.128 210.3,74.719355 212.5,74.016774 c 2.2,-0.702581 4.45,-1.591448 5,-1.975261 1.10887,-0.773814 29.03171,-10.603528 40,-14.081253 14.56913,-4.619447 35.4343,-10.111519 51.32012,-13.508345 6.22606,-1.331304 11.68076,-2.643442 12.12154,-2.915862 0.44079,-0.272419 5.24674,-1.163205 10.67989,-1.979524 7.74336,-1.163423 10.13581,-1.22186 11.06919,-0.270372 0.65491,0.667614 4.84458,8.638843 9.31039,17.713843 4.4658,9.075 8.68508,17.625 9.37618,19 1.13384,2.255884 1.78706,2.477973 6.68961,2.274425 2.9882,-0.124066 7.45808,-0.676884 9.93308,-1.228484 21.16407,-4.716805 126.82591,-4.783529 146,-0.0922 1.925,0.47099 6.32551,1.147893 9.77891,1.504228 l 6.27891,0.647882 1.54917,-3.802927 c 2.68485,-6.590862 17.52339,-36.265474 18.40745,-36.811854 0.98664,-0.609773 16.59169,1.801612 25.98556,4.015441 3.575,0.842511 13.25,3.124351 21.5,5.070756 8.25,1.946404 15.9,3.943994 17,4.439089 1.1,0.495094 4.025,1.39848 6.5,2.007523 15.41011,3.792091 48.18774,15.399093 72,25.496171 4.675,1.982333 10.18978,4.301047 12.25506,5.152697 3.07906,1.269701 5.1493,3.669213 11.5,13.329104 22.09725,33.611609 40.26429,66.492299 54.69786,98.998149 2.56427,5.775 5.31139,11.91801 6.1047,13.65113 0.79331,1.73312 1.44238,3.40728 1.44238,3.72036 0,0.31308 1.06912,2.94508 2.37583,5.84887 1.3067,2.9038 2.94035,7.07964 3.63032,9.27964 0.68997,2.2 1.58331,4.45 1.9852,5 0.83951,1.14891 10.52339,29.8659 14.33176,42.5 9.0227,29.93241 17.19555,69.80881 21.62271,105.5 3.45217,27.83095 4.54209,88.5969 2.20618,123 -1.37624,20.26909 -0.24126,17.7652 -11.652,25.70572 -3.3,2.29641 -7.95213,5.55206 -10.33807,7.23479 -2.38595,1.68272 -5.14803,3.52585 -6.13797,4.09585 -0.98993,0.56999 -3.6503,2.25749 -5.91192,3.75 C 798.85042,547.77886 795.2,550.125 793,551.5 c -2.2,1.375 -5.6875,3.57845 -7.75,4.89655 -15.80671,10.10177 -56.48465,30.90558 -79.25,40.5306 -4.125,1.74402 -9.3,4.00224 -11.5,5.01827 -2.2,1.01603 -5.125,2.16901 -6.5,2.56218 -1.375,0.39318 -3.85,1.31608 -5.5,2.05091 C 677.02264,608.99785 641.32101,621 639.54232,621 c -2.54657,0 -31.42935,-44.39676 -37.86751,-58.20752 -0.95058,-2.03914 -2.16629,-3.9782 -2.70157,-4.30902 C 598.43796,558.15264 598,557.25464 598,556.4879 c 0,-1.42224 0.56553,-1.71564 14.5,-7.52284 20.35938,-8.48477 49.47152,-23.58148 49.48959,-25.66387 0.006,-0.65935 -3.41171,-3.86721 -7.5943,-7.12858 l -7.6047,-5.92977 -9.1453,3.92797 c -21.43535,9.20665 -32.80387,13.35463 -58.64529,21.39767 -9.1848,2.85873 -23.93893,6.44181 -34.59173,8.40069 -5.55045,1.02064 -11.85045,2.35086 -14,2.95604 -5.37805,1.51413 -35.65083,4.96761 -54.40827,6.20683 -16.61498,1.09767 -56.27138,0.41262 -64.5,-1.11422 -2.75,-0.51027 -11.75,-1.66106 -20,-2.55732 -8.25,-0.89625 -16.64706,-2.04797 -18.66013,-2.55937 -2.01307,-0.5114 -8.31307,-1.82056 -14,-2.90923 -12.35488,-2.36516 -20.42344,-4.30341 -31.83987,-7.64865 -16.08896,-4.71439 -40.85286,-13.06945 -44.5,-15.01379 -1.1,-0.58643 -3.79765,-1.64671 -5.99478,-2.35618 -2.19713,-0.70948 -7.75995,-3.02124 -12.36183,-5.13725 l -8.36704,-3.8473 -5.98059,4.75563 c -3.28933,2.6156 -6.95151,5.51411 -8.13818,6.44113 -1.91286,1.49431 -1.98745,1.85054 -0.65758,3.14068 3.11601,3.02294 31.56127,17.37658 48.5,24.47338 2.75,1.15216 7.1375,2.9933 9.75,4.09141 2.6125,1.09812 4.74713,2.35938 4.74362,2.80281 -0.0107,1.34991 -11.40841,22.35374 -16.44567,30.30623 -12.7489,20.1271 -23.35999,35.02277 -24.87818,34.92357 -0.64337,-0.042 -3.86977,-0.89552 -7.16977,-1.89662 z M 337.20078,434.8832 c 2.91457,-0.61425 5.74922,-1.45917 6.29922,-1.87761 0.55,-0.41845 2.125,-1.08427 3.5,-1.47961 8.0882,-2.32552 21.71617,-12.83945 29.19777,-22.52598 25.51283,-33.03184 21.01153,-86.01962 -9.4447,-111.1797 -11.67446,-9.64435 -19.33864,-13.32545 -33.53023,-16.10454 -10.10988,-1.97979 -10.58476,-1.9862 -19.54225,-0.26373 -11.65772,2.2417 -17.86014,4.57404 -25.82641,9.71166 -15.47761,9.98185 -28.70036,29.07036 -32.31023,46.6434 -3.41353,16.61726 -3.60086,19.45501 -1.99957,30.28965 2.22217,15.03562 3.07275,17.76392 9.31589,29.88128 3.6004,6.98804 12.78438,18.87547 17.04144,22.05785 1.42906,1.0683 3.11819,2.37521 3.75362,2.90424 5.16731,4.30206 14.63074,8.8213 24.34467,11.62574 5.61893,1.6222 22.15646,1.80193 29.20078,0.31735 z m 264.20931,-2.29001 c 10.83255,-4.22718 15.42307,-7.3433 25.12027,-17.05206 7.83972,-7.84907 9.70849,-10.42554 14.17363,-19.54113 8.83324,-18.03304 11.0844,-35.94297 7.04633,-56.05953 -0.8346,-4.15775 -2.69485,-10.13358 -4.13389,-13.27964 C 642.17739,323.51478 641,320.57464 641,320.12719 c 0,-0.44744 -2.30209,-4.09158 -5.11574,-8.09809 -12.19194,-17.36068 -26.80847,-26.85711 -47.00658,-30.54037 -9.40213,-1.71455 -9.85979,-1.70765 -20,0.30144 -15.41167,3.05354 -25.56533,8.4936 -36.42785,19.5171 -6.83389,6.93516 -10.91437,12.71244 -14.65604,20.75054 -15.14143,32.52776 -8.37177,72.0095 16.3918,95.59953 4.47288,4.26092 15.50687,11.6336 19.81441,13.23959 1.925,0.7177 4.45442,1.75445 5.62092,2.30389 4.59978,2.16655 9.40211,2.69267 21.87908,2.39698 11.30177,-0.26784 13.90268,-0.66034 19.91009,-3.00461 z"
         id="path2"
         inkscape:label="path2" />
    </g>
  </g>
</svg>
