<svg version="1.1" id="Layer_1" xmlns="http://www.w3.org/2000/svg" xmlns:xlink="http://www.w3.org/1999/xlink" x="0px" y="0px"
	 width="100%" viewBox="0 0 256 256" enable-background="new 0 0 256 256" xml:space="preserve">
<path fill="none" opacity="1.000000" stroke="none" 
	d="
M139.000000,257.000000 
	C92.666672,257.000000 46.833340,257.000000 1.000006,257.000000 
	C1.000004,171.666672 1.000004,86.333351 1.000002,1.000018 
	C86.333321,1.000012 171.666641,1.000012 257.000000,1.000006 
	C257.000000,86.333313 257.000000,171.666626 257.000000,256.999969 
	C217.833328,257.000000 178.666672,257.000000 139.000000,257.000000 
M129.917160,141.785583 
	C130.855515,143.680435 131.773926,145.585495 132.735367,147.468536 
	C140.285721,162.256363 152.428452,170.007019 168.965866,169.334579 
	C185.299362,168.670441 197.105469,160.164368 203.004944,144.943237 
	C208.899918,129.733749 205.613602,115.850075 194.390991,103.922165 
	C188.821274,98.002388 181.553955,95.234344 174.453156,92.256134 
	C176.516815,91.609192 178.607437,91.036919 180.639893,90.303520 
	C196.891190,84.439270 207.613678,67.404953 205.628464,50.658150 
	C203.456085,32.332462 189.314468,17.432953 171.474121,16.351967 
	C157.379486,15.497940 143.184921,16.292971 128.111816,16.162102 
	C115.637657,16.142557 103.163475,16.098419 90.689346,16.109241 
	C72.059410,16.125404 56.064144,29.453316 52.944775,47.514904 
	C49.710575,66.241364 59.865227,83.844650 77.623093,90.425766 
	C79.258842,91.031982 80.726662,92.091316 81.844589,93.570511 
	C59.509373,100.019913 51.494400,118.382484 52.372948,133.479141 
	C53.422916,151.521606 66.220467,165.264801 84.613945,169.586960 
	C82.395752,170.292786 80.158318,170.943680 77.962402,171.713089 
	C59.865475,178.053970 49.402672,196.454865 53.093056,215.411163 
	C56.751389,234.202820 73.942062,247.294891 93.444801,246.142242 
	C111.881424,245.052582 127.904861,229.606125 128.825806,210.906937 
	C129.504211,197.132568 128.882355,183.294144 128.995407,168.496857 
	C129.005325,165.360153 128.935898,162.220749 129.042145,159.087311 
	C129.246109,153.070587 129.549728,147.057266 129.917160,141.785583 
z"/>
<path fill="#FC7161" opacity="1.000000" stroke="none" 
	d="
M129.034744,16.355648 
	C143.184921,16.292971 157.379486,15.497940 171.474121,16.351967 
	C189.314468,17.432953 203.456085,32.332462 205.628464,50.658150 
	C207.613678,67.404953 196.891190,84.439270 180.639893,90.303520 
	C178.607437,91.036919 176.516815,91.609192 173.792664,92.651535 
	C168.701614,93.080254 164.271057,93.113571 159.387314,93.085793 
	C148.929642,93.087311 138.925171,93.149925 128.877350,93.125763 
	C128.834000,93.038986 128.901566,92.857140 128.920517,92.397781 
	C128.971222,66.744156 129.002991,41.549904 129.034744,16.355648 
z"/>
<path fill="#F04D1E" opacity="1.000000" stroke="none" 
	d="
M128.573273,16.258875 
	C129.002991,41.549904 128.971222,66.744156 128.459808,92.396172 
	C114.509567,92.770508 101.038994,92.687088 87.595375,92.561371 
	C87.622337,92.519073 87.513268,92.597687 87.080948,92.690094 
	C85.189903,92.835083 83.731178,92.887665 82.272461,92.940239 
	C80.726662,92.091316 79.258842,91.031982 77.623093,90.425766 
	C59.865227,83.844650 49.710575,66.241364 52.944775,47.514904 
	C56.064144,29.453316 72.059410,16.125404 90.689346,16.109241 
	C103.163475,16.098419 115.637657,16.142557 128.573273,16.258875 
z"/>
<path fill="#A159FE" opacity="1.000000" stroke="none" 
	d="
M82.058525,93.255371 
	C83.731178,92.887665 85.189903,92.835083 87.091080,92.730789 
	C87.533539,92.679070 87.568413,92.603661 87.568413,92.603668 
	C101.038994,92.687088 114.509567,92.770508 128.440857,92.855530 
	C128.901566,92.857140 128.834000,93.038986 128.913696,93.579117 
	C129.047729,103.165215 129.102066,112.211197 129.324005,121.578758 
	C129.598404,128.281067 129.705200,134.661804 129.812012,141.042526 
	C129.549728,147.057266 129.246109,153.070587 129.042145,159.087311 
	C128.935898,162.220749 129.005325,165.360153 128.459900,168.981644 
	C113.807961,169.422806 99.691521,169.379181 85.575081,169.335541 
	C66.220467,165.264801 53.422916,151.521606 52.372948,133.479141 
	C51.494400,118.382484 59.509373,100.019913 82.058525,93.255371 
z"/>
<path fill="#0BCD83" opacity="1.000000" stroke="none" 
	d="
M85.094513,169.461243 
	C99.691521,169.379181 113.807961,169.422806 128.382141,169.475342 
	C128.882355,183.294144 129.504211,197.132568 128.825806,210.906937 
	C127.904861,229.606125 111.881424,245.052582 93.444801,246.142242 
	C73.942062,247.294891 56.751389,234.202820 53.093056,215.411163 
	C49.402672,196.454865 59.865475,178.053970 77.962402,171.713089 
	C80.158318,170.943680 82.395752,170.292786 85.094513,169.461243 
z"/>
<path fill="#1ABAFC" opacity="1.000000" stroke="none" 
	d="
M129.864578,141.414062 
	C129.705200,134.661804 129.598404,128.281067 129.662720,121.469482 
	C135.164932,106.716049 144.879547,97.109398 159.840500,93.146889 
	C164.271057,93.113571 168.701614,93.080254 173.595581,92.959259 
	C181.553955,95.234344 188.821274,98.002388 194.390991,103.922165 
	C205.613602,115.850075 208.899918,129.733749 203.004944,144.943237 
	C197.105469,160.164368 185.299362,168.670441 168.965866,169.334579 
	C152.428452,170.007019 140.285721,162.256363 132.735367,147.468536 
	C131.773926,145.585495 130.855515,143.680435 129.864578,141.414062 
z"/>
<path fill="none" opacity="1.000000" stroke="none" 
	d="
M159.387314,93.085793 
	C144.879547,97.109398 135.164932,106.716049 129.495117,121.147896 
	C129.102066,112.211197 129.047729,103.165215 128.957031,93.665894 
	C138.925171,93.149925 148.929642,93.087311 159.387314,93.085793 
z"/>
<path fill="#FC7161" opacity="1.000000" stroke="none" 
	d="
M87.595375,92.561371 
	C87.568413,92.603661 87.533539,92.679070 87.523407,92.638382 
	C87.513268,92.597687 87.622337,92.519073 87.595375,92.561371 
z"/>
</svg>