<svg version="1.1" id="Layer_1" xmlns="http://www.w3.org/2000/svg" xmlns:xlink="http://www.w3.org/1999/xlink" x="0px" y="0px"
	 width="100%" viewBox="0 0 512 512" enable-background="new 0 0 512 512" xml:space="preserve">
<path fill="none" opacity="1.000000" stroke="none" 
	d="
M346.000000,513.000000 
	C230.694687,513.000000 115.889366,513.000000 1.042022,513.000000 
	C1.042022,342.402985 1.042022,171.805969 1.042022,1.104477 
	C171.555328,1.104477 342.110718,1.104477 512.833069,1.104477 
	C512.833069,171.666534 512.833069,342.333252 512.833069,513.000000 
	C457.472565,513.000000 401.986298,513.000000 346.000000,513.000000 
M275.794464,293.997711 
	C287.068481,288.114471 296.537415,279.887634 303.602417,269.519867 
	C312.282166,256.782501 312.890747,243.180847 303.487122,229.913040 
	C299.171326,223.823761 294.990021,217.633362 290.921997,211.375549 
	C284.013428,200.748184 281.237518,189.477646 288.621979,178.134750 
	C292.469696,172.224457 297.217224,166.519547 302.683716,162.120346 
	C315.230316,152.023361 328.342072,142.608063 341.479431,133.274948 
	C347.528290,128.977692 354.175812,125.523163 361.571777,121.072800 
	C359.382050,121.072800 358.492279,120.869514 357.737152,121.102577 
	C339.598267,126.701042 321.800232,133.048401 305.092834,142.318726 
	C290.578674,150.372086 277.378326,159.861832 267.341492,173.218506 
	C258.485260,185.004089 255.657150,198.140564 258.858063,212.684525 
	C261.827332,226.175888 269.055084,237.190948 277.889374,247.381973 
	C285.260376,255.884949 288.692932,265.627594 284.586548,276.373566 
	C282.267273,282.442841 277.811340,287.695648 273.845490,293.727173 
	C273.302948,294.339813 272.760406,294.952454 272.217865,295.565094 
	C272.442383,295.765533 272.666870,295.965942 272.891388,296.166382 
	C273.618805,295.470734 274.346222,294.775116 275.794464,293.997711 
M301.627289,69.869301 
	C295.610809,85.329536 285.680450,98.085251 273.413940,108.909370 
	C262.373688,118.651443 250.836014,127.855774 239.207108,136.897781 
	C226.917892,146.453201 215.469772,156.837570 205.656693,168.916061 
	C195.171127,181.822311 193.247787,196.362015 199.352264,211.594238 
	C204.497086,224.431885 212.722321,235.495392 222.144073,245.527557 
	C230.390350,254.308060 239.080887,262.675110 247.675507,271.122742 
	C250.796021,274.189880 254.206802,276.961731 258.617432,280.872253 
	C257.538391,278.357025 257.198883,277.133789 256.546417,276.109985 
	C247.647751,262.146698 238.299759,248.451279 229.872391,234.210556 
	C218.073837,214.273163 216.257248,196.644943 230.499084,177.597321 
	C239.849228,165.092056 251.832993,154.283966 263.796722,144.074448 
	C278.408356,131.605301 291.889984,118.341148 302.260010,102.162117 
	C313.161011,85.154640 318.970795,66.867821 313.906616,46.533421 
	C312.072540,39.168903 308.827850,32.323357 302.620667,26.342321 
	C303.495056,32.408188 305.041809,37.663174 304.822723,42.843464 
	C304.451294,51.624813 302.965393,60.359020 301.627289,69.869301 
M159.010376,417.004944 
	C157.590744,416.670776 156.186188,416.146667 154.749069,416.032471 
	C143.262650,415.119659 132.086990,416.956238 121.195457,420.410126 
	C110.419388,423.827362 99.666939,427.526245 91.155334,435.421570 
	C84.611488,441.491577 85.345268,447.460236 93.588623,450.627960 
	C100.373230,453.235138 107.682945,454.799561 114.901466,455.884460 
	C128.687820,457.956451 142.549957,459.613312 156.426788,460.970947 
	C172.817459,462.574524 189.252136,464.696625 205.676407,464.775024 
	C234.540634,464.912842 263.414673,463.777893 292.277527,462.934357 
	C300.831451,462.684326 309.427490,462.072449 317.887634,460.831604 
	C330.980103,458.911346 344.093872,456.834290 356.976044,453.859833 
	C372.700775,450.229065 388.712585,446.782379 401.988068,436.800690 
	C404.473969,434.931580 406.873932,430.647461 406.512329,427.838409 
	C405.988037,423.764984 402.472656,420.572754 397.377350,420.029999 
	C401.325958,426.908417 400.770813,428.740936 394.572540,433.086365 
	C386.665985,438.629517 377.427734,440.348419 368.326752,441.861938 
	C353.139526,444.387604 337.841797,446.395752 322.521698,447.936646 
	C305.144806,449.684418 287.704529,451.566681 270.269745,451.810211 
	C236.948349,452.275696 203.557892,453.181122 170.358368,448.967133 
	C158.991959,447.524414 147.573181,446.149475 136.385864,443.768494 
	C129.565720,442.316986 122.027252,441.458344 116.030586,434.250549 
	C129.319473,423.072998 145.342026,421.035034 161.347351,418.514221 
	C160.755234,418.062775 160.249725,417.677368 159.010376,417.004944 
M175.030762,282.473694 
	C172.635574,282.984772 170.216522,283.404327 167.849121,284.021942 
	C154.222443,287.576935 140.888870,291.924255 128.522400,298.831146 
	C123.473923,301.650787 122.127403,306.331696 125.747780,308.866364 
	C127.596237,310.160492 129.680359,311.244202 131.809387,311.991882 
	C152.911789,319.402771 175.071365,319.863159 196.979599,320.753601 
	C217.196442,321.575256 237.498322,320.382141 257.760315,319.959930 
	C262.701782,319.856964 267.666840,319.547485 272.563843,318.900208 
	C286.525421,317.054779 300.415466,314.587128 314.412506,313.113251 
	C329.695374,311.503967 342.563965,304.352905 355.409882,296.889557 
	C355.488861,296.843628 355.353241,296.428345 355.373047,296.564209 
	C338.012848,299.046509 320.751770,301.900818 303.391174,303.884491 
	C287.205719,305.733887 270.932312,306.972321 254.664398,307.893127 
	C240.591553,308.689728 226.473358,308.820648 212.372726,308.932678 
	C205.440887,308.987793 198.494217,308.462189 191.570984,307.965973 
	C184.024063,307.424988 176.439911,306.967865 168.983688,305.775543 
	C165.072006,305.150024 161.399353,303.029785 157.618759,301.584564 
	C157.578979,301.001740 157.539200,300.418915 157.499420,299.836090 
	C159.866760,297.932861 161.953949,295.319916 164.652130,294.254852 
	C174.051529,290.544525 183.647186,287.326050 193.200806,284.014618 
	C196.771057,282.777100 200.430756,281.797791 204.049667,280.700714 
	C203.961914,280.237396 203.874161,279.774078 203.786407,279.310760 
	C194.463623,280.240082 185.140854,281.169373 175.030762,282.473694 
M315.278839,410.901794 
	C320.193939,409.035126 325.109039,407.168427 330.359924,405.174194 
	C321.629913,400.642853 313.541931,396.371033 305.359344,392.288879 
	C304.311035,391.765869 302.745392,392.066162 301.461639,392.261993 
	C289.169739,394.137268 276.919525,397.380127 264.594055,397.686768 
	C245.581818,398.159790 226.495407,396.997650 207.494583,395.722717 
	C202.152863,395.364288 195.702621,395.203918 191.831314,388.751099 
	C193.391190,386.827667 195.123734,384.691315 197.844177,381.336792 
	C191.733887,383.699036 186.635712,384.991821 182.234009,387.504639 
	C171.064331,393.881042 171.083664,401.309326 181.883240,408.337769 
	C182.843094,408.962433 183.875366,409.492218 184.917419,409.971741 
	C200.816376,417.288300 217.796677,420.058289 235.029999,420.840759 
	C246.264893,421.350922 257.575439,420.477661 268.840607,419.969086 
	C284.483978,419.262909 299.604584,415.722015 315.278839,410.901794 
M326.989685,349.520111 
	C321.764069,344.247986 315.686737,343.882904 308.583710,345.041840 
	C291.780579,347.783386 274.896606,351.018860 257.954498,351.662140 
	C237.992264,352.420044 217.922791,350.872345 197.925812,349.827301 
	C193.015930,349.570679 188.107635,347.664093 183.382080,345.996246 
	C179.373505,344.581451 178.843552,341.585297 181.322708,338.142456 
	C182.714310,336.209961 184.142288,334.303680 186.392960,331.245453 
	C177.568817,334.939545 169.438629,336.991455 163.357437,343.152222 
	C158.779282,347.790253 159.160187,353.350800 164.676849,356.812592 
	C168.084213,358.950836 171.892288,360.543304 175.673843,361.975983 
	C190.741562,367.684357 206.702805,368.964386 222.494537,369.743225 
	C238.362061,370.525818 254.394638,370.093811 270.231781,368.746796 
	C285.354004,367.460541 300.356873,364.531921 315.334686,361.886536 
	C322.940613,360.543182 330.375916,358.233643 339.180115,356.038849 
	C334.385681,353.562134 330.960388,351.792694 326.989685,349.520111 
M413.342499,452.915619 
	C406.843536,455.591156 400.515717,458.843292 393.813171,460.833191 
	C374.368744,466.605957 354.606445,471.039978 334.366486,473.059204 
	C314.749847,475.016266 295.169495,478.180969 275.515717,478.719940 
	C247.624146,479.484772 219.675354,478.527405 191.761032,477.875977 
	C183.436478,477.681671 175.147919,476.025909 166.838364,475.079498 
	C160.797318,474.391388 154.748840,473.768555 148.703690,473.116608 
	C149.805481,474.782379 151.189499,475.478760 152.636505,476.000275 
	C176.793518,484.705994 202.180435,486.052979 227.346924,486.696686 
	C257.673279,487.472382 288.105652,488.383362 318.409271,485.032959 
	C326.587799,484.128723 334.922394,484.236694 342.986053,482.778168 
	C358.721008,479.932190 374.435913,476.783691 389.928253,472.850861 
	C401.531219,469.905396 412.686249,465.298157 421.178253,456.239685 
	C424.420044,452.781647 426.944824,448.784760 426.906494,443.771851 
	C422.360291,446.847778 418.170685,449.682404 413.342499,452.915619 
M399.480469,348.009888 
	C405.923706,342.233643 413.154144,337.116486 418.652649,330.549286 
	C431.651123,315.024261 429.616394,293.212280 411.402405,281.743927 
	C400.990417,275.188049 389.769257,273.977875 377.987244,276.519104 
	C372.402283,277.723755 366.460480,278.498901 363.400330,285.204071 
	C366.972351,284.167999 370.019348,283.042053 373.165741,282.412567 
	C388.711639,279.302399 407.285461,291.026184 406.932220,308.855560 
	C406.726166,319.256104 401.350830,327.592773 394.521942,334.891693 
	C384.209595,345.913849 371.878632,354.280304 358.515106,361.215973 
	C356.357117,362.335938 354.592529,364.213867 352.646057,365.741425 
	C352.901917,366.106506 353.157745,366.471558 353.413605,366.836639 
	C369.333282,362.618774 384.763000,357.157257 399.480469,348.009888 
z"/>
<path fill="#F8981D" opacity="1.000000" stroke="none" 
	d="
M301.787598,69.491173 
	C302.965393,60.359020 304.451294,51.624813 304.822723,42.843464 
	C305.041809,37.663174 303.495056,32.408188 302.620667,26.342321 
	C308.827850,32.323357 312.072540,39.168903 313.906616,46.533421 
	C318.970795,66.867821 313.161011,85.154640 302.260010,102.162117 
	C291.889984,118.341148 278.408356,131.605301 263.796722,144.074448 
	C251.832993,154.283966 239.849228,165.092056 230.499084,177.597321 
	C216.257248,196.644943 218.073837,214.273163 229.872391,234.210556 
	C238.299759,248.451279 247.647751,262.146698 256.546417,276.109985 
	C257.198883,277.133789 257.538391,278.357025 258.617432,280.872253 
	C254.206802,276.961731 250.796021,274.189880 247.675507,271.122742 
	C239.080887,262.675110 230.390350,254.308060 222.144073,245.527557 
	C212.722321,235.495392 204.497086,224.431885 199.352264,211.594238 
	C193.247787,196.362015 195.171127,181.822311 205.656693,168.916061 
	C215.469772,156.837570 226.917892,146.453201 239.207108,136.897781 
	C250.836014,127.855774 262.373688,118.651443 273.413940,108.909370 
	C285.680450,98.085251 295.610809,85.329536 301.787598,69.491173 
z"/>
<path fill="#5382A1" opacity="1.000000" stroke="none" 
	d="
M159.377289,417.148438 
	C160.249725,417.677368 160.755234,418.062775 161.347351,418.514221 
	C145.342026,421.035034 129.319473,423.072998 116.030586,434.250549 
	C122.027252,441.458344 129.565720,442.316986 136.385864,443.768494 
	C147.573181,446.149475 158.991959,447.524414 170.358368,448.967133 
	C203.557892,453.181122 236.948349,452.275696 270.269745,451.810211 
	C287.704529,451.566681 305.144806,449.684418 322.521698,447.936646 
	C337.841797,446.395752 353.139526,444.387604 368.326752,441.861938 
	C377.427734,440.348419 386.665985,438.629517 394.572540,433.086365 
	C400.770813,428.740936 401.325958,426.908417 397.377350,420.029999 
	C402.472656,420.572754 405.988037,423.764984 406.512329,427.838409 
	C406.873932,430.647461 404.473969,434.931580 401.988068,436.800690 
	C388.712585,446.782379 372.700775,450.229065 356.976044,453.859833 
	C344.093872,456.834290 330.980103,458.911346 317.887634,460.831604 
	C309.427490,462.072449 300.831451,462.684326 292.277527,462.934357 
	C263.414673,463.777893 234.540634,464.912842 205.676407,464.775024 
	C189.252136,464.696625 172.817459,462.574524 156.426788,460.970947 
	C142.549957,459.613312 128.687820,457.956451 114.901466,455.884460 
	C107.682945,454.799561 100.373230,453.235138 93.588623,450.627960 
	C85.345268,447.460236 84.611488,441.491577 91.155334,435.421570 
	C99.666939,427.526245 110.419388,423.827362 121.195457,420.410126 
	C132.086990,416.956238 143.262650,415.119659 154.749069,416.032471 
	C156.186188,416.146667 157.590744,416.670776 159.377289,417.148438 
z"/>
<path fill="#F8981D" opacity="1.000000" stroke="none" 
	d="
M274.317841,293.316193 
	C277.811340,287.695648 282.267273,282.442841 284.586548,276.373566 
	C288.692932,265.627594 285.260376,255.884949 277.889374,247.381973 
	C269.055084,237.190948 261.827332,226.175888 258.858063,212.684525 
	C255.657150,198.140564 258.485260,185.004089 267.341492,173.218506 
	C277.378326,159.861832 290.578674,150.372086 305.092834,142.318726 
	C321.800232,133.048401 339.598267,126.701042 357.737152,121.102577 
	C358.492279,120.869514 359.382050,121.072800 361.571777,121.072800 
	C354.175812,125.523163 347.528290,128.977692 341.479431,133.274948 
	C328.342072,142.608063 315.230316,152.023361 302.683716,162.120346 
	C297.217224,166.519547 292.469696,172.224457 288.621979,178.134750 
	C281.237518,189.477646 284.013428,200.748184 290.921997,211.375549 
	C294.990021,217.633362 299.171326,223.823761 303.487122,229.913040 
	C312.890747,243.180847 312.282166,256.782501 303.602417,269.519867 
	C296.537415,279.887634 287.068481,288.114471 275.246124,293.846771 
	C274.571136,293.569275 274.444489,293.442749 274.317841,293.316193 
z"/>
<path fill="#5382A1" opacity="1.000000" stroke="none" 
	d="
M175.424423,282.286194 
	C185.140854,281.169373 194.463623,280.240082 203.786407,279.310760 
	C203.874161,279.774078 203.961914,280.237396 204.049667,280.700714 
	C200.430756,281.797791 196.771057,282.777100 193.200806,284.014618 
	C183.647186,287.326050 174.051529,290.544525 164.652130,294.254852 
	C161.953949,295.319916 159.866760,297.932861 157.499420,299.836090 
	C157.539200,300.418915 157.578979,301.001740 157.618759,301.584564 
	C161.399353,303.029785 165.072006,305.150024 168.983688,305.775543 
	C176.439911,306.967865 184.024063,307.424988 191.570984,307.965973 
	C198.494217,308.462189 205.440887,308.987793 212.372726,308.932678 
	C226.473358,308.820648 240.591553,308.689728 254.664398,307.893127 
	C270.932312,306.972321 287.205719,305.733887 303.391174,303.884491 
	C320.751770,301.900818 338.012848,299.046509 355.373047,296.564209 
	C355.353241,296.428345 355.488861,296.843628 355.409882,296.889557 
	C342.563965,304.352905 329.695374,311.503967 314.412506,313.113251 
	C300.415466,314.587128 286.525421,317.054779 272.563843,318.900208 
	C267.666840,319.547485 262.701782,319.856964 257.760315,319.959930 
	C237.498322,320.382141 217.196442,321.575256 196.979599,320.753601 
	C175.071365,319.863159 152.911789,319.402771 131.809387,311.991882 
	C129.680359,311.244202 127.596237,310.160492 125.747780,308.866364 
	C122.127403,306.331696 123.473923,301.650787 128.522400,298.831146 
	C140.888870,291.924255 154.222443,287.576935 167.849121,284.021942 
	C170.216522,283.404327 172.635574,282.984772 175.424423,282.286194 
z"/>
<path fill="#5382A1" opacity="1.000000" stroke="none" 
	d="
M314.877930,410.951843 
	C299.604584,415.722015 284.483978,419.262909 268.840607,419.969086 
	C257.575439,420.477661 246.264893,421.350922 235.029999,420.840759 
	C217.796677,420.058289 200.816376,417.288300 184.917419,409.971741 
	C183.875366,409.492218 182.843094,408.962433 181.883240,408.337769 
	C171.083664,401.309326 171.064331,393.881042 182.234009,387.504639 
	C186.635712,384.991821 191.733887,383.699036 197.844177,381.336792 
	C195.123734,384.691315 193.391190,386.827667 191.831314,388.751099 
	C195.702621,395.203918 202.152863,395.364288 207.494583,395.722717 
	C226.495407,396.997650 245.581818,398.159790 264.594055,397.686768 
	C276.919525,397.380127 289.169739,394.137268 301.461639,392.261993 
	C302.745392,392.066162 304.311035,391.765869 305.359344,392.288879 
	C313.541931,396.371033 321.629913,400.642853 330.359924,405.174194 
	C325.109039,407.168427 320.193939,409.035126 314.877930,410.951843 
z"/>
<path fill="#5382A1" opacity="1.000000" stroke="none" 
	d="
M327.262390,349.771667 
	C330.960388,351.792694 334.385681,353.562134 339.180115,356.038849 
	C330.375916,358.233643 322.940613,360.543182 315.334686,361.886536 
	C300.356873,364.531921 285.354004,367.460541 270.231781,368.746796 
	C254.394638,370.093811 238.362061,370.525818 222.494537,369.743225 
	C206.702805,368.964386 190.741562,367.684357 175.673843,361.975983 
	C171.892288,360.543304 168.084213,358.950836 164.676849,356.812592 
	C159.160187,353.350800 158.779282,347.790253 163.357437,343.152222 
	C169.438629,336.991455 177.568817,334.939545 186.392960,331.245453 
	C184.142288,334.303680 182.714310,336.209961 181.322708,338.142456 
	C178.843552,341.585297 179.373505,344.581451 183.382080,345.996246 
	C188.107635,347.664093 193.015930,349.570679 197.925812,349.827301 
	C217.922791,350.872345 237.992264,352.420044 257.954498,351.662140 
	C274.896606,351.018860 291.780579,347.783386 308.583710,345.041840 
	C315.686737,343.882904 321.764069,344.247986 327.262390,349.771667 
z"/>
<path fill="#5382A1" opacity="1.000000" stroke="none" 
	d="
M413.661804,452.716309 
	C418.170685,449.682404 422.360291,446.847778 426.906494,443.771851 
	C426.944824,448.784760 424.420044,452.781647 421.178253,456.239685 
	C412.686249,465.298157 401.531219,469.905396 389.928253,472.850861 
	C374.435913,476.783691 358.721008,479.932190 342.986053,482.778168 
	C334.922394,484.236694 326.587799,484.128723 318.409271,485.032959 
	C288.105652,488.383362 257.673279,487.472382 227.346924,486.696686 
	C202.180435,486.052979 176.793518,484.705994 152.636505,476.000275 
	C151.189499,475.478760 149.805481,474.782379 148.703690,473.116608 
	C154.748840,473.768555 160.797318,474.391388 166.838364,475.079498 
	C175.147919,476.025909 183.436478,477.681671 191.761032,477.875977 
	C219.675354,478.527405 247.624146,479.484772 275.515717,478.719940 
	C295.169495,478.180969 314.749847,475.016266 334.366486,473.059204 
	C354.606445,471.039978 374.368744,466.605957 393.813171,460.833191 
	C400.515717,458.843292 406.843536,455.591156 413.661804,452.716309 
z"/>
<path fill="#5382A1" opacity="1.000000" stroke="none" 
	d="
M399.208618,348.258972 
	C384.763000,357.157257 369.333282,362.618774 353.413605,366.836639 
	C353.157745,366.471558 352.901917,366.106506 352.646057,365.741425 
	C354.592529,364.213867 356.357117,362.335938 358.515106,361.215973 
	C371.878632,354.280304 384.209595,345.913849 394.521942,334.891693 
	C401.350830,327.592773 406.726166,319.256104 406.932220,308.855560 
	C407.285461,291.026184 388.711639,279.302399 373.165741,282.412567 
	C370.019348,283.042053 366.972351,284.167999 363.400330,285.204071 
	C366.460480,278.498901 372.402283,277.723755 377.987244,276.519104 
	C389.769257,273.977875 400.990417,275.188049 411.402405,281.743927 
	C429.616394,293.212280 431.651123,315.024261 418.652649,330.549286 
	C413.154144,337.116486 405.923706,342.233643 399.208618,348.258972 
z"/>
<path fill="#F8981D" opacity="1.000000" stroke="none" 
	d="
M274.885742,293.887665 
	C274.346222,294.775116 273.618805,295.470734 272.891388,296.166382 
	C272.666870,295.965942 272.442383,295.765533 272.217865,295.565094 
	C272.760406,294.952454 273.302948,294.339813 274.081665,293.521667 
	C274.444489,293.442749 274.571136,293.569275 274.885742,293.887665 
z"/>
</svg>