<svg version="1.1" id="Layer_1" xmlns="http://www.w3.org/2000/svg" xmlns:xlink="http://www.w3.org/1999/xlink" x="0px" y="0px"
	 width="100%" viewBox="0 0 246 246" enable-background="new 0 0 246 246" xml:space="preserve">
<path fill="none" opacity="1.000000" stroke="none" 
	d="
M144.000000,247.000000 
	C96.000000,247.000000 48.500004,247.000000 1.000006,247.000000 
	C1.000004,165.000015 1.000004,83.000015 1.000002,1.000017 
	C82.999992,1.000012 164.999985,1.000012 246.999969,1.000006 
	C246.999985,82.999985 246.999985,164.999969 247.000000,246.999969 
	C212.833328,247.000000 178.666672,247.000000 144.000000,247.000000 
M244.125290,23.203905 
	C241.924789,14.624309 237.266129,11.140946 227.790024,11.139234 
	C158.957626,11.126796 90.125229,11.129158 21.292837,11.134490 
	C8.749391,11.135462 3.644778,16.187717 3.642570,28.656988 
	C3.631265,92.489456 3.632956,156.321915 3.641019,220.154388 
	C3.642624,232.857697 8.750702,237.911102 21.551901,237.911865 
	C89.717644,237.915955 157.883377,237.915329 226.049118,237.906097 
	C227.879272,237.905853 229.735107,237.963211 231.535080,237.696960 
	C239.003159,236.592194 243.264954,232.204315 244.260254,224.139999 
	C244.296585,223.309067 244.364655,222.478134 244.364731,221.647202 
	C244.370972,157.230331 244.374496,92.813446 244.357025,28.396578 
	C244.356613,26.913294 244.114685,25.430073 244.125290,23.203905 
z"/>
<path fill="#E8D34D" opacity="1.000000" stroke="none" 
	d="
M243.985260,225.054031 
	C243.264954,232.204315 239.003159,236.592194 231.535080,237.696960 
	C229.735107,237.963211 227.879272,237.905853 226.049118,237.906097 
	C157.883377,237.915329 89.717644,237.915955 21.551901,237.911865 
	C8.750702,237.911102 3.642624,232.857697 3.641019,220.154388 
	C3.632956,156.321915 3.631265,92.489456 3.642570,28.656988 
	C3.644778,16.187717 8.749391,11.135462 21.292837,11.134490 
	C90.125229,11.129158 158.957626,11.126796 227.790024,11.139234 
	C237.266129,11.140946 241.924789,14.624309 243.865906,23.948149 
	C243.404724,26.495831 243.027390,28.299183 243.026520,30.102716 
	C242.996048,92.980576 242.991531,155.858475 243.042480,218.736298 
	C243.044174,220.842453 243.657196,222.948135 243.985260,225.054031 
M188.921875,156.627838 
	C185.856125,154.978302 182.585205,153.616379 179.773438,151.610779 
	C175.709930,148.712296 175.157913,144.231613 176.592056,139.916122 
	C177.977966,135.745880 181.514404,134.276611 185.978119,133.941193 
	C193.301834,133.390823 197.556976,137.716125 201.302704,143.138092 
	C206.449020,139.871231 211.049225,136.903412 215.700195,134.017426 
	C218.269043,132.423416 218.304688,130.981094 216.526718,128.422180 
	C207.506165,115.439613 194.436554,112.383156 180.048920,114.192055 
	C166.505859,115.894760 156.363388,125.590508 154.169250,137.046432 
	C151.202042,152.538589 157.058746,165.469986 170.951126,172.943970 
	C179.550186,177.570221 188.514786,181.512054 197.227341,185.934418 
	C201.364731,188.034485 203.291779,191.828156 202.570724,196.305389 
	C201.868698,200.664413 199.046463,203.558167 194.654007,205.030426 
	C184.726379,208.357956 174.241562,205.005295 167.594193,196.377533 
	C166.618256,195.110809 164.165344,193.433411 163.346893,193.843628 
	C157.766846,196.640289 152.441376,199.944870 145.581131,203.929230 
	C150.621613,209.123779 154.482407,214.166611 159.348984,217.897430 
	C169.625229,225.775436 181.724808,227.053955 194.332169,226.225952 
	C208.048828,225.325104 220.853561,216.284988 224.011093,204.190109 
	C227.573517,190.544327 224.684952,175.862015 210.862381,167.684036 
	C204.041092,163.648285 196.740814,160.422150 188.921875,156.627838 
M111.815308,140.499939 
	C111.810150,158.166077 111.850121,175.832428 111.774696,193.498260 
	C111.749214,199.465286 108.876068,204.023911 104.609032,205.465500 
	C99.107948,207.323990 92.698463,205.262939 89.117821,200.475159 
	C87.759850,198.659393 86.418289,196.831329 84.937492,194.830872 
	C81.265205,196.971359 78.007042,198.942200 74.682663,200.794174 
	C66.120049,205.564392 65.839867,207.188904 72.448875,214.570999 
	C72.782074,214.943176 73.142937,215.290619 73.491364,215.649139 
	C82.296295,224.709183 93.225395,227.042603 105.413330,226.298904 
	C121.146721,225.338837 133.834335,213.608185 134.091644,198.048965 
	C134.526993,171.723572 134.274246,145.387131 134.392715,119.055695 
	C134.406067,116.085930 133.402603,114.826408 130.337845,114.927284 
	C125.509888,115.086205 120.667305,115.109436 115.841660,114.918518 
	C112.749962,114.796211 111.731819,116.030716 111.785172,119.001274 
	C111.907852,125.832138 111.818558,132.666809 111.815308,140.499939 
z"/>
<path fill="#EAD85F" opacity="1.000000" stroke="none" 
	d="
M244.122772,224.597015 
	C243.657196,222.948135 243.044174,220.842453 243.042480,218.736298 
	C242.991531,155.858475 242.996048,92.980576 243.026520,30.102716 
	C243.027390,28.299183 243.404724,26.495831 243.795959,24.319607 
	C244.114685,25.430073 244.356613,26.913294 244.357025,28.396578 
	C244.374496,92.813446 244.370972,157.230331 244.364731,221.647202 
	C244.364655,222.478134 244.296585,223.309067 244.122772,224.597015 
z"/>
<path fill="#32332F" opacity="1.000000" stroke="none" 
	d="
M189.289566,156.728760 
	C196.740814,160.422150 204.041092,163.648285 210.862381,167.684036 
	C224.684952,175.862015 227.573517,190.544327 224.011093,204.190109 
	C220.853561,216.284988 208.048828,225.325104 194.332169,226.225952 
	C181.724808,227.053955 169.625229,225.775436 159.348984,217.897430 
	C154.482407,214.166611 150.621613,209.123779 145.581131,203.929230 
	C152.441376,199.944870 157.766846,196.640289 163.346893,193.843628 
	C164.165344,193.433411 166.618256,195.110809 167.594193,196.377533 
	C174.241562,205.005295 184.726379,208.357956 194.654007,205.030426 
	C199.046463,203.558167 201.868698,200.664413 202.570724,196.305389 
	C203.291779,191.828156 201.364731,188.034485 197.227341,185.934418 
	C188.514786,181.512054 179.550186,177.570221 170.951126,172.943970 
	C157.058746,165.469986 151.202042,152.538589 154.169250,137.046432 
	C156.363388,125.590508 166.505859,115.894760 180.048920,114.192055 
	C194.436554,112.383156 207.506165,115.439613 216.526718,128.422180 
	C218.304688,130.981094 218.269043,132.423416 215.700195,134.017426 
	C211.049225,136.903412 206.449020,139.871231 201.302704,143.138092 
	C197.556976,137.716125 193.301834,133.390823 185.978119,133.941193 
	C181.514404,134.276611 177.977966,135.745880 176.592056,139.916122 
	C175.157913,144.231613 175.709930,148.712296 179.773438,151.610779 
	C182.585205,153.616379 185.856125,154.978302 189.289566,156.728760 
z"/>
<path fill="#32332F" opacity="1.000000" stroke="none" 
	d="
M111.815308,139.999939 
	C111.818558,132.666809 111.907852,125.832138 111.785172,119.001274 
	C111.731819,116.030716 112.749962,114.796211 115.841660,114.918518 
	C120.667305,115.109436 125.509888,115.086205 130.337845,114.927284 
	C133.402603,114.826408 134.406067,116.085930 134.392715,119.055695 
	C134.274246,145.387131 134.526993,171.723572 134.091644,198.048965 
	C133.834335,213.608185 121.146721,225.338837 105.413330,226.298904 
	C93.225395,227.042603 82.296295,224.709183 73.491364,215.649139 
	C73.142937,215.290619 72.782074,214.943176 72.448875,214.570999 
	C65.839867,207.188904 66.120049,205.564392 74.682663,200.794174 
	C78.007042,198.942200 81.265205,196.971359 84.937492,194.830872 
	C86.418289,196.831329 87.759850,198.659393 89.117821,200.475159 
	C92.698463,205.262939 99.107948,207.323990 104.609032,205.465500 
	C108.876068,204.023911 111.749214,199.465286 111.774696,193.498260 
	C111.850121,175.832428 111.810150,158.166077 111.815308,139.999939 
z"/>
</svg>