<?xml version="1.0" encoding="UTF-8" standalone="no"?>
<!-- Created with Inkscape (http://www.inkscape.org/) -->

<svg
   version="1.1"
   id="svg1"
   width="421.60001"
   height="382.39999"
   viewBox="0 0 421.60001 382.39999"
   sodipodi:docname="jwt.svg"
   inkscape:version="1.3.2 (091e20e, 2023-11-25, custom)"
   xmlns:inkscape="http://www.inkscape.org/namespaces/inkscape"
   xmlns:sodipodi="http://sodipodi.sourceforge.net/DTD/sodipodi-0.dtd"
   xmlns="http://www.w3.org/2000/svg"
   xmlns:svg="http://www.w3.org/2000/svg">
  <defs
     id="defs1" />
  <sodipodi:namedview
     id="namedview1"
     pagecolor="#ffffff"
     bordercolor="#000000"
     borderopacity="0.25"
     inkscape:showpageshadow="2"
     inkscape:pageopacity="0.0"
     inkscape:pagecheckerboard="0"
     inkscape:deskcolor="#d1d1d1"
     inkscape:zoom="1.4552642"
     inkscape:cx="195.49714"
     inkscape:cy="154.26752"
     inkscape:window-width="1920"
     inkscape:window-height="1001"
     inkscape:window-x="-9"
     inkscape:window-y="-9"
     inkscape:window-maximized="1"
     inkscape:current-layer="g1"
     inkscape:lockguides="false" />
  <g
     inkscape:groupmode="layer"
     inkscape:label="Image"
     id="g1">
    <g
       id="g69"
       transform="matrix(1.1794042,0,0,1.174133,-35.97358,-36.81214)">
      <path
         style="fill:#fcfcfc"
         d="m 188,295.5474 c 0,-25.89622 0.26608,-36.95862 0.9188,-38.2 1.17225,-2.22942 19.01213,-26.81029 19.82052,-27.3099 0.33346,-0.20609 5.16354,5.88147 10.73349,13.52792 L 229.6,257.46805 v 37.26597 37.26597 H 208.8 188 Z M 198.2,143.40659 188,129.26613 V 92.233062 55.199999 h 20.8 20.8 l -0.0182,37.4 L 229.56365,130 219.5198,143.8 c -5.52412,7.59 -10.28594,13.78809 -10.58182,13.77353 -0.29589,-0.0146 -5.12798,-6.38968 -10.73798,-14.16694 z"
         id="path74" />
      <path
         style="fill:#d438fc"
         d="m 83.200001,255.6157 c 0,-0.22813 -2.706962,-8.7641 -6.015471,-18.96883 -3.308509,-10.20472 -5.898679,-18.90442 -5.755933,-19.33266 0.142747,-0.42824 15.99399,-5.88881 35.224983,-12.1346 l 34.96545,-11.35597 16.39049,5.25798 c 9.01476,2.89189 16.39048,5.54354 16.39048,5.89256 0,0.34901 -4.50677,6.83119 -10.01504,14.40484 l -10.01505,13.77025 -33.78495,10.98297 C 84.643635,255.81621 83.200001,256.25965 83.200001,255.6157 Z M 259,188.14834 c -8.69,-2.92509 -15.8,-5.52084 -15.8,-5.76834 0,-0.24749 4.59,-6.70385 10.2,-14.34746 l 10.2,-13.89747 35.2,-11.38847 c 19.36,-6.26366 35.31615,-11.27791 35.45812,-11.14276 0.14196,0.13514 3.07568,8.94478 6.51938,19.57698 4.15773,12.83671 5.95239,19.44735 5.34189,19.6768 -4.74128,1.78197 -69.83422,22.7262 -70.47425,22.67572 -0.46482,-0.0367 -7.95514,-2.45991 -16.64514,-5.385 z"
         id="path73" />
      <path
         style="fill:#00f0e4"
         d="M 267.70603,309.40369 C 264.40239,304.89166 254.65783,291.48 246.05144,279.6 l -15.64797,-21.6 -0.002,-17.4 c -9.6e-4,-9.57 0.23367,-17.4 0.52139,-17.4 0.28772,0 7.75772,2.34892 16.6,5.21983 l 16.07687,5.21984 20.99175,29.09322 c 11.54546,16.00128 21.1696,29.58235 21.38698,30.18017 0.35758,0.98336 -4.2012,4.50345 -28.09101,21.69063 l -4.17508,3.0037 z m -96.59209,-150.15341 -16.48606,-5.21067 -21.11394,-29.09594 c -11.61267,-16.00276 -21.38775,-29.57651 -21.7224,-30.163888 -0.43393,-0.761623 3.97944,-4.411386 15.38596,-12.723872 8.79694,-6.410751 16.31844,-11.655911 16.71446,-11.655911 0.39602,0 10.2092,13.021151 21.80707,28.93589 11.59787,15.914741 21.45018,29.324741 21.89401,29.800001 0.51717,0.55379 0.66331,7.05191 0.40696,18.09459 l -0.4,17.23048 z"
         id="path72" />
      <path
         style="fill:#00b7ef"
         d="M 298.89815,244.75772 C 280.03213,238.62097 264.10213,233.6 263.49815,233.6 c -0.60398,0 -1.09815,-0.39556 -1.09815,-0.87903 0,-0.48346 -4.32,-6.79201 -9.6,-14.01899 -5.28,-7.22699 -9.59906,-13.40143 -9.59791,-13.72098 0.001,-0.31955 7.40309,-2.96872 16.44875,-5.88704 l 16.44666,-5.30604 35.19306,11.41451 c 19.35618,6.27798 35.31336,11.5457 35.4604,11.70604 0.45676,0.49807 -12.36997,39.09402 -12.97738,39.04925 -0.31547,-0.0232 -16.00941,-5.06325 -34.87543,-11.2 z M 105.8,182.15117 c -19.78689,-6.48098 -34.599999,-11.73916 -34.599999,-12.28189 0,-0.80921 11.909055,-37.97015 12.316763,-38.43314 0.07936,-0.0901 15.610558,4.85426 34.513766,10.98753 18.90321,6.13326 34.66072,11.157 35.01669,11.16386 0.35596,0.007 0.43255,-0.43753 0.17018,-0.98753 -0.26237,-0.55 -0.0136,-0.34059 0.55279,0.46536 0.56639,0.80595 5.63712,7.82595 11.26827,15.6 l 10.23846,14.13464 -16.23846,5.35547 c -8.93115,2.9455 -16.77846,5.34941 -17.43846,5.34201 -0.66,-0.007 -16.77,-5.11325 -35.8,-11.34631 z"
         id="path71" />
      <path
         style="fill:#f80059"
         d="m 127.5759,305.94125 c -8.78674,-6.41231 -16.08852,-11.97018 -16.22617,-12.35081 -0.13765,-0.38064 9.49484,-14.1242 21.40553,-30.54125 L 154.41107,233.2 l 16.59446,-5.30749 c 9.12696,-2.91912 16.67151,-5.24208 16.76567,-5.16214 0.0942,0.0799 0.21097,8.00455 0.25959,17.61024 l 0.0884,17.4649 -21.81544,29.89724 c -11.9985,16.44348 -22.02616,29.89724 -22.2837,29.89724 -0.25753,0 -7.65739,-5.24643 -16.44414,-11.65874 z M 229.61703,147.4 l 0.017,-17.4 21.78298,-30.161724 c 11.98064,-16.588947 22.05149,-30.088947 22.37968,-29.999999 0.32819,0.08895 7.97879,5.512671 17.00134,12.05272 l 16.40463,11.890999 -2.69842,3.709001 C 288.8248,119.04257 264.5507,152.58612 264.13151,153.28069 263.70269,153.99124 231.74364,164.8 230.07153,164.8 c -0.25934,0 -0.46387,-7.83 -0.4545,-17.4 z"
         id="path70" />
      <path
         style="display:none;fill:#000000"
         d="M 0,191.2 V 0 H 210.8 421.60001 V 191.2 382.39999 H 210.8 0 Z m 229.62528,104.2 0.0253,-37.4 1.77471,2.07974 c 0.9761,1.14386 10.77472,14.54795 21.77472,29.78688 11,15.23892 20.22134,27.71303 20.49186,27.72025 0.57304,0.0153 31.06468,-22.02638 32.42199,-23.43708 0.69346,-0.72073 -4.2694,-8.07785 -20.57782,-30.5053 -11.82042,-16.25553 -21.37805,-29.66914 -21.23917,-29.80802 0.13888,-0.13887 15.82137,4.7911 34.84998,10.95551 19.0286,6.16441 34.72264,11.20802 34.87564,11.20802 0.23052,0 3.64781,-10.21751 11.966,-35.77774 l 1.09924,-3.37774 -27.34386,-8.86943 C 304.70474,203.09691 288.8,197.91759 284.4,196.4655 l -8,-2.64016 34.8,-11.39808 c 19.14,-6.26894 35.02779,-11.62965 35.30618,-11.91267 0.91686,-0.93209 -12.10132,-39.48764 -13.19162,-39.06925 -4.35984,1.67303 -68.71098,22.2249 -68.92368,22.0122 -0.15092,-0.15092 8.73618,-12.69061 19.74911,-27.86597 11.01293,-15.17536 20.70386,-28.54313 21.53541,-29.706146 L 307.1873,93.77085 290.79036,81.885424 C 281.77204,75.34844 274.1249,69.926716 273.79671,69.837149 273.46852,69.747581 263.48,83.153736 251.6,99.628604 L 230,129.58291 229.79209,92.391454 229.58418,55.199999 h -20.7841 -20.7841 L 187.80799,92.030985 187.6,128.86197 166.47465,99.830985 C 154.85571,83.863943 145.07704,70.489331 144.74428,70.109626 c -0.33276,-0.379705 -8.16532,4.805241 -17.40568,11.522102 l -16.80066,12.212474 5.03722,6.877898 c 22.27346,30.4125 37.97765,52.49148 37.45247,52.65553 -0.3452,0.10783 -16.09389,-4.82177 -34.9971,-10.95465 -18.903208,-6.13289 -34.434403,-11.07697 -34.513766,-10.98684 -0.407571,0.46283 -12.316763,37.62378 -12.316763,38.43272 0,0.54356 14.60286,5.6886 34.199999,12.04972 18.81,6.10561 34.46426,11.33394 34.78723,11.6185 0.59889,0.52765 -1.25471,1.15894 -44.681641,15.2177 l -24.894413,8.05916 6.278047,19.30999 c 3.452926,10.6205 6.430028,19.46198 6.615783,19.64774 0.185754,0.18575 15.926067,-4.71394 34.978474,-10.8882 19.05241,-6.17426 34.76743,-11.09924 34.92227,-10.94439 0.15484,0.15484 -9.30102,13.48317 -21.01302,29.61851 -11.71199,16.13534 -21.18163,29.64759 -21.04363,30.02723 0.26938,0.7411 30.64874,23.11107 32.18789,23.7017 0.50731,0.19467 10.62902,-12.9494 22.49269,-29.20904 L 187.6,258.51449 l 0.20031,36.14275 c 0.11017,19.87852 0.36888,36.59275 0.5749,37.14275 0.28622,0.76411 5.19271,1 20.79969,1 H 229.6 Z M 187.81571,239.74208 187.6,222.60915 l -15.94612,5.08264 c -8.77036,2.79545 -16.0677,4.96106 -16.21629,4.81246 -0.14859,-0.14859 4.23418,-6.45288 9.7395,-14.00953 10.00799,-13.73707 10.00932,-13.73949 7.96073,-14.51836 -1.12691,-0.42845 -8.49135,-2.83099 -16.36541,-5.33898 -7.87407,-2.50798 -14.13206,-4.7444 -13.90664,-4.96982 0.22541,-0.22541 7.61233,-2.76283 16.41536,-5.6387 L 175.28665,182.8 165.18534,168.92465 c -5.55572,-7.63144 -9.98522,-13.97191 -9.84332,-14.08992 0.14189,-0.11802 7.45798,2.07486 16.25798,4.87306 8.8,2.79819 16.08298,5.08866 16.1844,5.08992 0.10142,0.001 0.28142,-7.82771 0.4,-17.39771 L 188.4,130 l 10.2911,14.24223 c 5.66011,7.83323 10.38579,14.13323 10.50153,14 0.11573,-0.13323 4.75473,-6.49484 10.3089,-14.13691 L 229.6,130.21064 v 17.29468 c 0,9.51207 0.21585,17.29468 0.47967,17.29468 0.26381,0 7.70706,-2.33675 16.54055,-5.19278 8.83349,-2.85603 16.12841,-5.10603 16.21094,-5 0.0825,0.10603 -4.30072,6.29199 -9.74055,13.74658 -5.43983,7.45459 -9.89061,13.82054 -9.89061,14.14655 0,0.32602 6.93,2.83573 15.4,5.57714 8.47,2.74142 15.67869,5.22216 16.01931,5.51276 0.34062,0.2906 -6.58938,2.83911 -15.4,5.66336 -8.81062,2.82424 -16.01931,5.399 -16.01931,5.72169 0,0.32269 4.36035,6.55491 9.68965,13.84939 5.32931,7.29447 9.54699,13.40534 9.37263,13.5797 -0.17437,0.17437 -7.50471,-2.00091 -16.28965,-4.83394 -8.78495,-2.83303 -16.05561,-5.15535 -16.15702,-5.16071 -0.10142,-0.005 -0.28142,7.69406 -0.4,17.10982 L 229.2,256.63913 219.35136,243.11956 c -5.41675,-7.43576 -10.09675,-13.51119 -10.4,-13.50095 -0.30325,0.0102 -4.87065,5.98418 -10.14979,13.27542 -5.27914,7.29125 -9.86207,13.41975 -10.18429,13.6189 -0.32223,0.19914 -0.68293,-7.34774 -0.80157,-16.77085 z"
         id="path69" />
    </g>
  </g>
</svg>
