<?xml version="1.0" encoding="UTF-8" standalone="no"?>
<!-- Created with Inkscape (http://www.inkscape.org/) -->

<svg
   version="1.1"
   id="svg1"
   width="866"
   height="787"
   viewBox="0 0 866 787"
   sodipodi:docname="linkedin.svg"
   inkscape:version="1.3.2 (091e20e, 2023-11-25, custom)"
   xmlns:inkscape="http://www.inkscape.org/namespaces/inkscape"
   xmlns:sodipodi="http://sodipodi.sourceforge.net/DTD/sodipodi-0.dtd"
   xmlns="http://www.w3.org/2000/svg"
   xmlns:svg="http://www.w3.org/2000/svg">
  <defs
     id="defs1" />
  <sodipodi:namedview
     id="namedview1"
     pagecolor="#ffffff"
     bordercolor="#000000"
     borderopacity="0.25"
     inkscape:showpageshadow="2"
     inkscape:pageopacity="0.0"
     inkscape:pagecheckerboard="0"
     inkscape:deskcolor="#d1d1d1"
     inkscape:zoom="0.70710678"
     inkscape:cx="299.10617"
     inkscape:cy="463.15494"
     inkscape:window-width="1920"
     inkscape:window-height="1001"
     inkscape:window-x="-9"
     inkscape:window-y="-9"
     inkscape:window-maximized="1"
     inkscape:current-layer="g1" />
  <g
     inkscape:groupmode="layer"
     inkscape:label="Image"
     id="g1">
    <g
       id="g11"
       transform="matrix(1.1230804,0,0,1.1230804,-61.924238,-48.292459)">
      <path
         style="display:inline;fill:#fdfdfd"
         d="M 197,478 V 309 h 52 52 v 169 169 h -52 -52 z m 172,0 V 309 h 49.98123 49.98122 l 0.26878,22.65148 0.26877,22.65148 4.42624,-6.31167 c 13.10126,-18.68199 35.27175,-35.02437 57.79927,-42.60521 31.53978,-10.6136 72.64408,-7.61872 101.27449,7.37891 35.11904,18.39662 55.80198,53.15831 59.93653,100.73501 0.64441,7.41524 1.04678,54.3135 1.05315,122.75 L 694,647 H 642.56621 591.13243 L 590.6988,549.75 C 590.23458,445.63875 590.29353,446.88689 585.09163,431.04112 578.85255,412.03592 565.90547,399.42259 548,394.90563 c -7.59001,-1.9147 -24.86054,-1.63898 -33,0.52685 -21.17231,5.63374 -35.18457,19.55738 -41.91837,41.65327 C 469.23793,449.69823 469,456.45931 469,553.07236 V 647 H 419 369 Z M 238,263.37482 c -32.38442,-6.2596 -54.52407,-36.76608 -50.18427,-69.14946 1.42531,-10.6356 3.94802,-17.49183 9.61863,-26.1416 7.62134,-11.62534 18.32885,-19.96066 31.91959,-24.84798 9.87981,-3.55285 26.7126,-3.77948 37.14605,-0.50013 20.15448,6.33479 36.70919,23.96967 41.98497,44.72445 C 309.31824,190.73815 310,197.28111 310,202 c 0,26.77342 -16.6097,50.06092 -42.05667,58.9652 -6.35984,2.22541 -23.68386,3.61952 -29.94333,2.40962 z"
         id="path14" />
      <path
         style="display:none;fill:#e4e4e4"
         d="M 0,393.5 V 0 H 433 866 V 393.5 787 H 433 0 Z m 732.5,349.43066 c 13.00581,-3.44064 26.51672,-10.88817 35.8568,-19.76511 7.81191,-7.42453 15.37114,-19.61204 20.27839,-32.69419 1.80142,-4.80236 1.87478,-14.77879 2.15797,-293.47136 0.21479,-211.37862 -0.009,-290.0866 -0.83677,-294.43525 C 787.76932,91.076571 779.60077,75.857998 770.24214,65.835744 764.89835,60.113026 753.54672,52.273557 745.48031,48.735152 731.39393,42.556032 755.00298,43 440.5,43 184.64545,43 152.77407,43.168295 147.47979,44.547279 120.31582,51.622595 98.622595,73.315819 91.547279,100.47979 90.168295,105.77407 90,137.64545 90,393.5 c 0,255.85455 0.168295,287.72593 1.547279,293.02021 3.198153,12.27853 10.321461,25.1246 19.210581,34.64405 8.30834,8.89747 24.73766,18.48246 36.74214,21.43562 6.68352,1.64418 578.81242,1.96768 585,0.33078 z M 301.48855,478 c 0,-93.225 0.11762,-131.3625 0.26137,-84.75 0.14376,46.6125 0.14376,122.8875 0,169.5 -0.14375,46.6125 -0.26137,8.475 -0.26137,-84.75 z m 288.99066,78.5 c 6e-5,-50.05 0.12183,-70.37852 0.27059,-45.1745 0.14876,25.20403 0.14871,66.15403 -1.1e-4,91 -0.14882,24.84598 -0.27054,4.2245 -0.27048,-45.8255 z M 529.75,393.2766 c 1.7875,-0.22182 4.7125,-0.22182 6.5,0 1.7875,0.22183 0.325,0.40333 -3.25,0.40333 -3.575,0 -5.0375,-0.1815 -3.25,-0.40333 z"
         id="path13" />
      <path
         style="display:none;fill:#3c9dcb"
         d="m 223.32036,647.25057 c 14.7512,-0.15592 38.6012,-0.15579 53,3e-4 14.3988,0.15609 2.32964,0.28367 -26.82036,0.2835 -29.15,-1.6e-4 -40.93084,-0.12787 -26.17964,-0.2838 z M 368.24712,478.25 368.5,308.5 l 50.25013,-0.014 50.25013,-0.014 -50.00013,0.27327 L 369,309.0185 V 478 646.9815 l 50.25,0.26871 50.25,0.26871 -50.75288,0.24054 L 367.99424,648 Z m 273.9985,169.00446 51.74561,-0.27229 0.26102,-110.24109 0.26102,-110.24108 -0.007,110.5 -0.007,110.5 -52,0.0134 -52,0.0134 z M 485,333.5 c 2.98742,-3.025 5.65668,-5.5 5.93168,-5.5 0.275,0 -1.94426,2.475 -4.93168,5.5 -2.98742,3.025 -5.65668,5.5 -5.93168,5.5 -0.275,0 1.94426,-2.475 4.93168,-5.5 z M 222.75,308.25073 c 14.4375,-0.15616 38.0625,-0.15616 52.5,0 14.4375,0.15617 2.625,0.28394 -26.25,0.28394 -28.875,0 -40.6875,-0.12777 -26.25,-0.28394 z m 343.5,-9.98972 c 3.1625,-0.19845 8.3375,-0.19845 11.5,0 3.1625,0.19845 0.575,0.36082 -5.75,0.36082 -6.325,0 -8.9125,-0.16237 -5.75,-0.36082 z"
         id="path12" />
      <path
         style="display:none;fill:#007ebb"
         d="m 146,741.65939 c -7.58777,-2.26669 -18.00682,-7.13565 -23.5,-10.98186 -4.83735,-3.38701 -14.40879,-12.78532 -17.99182,-17.66638 C 99.638709,706.3776 94.400425,695.41967 92.057968,686.96662 90.002782,679.55024 90,679.15346 90,393.5 c 0,-285.65346 0.0028,-286.05024 2.057968,-293.46662 2.342457,-8.453045 7.580741,-19.410976 12.450212,-26.044528 3.59869,-4.902388 13.15679,-14.279955 18.0492,-17.708282 5.61899,-3.937478 16.97278,-9.143355 24.476,-11.222602 C 154.44976,43.002782 154.84654,43 440.5,43 c 285.65346,0 286.05024,0.0028 293.46662,2.057968 8.45305,2.342457 19.41098,7.580741 26.04453,12.450215 4.90239,3.598684 14.27995,13.156783 17.70828,18.049194 3.93748,5.618995 9.14336,16.972784 11.2226,24.476003 C 790.99722,107.44976 791,107.84654 791,393.5 c 0,285.65346 -0.003,286.05024 -2.05797,293.46662 -6.98085,25.19125 -25.57809,44.9991 -50.44203,53.72561 l -8,2.80777 -288.5,0.19993 -288.5,0.19993 z M 301.75288,478.25 301.5,308.5 249.25,308.24108 197,307.98216 V 477.99108 648 h 52.50288 52.50288 z M 469,557.05122 c 0,-97.42033 0.37356,-106.21945 5.13919,-121.05122 8.2334,-25.62432 27.22022,-40.17402 54.36081,-41.65698 17.59663,-0.96148 30.45297,3.08987 41.10732,12.95391 8.64311,8.002 13.57238,17.68202 17.67151,34.70307 1.97666,8.20782 2.06031,11.89473 2.43361,107.25889 l 0.38658,98.7589 52.20049,-0.2589 L 694.5,647.5 694.79053,542 c 0.30484,-110.69322 -0.22743,-131.33543 -3.81635,-148.00322 -5.84632,-27.15169 -15.91685,-47.04028 -31.92377,-63.04719 -17.45897,-17.45898 -38.93006,-27.39449 -67.83479,-31.38982 -18.79499,-2.59792 -36.71356,-1.4947 -54.00105,3.32476 -25.29148,7.05083 -48.7927,23.47305 -63.59993,44.44245 l -4.11464,5.82698 -0.2688,-22.58622 -0.2688,-22.58622 -50.2312,0.25924 L 368.5,308.5 368.24712,478.25 367.99424,648 H 418.49712 469 Z M 266.76447,262.12917 c 12.46853,-3.89032 23.28063,-11.42381 30.85298,-21.49726 6.16827,-8.20561 8.86851,-13.78537 11.32253,-23.39684 8.10013,-31.72508 -10.20351,-64.8481 -41.36157,-74.84957 -10.21407,-3.27863 -25.68137,-3.70089 -35.07841,-0.95766 -24.46475,7.14186 -42.38294,27.98807 -45.4801,52.91203 -3.02763,24.36433 8.29071,48.20568 29.11967,61.33872 5.04721,3.18235 17.35486,7.76051 23.36043,8.68952 5.98407,0.92569 21.10028,-0.31565 27.26447,-2.23894 z"
         id="path11" />
    </g>
  </g>
</svg>
