<?xml version="1.0" encoding="UTF-8" standalone="no"?>
<!-- Created with Inkscape (http://www.inkscape.org/) -->

<svg
   version="1.1"
   id="svg1"
   width="453"
   height="453"
   viewBox="0 0 453 453"
   sodipodi:docname="maven.svg"
   inkscape:version="1.3.2 (091e20e, 2023-11-25, custom)"
   xmlns:inkscape="http://www.inkscape.org/namespaces/inkscape"
   xmlns:sodipodi="http://sodipodi.sourceforge.net/DTD/sodipodi-0.dtd"
   xmlns:xlink="http://www.w3.org/1999/xlink"
   xmlns="http://www.w3.org/2000/svg"
   xmlns:svg="http://www.w3.org/2000/svg">
  <defs
     id="defs1">
    <linearGradient
       id="linearGradient1"
       inkscape:collect="always">
      <stop
         style="stop-color:#282662;stop-opacity:1;"
         offset="0"
         id="stop1" />
      <stop
         style="stop-color:#54266d;stop-opacity:1;"
         offset="0.08285102"
         id="stop3" />
      <stop
         style="stop-color:#812779;stop-opacity:1;"
         offset="0.25741062"
         id="stop4" />
      <stop
         style="stop-color:#cc2235;stop-opacity:1;"
         offset="0.46277928"
         id="stop5" />
      <stop
         style="stop-color:#e1602a;stop-opacity:1;"
         offset="0.75329685"
         id="stop6" />
      <stop
         style="stop-color:#f39023;stop-opacity:1;"
         offset="1"
         id="stop2" />
    </linearGradient>
    <linearGradient
       inkscape:collect="always"
       xlink:href="#linearGradient1"
       id="linearGradient2"
       x1="696.43909"
       y1="446.80408"
       x2="696.69995"
       y2="29.208569"
       gradientUnits="userSpaceOnUse"
       gradientTransform="translate(-463.99501,-12.210395)" />
  </defs>
  <sodipodi:namedview
     id="namedview1"
     pagecolor="#ffffff"
     bordercolor="#000000"
     borderopacity="0.25"
     inkscape:showpageshadow="2"
     inkscape:pageopacity="0.0"
     inkscape:pagecheckerboard="0"
     inkscape:deskcolor="#d1d1d1"
     showguides="false"
     inkscape:zoom="1.2284615"
     inkscape:cx="113.55668"
     inkscape:cy="230.77647"
     inkscape:window-width="1920"
     inkscape:window-height="1001"
     inkscape:window-x="-9"
     inkscape:window-y="-9"
     inkscape:window-maximized="1"
     inkscape:current-layer="g1" />
  <g
     inkscape:groupmode="layer"
     inkscape:label="Image"
     id="g1"
     transform="matrix(0.9235319,0,0,0.92128519,36.258151,29.480749)">
    <path
       style="fill:url(#linearGradient2)"
       d="m 113.58555,427.82488 c 2.20314,-4.8125 10.65309,-22.20751 18.77768,-38.65558 l 14.77197,-29.90557 -1.97971,-6.59443 c -1.08884,-3.62693 -2.12589,-6.76788 -2.30455,-6.97988 -1.10926,-1.31628 -9.3523,6.21029 -14.65966,13.38546 -2.30971,3.12256 -2.80024,3.4516 -2.23619,1.5 1.36793,-4.73296 4.57376,-11.39665 7.03559,-14.62428 l 2.46699,-3.23438 -3.24039,0.92933 c -1.78221,0.51113 -5.44132,0.92933 -8.13134,0.92933 h -4.89096 l 7.13435,-3.56917 c 3.9239,-1.96305 7.13436,-4.20647 7.13436,-4.98538 0,-0.77891 -2.5875,-3.46663 -5.75,-5.97272 -5.02875,-3.98497 -9.27153,-6.31439 -25.25,-13.86309 l -3.500003,-1.6535 8.500003,0.47052 c 4.675,0.25878 9.50431,0.76899 10.7318,1.1338 1.97006,0.58549 1.63245,-0.37605 -2.87862,-8.19859 C 96.055229,274.53558 82.208715,227.68188 75.018285,171.57488 71.203435,141.80746 68.732045,94.073425 69.953335,73.746964 l 0.72424,-12.053763 10.31386,5.129431 10.313874,5.12943 0.62735,9.561402 c 2.1756,33.158496 7.275438,69.905256 15.123321,108.970776 5.84499,29.09542 20.01255,86.78315 27.97451,113.90709 4.26435,14.52734 5.09091,16.47231 7.53805,17.73777 l 2.74852,1.42132 -0.96961,-3.23777 C 118.02754,232.42396 100.47645,149.85354 95.089499,88.574865 l -1.4505,-16.499999 3.662345,-3.998681 3.662346,-3.998682 -3.750006,3.444848 -3.750005,3.444849 -0.1408,-16.946167 c -0.10288,-12.38212 -0.34557,-15.464873 -0.9011,-11.446167 -0.41817,3.025 -0.80481,10.5625 -0.8592,16.75 -0.0544,6.1875 -0.33208,11.25 -0.617074,11.25 -0.28499,0 -5.00415,-2.251173 -10.48702,-5.002607 l -9.96886,-5.002606 0.60199,-7.747394 c 0.9276,-11.937974 3.90217,-28.454907 5.87213,-32.606298 2.04512,-4.309769 7.61626,-7.641095 12.77859,-7.641095 12.276965,0 23.989355,8.190485 32.603025,22.799319 l 2.94648,4.997228 -12.16408,12.303994 c -8.114,8.207342 -9.50045,9.85969 -4.16407,4.962706 4.4,-4.037709 9.94759,-9.386018 12.32797,-11.885132 5.04846,-5.300273 4.92534,-5.390521 8.617,6.316757 7.11944,22.577732 10.66187,55.478102 7.17052,66.596202 -0.76148,2.42491 -2.12266,6.20893 -3.02483,8.40894 l -1.64031,4 3.097,-3.5 c 1.70336,-1.92501 4.25881,-5.45777 5.67879,-7.85059 3.02294,-5.09397 3.26739,-4.86035 6.21214,5.93713 4.61727,16.93011 4.47119,27.89605 -0.51745,38.8426 -2.15233,4.72283 -2.2248,5.20343 -0.55709,3.69417 1.05442,-0.95423 3.42357,-4.52235 5.26479,-7.92914 3.9714,-7.34826 4.30541,-6.59516 3.68374,8.30583 -0.32156,7.7076 -0.91537,10.62538 -3.14726,15.46467 l -2.75092,5.96467 2.67599,-2.46467 c 1.4718,-1.35557 3.49513,-3.7867 4.49629,-5.4025 l 1.8203,-2.93784 1.05998,2.78794 c 1.97898,5.20514 6.96592,25.04875 8.56664,34.08773 2.11796,11.95972 2.16253,32.93481 0.0887,41.73731 -2.10726,8.94427 -6.91653,21.25877 -10.5237,26.94667 -2.88784,4.55367 -2.71399,6.81602 0.52381,6.81602 2.49061,0 8.04713,-7.98962 9.70592,-13.95596 4.97683,-17.90068 21.48203,-53.51926 36.16461,-78.04404 24.49348,-40.91225 61.98222,-87.75301 102.75977,-128.394468 13.24821,-13.203988 17.16786,-16.589845 17.94366,-15.5 0.79758,1.120458 0.89054,1.072812 0.47306,-0.242487 -0.36172,-1.139656 1.96398,-3.746844 7.65567,-8.582236 26.87657,-22.833084 35.92789,-25.908019 46.03412,-15.638815 15.95675,16.214082 12.98933,45.846796 -7.7967,77.857996 -12.41109,19.1135 -27.21487,36.92105 -34.97846,42.07578 -2.94314,1.95414 -7.99099,4.67616 -11.21745,6.04894 l -5.86628,2.49596 6,-0.58231 c 3.3,-0.32027 8.16347,-1.23372 10.80772,-2.02988 4.78813,-1.44166 4.80499,-1.43852 4.13821,0.77198 -1.92081,6.36787 -14.63641,25.92358 -19.80944,30.46556 -4.7104,4.13578 -11.24767,7.90472 -17.79884,10.26156 -5.15217,1.85354 -5.21603,1.92111 -1.83765,1.94448 3.00034,0.0208 8.15504,-1.1355 16.49424,-3.69983 3.35181,-1.03069 -6.23542,9.56499 -13.49424,14.91366 -3.575,2.63424 -8.6375,5.56345 -11.25,6.50936 -5.14381,1.86243 -6.4614,3.81096 -2,2.95773 1.5125,-0.28926 4.69141,-0.81945 7.06425,-1.1782 l 4.31424,-0.65228 -3.12091,6.18248 c -24.41186,48.35958 -55.90573,75.53851 -92.5076,79.83322 l -7,0.82135 5.96531,1.81377 c 4.70075,1.42929 7.9865,1.69956 15.5,1.27498 10.4435,-0.59017 17.52601,-2.75148 25.41857,-7.7568 l 4.78623,-3.03534 -3.33505,4.66309 c -7.08006,9.89936 -19.47353,18.56724 -32.83506,22.96455 l -5.5,1.81006 3.5,0.76159 c 4.60807,1.00271 10.71262,0.0802 14.77504,-2.23285 3.1269,-1.78035 3.23105,-1.78249 2.30245,-0.0474 -1.6151,3.01785 -8.70454,8.92212 -13.8343,11.52156 -9.65806,4.89411 -15.36049,5.9017 -30.77596,5.43793 l -14.18992,-0.42691 2.23751,4.55611 c 1.23063,2.50586 2.48962,6.58111 2.79775,9.05611 l 0.56024,4.5 -3.63694,-6.88481 c -3.51458,-6.65321 -7.0524,-9.61519 -11.48447,-9.61519 -1.54549,0 -8.7514,14.08797 -8.7514,17.10951 0,1.14203 5.175,17.56606 11.5,36.49783 6.325,18.93178 11.5,35.31494 11.5,36.40704 0,1.09209 -0.62556,1.98562 -1.39013,1.98562 -0.93741,0 -5.20232,-11.39856 -13.09567,-35 -6.43805,-19.25 -11.92221,-35 -12.18703,-35 -0.48113,0 -25.60717,51.04508 -31.22824,63.44209 -2.51205,5.54021 -3.36219,6.55791 -5.47813,6.55791 h -2.50464 z m 39.36129,-79.21676 c 3.02565,-5.97083 3.03136,-6.03324 0.55203,-6.03324 -1.08065,0 -2.44648,-0.9 -3.03518,-2 -1.0555,-1.97222 -5,-2.84422 -5,-1.10534 0,1.48575 4.04688,14.10534 4.52333,14.10534 0.24364,0 1.57556,-2.23504 2.95982,-4.96676 z m 18.63865,-14.28324 c 25.86842,-51.58546 73.08927,-131.40671 105.74536,-178.75 10.01576,-14.52038 35.41552,-48.19167 45.63787,-60.500015 9.45064,-11.379147 31.4087,-35.297984 36.03244,-39.249999 1.44784,-1.2375 2.18263,-2.25 1.63287,-2.25 -0.54976,0 -6.82537,5.612613 -13.94581,12.472474 -7.12044,6.859861 -13.23386,12.184861 -13.58539,11.833333 -0.35153,-0.351527 -0.63914,-0.08662 -0.63914,0.588684 0,0.675304 -5.67601,7.837804 -12.61337,15.916668 -13.95474,16.250935 -41.81585,53.040235 -56.56305,74.688855 -25.3609,37.22933 -57.94213,91.54751 -86.07442,143.5 -14.89489,27.5067 -15.36768,28.5498 -13.79762,30.44161 0.71134,0.85712 1.68415,1.55839 2.16179,1.55839 0.47764,0 3.18145,-4.6125 6.00847,-10.25 z m -24.1218,-2.55383 c 0,-0.99211 -1.58212,-3.33729 -3.51582,-5.2115 l -3.51582,-3.40767 1.50499,4.9615 c 0.82775,2.72882 1.50987,5.074 1.51583,5.2115 0.006,0.1375 0.91082,0.25 2.01082,0.25 1.26083,0 2,-0.66667 2,-1.80383 z m 4,-36.4256 c 0,-0.58531 -0.63541,-0.48812 -1.5,0.22943 -0.825,0.68469 -1.5,1.40067 -1.5,1.59106 0,0.19039 0.675,0.0871 1.5,-0.22943 0.825,-0.31659 1.5,-1.03256 1.5,-1.59106 z m 218.75,-213.45991 c -0.9625,-0.251527 -2.5375,-0.251527 -3.5,0 -0.9625,0.251528 -0.175,0.457323 1.75,0.457323 1.925,0 2.7125,-0.205795 1.75,-0.457323 z m -24,-1.026928 c -1.5125,-0.229125 -3.9875,-0.229125 -5.5,0 -1.5125,0.229124 -0.275,0.41659 2.75,0.41659 3.025,0 4.2625,-0.187466 2.75,-0.41659 z m 9.5,0.01052 c -1.2375,-0.238353 -3.2625,-0.238353 -4.5,0 -1.2375,0.238353 -0.225,0.433369 2.25,0.433369 2.475,0 3.4875,-0.195016 2.25,-0.433369 z"
       id="path1" />
  </g>
</svg>
