<svg version="1.1" id="Layer_1" xmlns="http://www.w3.org/2000/svg" xmlns:xlink="http://www.w3.org/1999/xlink" x="0px" y="0px"
	 width="100%" viewBox="0 0 1000 1000" enable-background="new 0 0 1000 1000" xml:space="preserve">
<path fill="none" opacity="1.000000" stroke="none" 
	d="
M1.000000,338.000000 
	C1.000000,225.333344 1.000000,113.166695 1.000000,1.000030 
	C334.333282,1.000020 667.666565,1.000020 1000.999878,1.000010 
	C1000.999878,334.333221 1000.999878,667.666443 1000.999939,1000.999756 
	C667.666809,1000.999878 334.333588,1000.999878 1.000199,1000.999939 
	C1.000000,780.166687 1.000000,559.333313 1.000000,338.000000 
M131.004425,739.963867 
	C131.005417,804.130066 130.966003,868.296326 131.045181,932.462402 
	C131.059189,943.815674 135.897888,953.899048 143.113861,961.890747 
	C153.911850,973.849915 167.814484,980.049561 184.561676,980.040771 
	C437.726532,979.908203 690.891479,979.948608 944.056396,979.948303 
	C945.556396,979.948303 947.062134,979.860291 948.555115,979.961792 
	C951.725769,980.177551 953.110291,978.860168 953.027283,975.596436 
	C952.887634,970.100891 952.998535,964.599121 952.998535,959.099976 
	C952.999084,716.601624 953.014648,474.103302 952.969238,231.604980 
	C952.965637,212.161697 952.540283,192.718491 952.310852,173.275253 
	C932.740601,172.852203 913.170410,172.427277 893.600037,172.008438 
	C891.101624,171.954971 888.602539,171.933426 886.016113,170.976349 
	C886.010864,138.173676 885.969238,105.370941 886.016479,72.568336 
	C886.038330,57.408714 880.068848,44.995178 868.938660,34.995358 
	C860.729370,27.619638 850.494812,24.933472 839.020874,23.030178 
	C627.017456,23.020168 415.014069,23.008444 203.010681,23.037418 
	C201.629349,23.037607 200.248093,23.601704 198.367706,24.070059 
	C198.193405,24.365404 198.019104,24.660751 197.098831,24.996441 
	C192.709610,27.438999 188.278015,29.808887 183.939651,32.338665 
	C173.669968,38.327103 163.376038,44.278690 153.217789,50.452320 
	C138.980301,59.105110 124.905754,68.026009 110.668839,76.679756 
	C100.283134,82.992599 89.676804,88.943001 79.303864,95.276146 
	C72.169395,99.632050 65.623169,105.132317 58.119350,108.631310 
	C53.938953,110.580612 52.936447,112.388206 52.937744,116.470573 
	C53.007812,336.896454 52.996452,557.322327 53.053860,777.748230 
	C53.054382,779.753113 53.867737,781.757812 54.301609,783.762634 
	C56.414436,783.075928 58.547642,782.443787 60.626827,781.666992 
	C61.202663,781.451843 61.574028,780.743530 62.114094,780.369629 
	C66.153992,777.572632 70.052559,774.525085 74.296242,772.077698 
	C85.681915,765.511658 97.286842,759.325684 108.669632,752.754761 
	C116.233818,748.388123 123.565811,743.619202 131.004425,739.963867 
z"/>
<path fill="#3AA5CC" opacity="1.000000" stroke="none" 
	d="
M839.935852,23.177982 
	C850.494812,24.933472 860.729370,27.619638 868.938660,34.995358 
	C880.068848,44.995178 886.038330,57.408714 886.016479,72.568336 
	C885.969238,105.370941 886.010864,138.173676 885.962158,171.852295 
	C885.559814,175.684601 884.909058,178.640823 884.908081,181.597290 
	C884.890564,234.760696 884.994202,287.924103 884.986877,341.087524 
	C884.971375,454.581207 884.908142,568.074890 884.854980,681.568604 
	C884.853943,683.732788 884.720154,685.896667 884.675842,688.061218 
	C884.578857,692.795166 882.335022,694.821106 877.456177,694.742432 
	C866.127136,694.559753 854.792236,694.766785 843.459717,694.767090 
	C631.304260,694.773315 419.148773,694.775024 206.993286,694.740784 
	C204.524872,694.740356 202.056519,694.255371 199.649109,693.616577 
	C199.788193,691.075745 199.951431,688.914124 199.931458,686.754211 
	C199.674500,658.953918 199.167160,631.154053 199.152405,603.353821 
	C199.073196,454.106445 199.115036,304.859009 199.114960,155.611618 
	C199.114929,115.134926 199.142075,74.658180 199.059540,34.181652 
	C199.053268,31.105656 198.267960,28.031246 197.844788,24.956099 
	C198.019104,24.660751 198.193405,24.365404 199.092041,24.015842 
	C199.982910,23.967308 200.149445,23.977959 200.315964,23.977966 
	C411.736816,23.988619 623.157715,24.000608 834.578552,23.974154 
	C836.364319,23.973930 838.150085,23.454826 839.935852,23.177982 
M618.965942,183.364105 
	C616.033691,194.293594 613.062195,205.212723 610.176208,216.154434 
	C600.703857,252.067734 591.274170,287.992310 581.806152,323.906799 
	C571.873108,361.585419 561.953552,399.267700 551.943115,436.925781 
	C549.019836,447.922974 545.805725,458.842865 542.724854,469.798157 
	C542.207275,469.830811 541.689636,469.863495 541.172058,469.896149 
	C539.887512,464.879517 538.580566,459.868469 537.321899,454.845367 
	C526.633118,412.190521 515.965698,369.530334 505.267273,326.877930 
	C493.109467,278.407227 480.867462,229.957458 468.852814,181.451340 
	C467.753082,177.011566 465.835114,175.712799 461.381134,175.735519 
	C427.217651,175.909714 393.052917,175.829178 358.888550,175.831772 
	C351.098541,175.832367 351.069763,175.839630 351.091034,183.427917 
	C351.195221,220.587860 351.374115,257.747681 351.416779,294.907684 
	C351.474182,344.904205 351.441345,394.900909 351.419495,444.897522 
	C351.416351,452.060486 351.197205,459.223236 351.181915,466.386322 
	C351.128143,491.550659 351.151184,516.715210 351.052917,541.879272 
	C351.041046,544.916382 352.190491,545.971558 355.173065,545.962891 
	C378.837891,545.894104 402.503082,545.902954 426.168030,545.952148 
	C428.927490,545.957886 430.037109,544.895447 430.006989,542.109375 
	C429.951141,536.946472 430.201416,531.781067 430.202515,526.616699 
	C430.217987,453.954926 430.212952,381.293182 430.212891,308.631409 
	C430.212891,306.828583 430.212891,305.025787 430.212891,303.222961 
	C430.739563,303.183472 431.266235,303.143982 431.792938,303.104492 
	C433.373901,308.482605 435.085907,313.826202 436.514679,319.244446 
	C446.196045,355.958832 455.794220,392.695129 465.465027,429.412323 
	C475.223541,466.462555 485.121063,503.476624 494.707092,540.571289 
	C495.819031,544.874268 497.635376,546.051392 501.859009,546.021851 
	C527.022766,545.845703 552.189087,545.836487 577.352600,546.030151 
	C581.594421,546.062744 583.461548,544.817993 584.540527,540.621887 
	C596.479736,494.192261 608.611572,447.812225 620.685547,401.417236 
	C627.775696,374.173004 634.844971,346.923340 641.959229,319.685364 
	C642.538086,317.468964 643.392822,315.324646 644.119446,313.146851 
	C644.560486,313.240143 645.001526,313.333435 645.442566,313.426727 
	C645.442566,316.059540 645.442566,318.692322 645.442627,321.325104 
	C645.442993,394.153534 645.483826,466.981995 645.351746,539.810181 
	C645.343079,544.589539 646.692383,546.080322 651.543152,546.037659 
	C676.706177,545.816406 701.873352,545.805603 727.036072,546.043762 
	C732.008423,546.090759 733.096802,544.410461 733.092346,539.747375 
	C732.978699,420.588837 732.973816,301.430176 733.104187,182.271698 
	C733.109619,177.287994 731.841064,175.688187 726.701721,175.721741 
	C693.705322,175.937180 660.705505,175.982864 627.710449,175.681641 
	C622.202148,175.631363 619.649353,177.325073 618.965942,183.364105 
z"/>
<path fill="#36687F" opacity="1.000000" stroke="none" 
	d="
M199.588120,693.996582 
	C202.056519,694.255371 204.524872,694.740356 206.993286,694.740784 
	C419.148773,694.775024 631.304260,694.773315 843.459717,694.767090 
	C854.792236,694.766785 866.127136,694.559753 877.456177,694.742432 
	C882.335022,694.821106 884.578857,692.795166 884.675842,688.061218 
	C884.720154,685.896667 884.853943,683.732788 884.854980,681.568604 
	C884.908142,568.074890 884.971375,454.581207 884.986877,341.087524 
	C884.994202,287.924103 884.890564,234.760696 884.908081,181.597290 
	C884.909058,178.640823 885.559814,175.684601 886.005981,172.312668 
	C888.602539,171.933426 891.101624,171.954971 893.600037,172.008438 
	C913.170410,172.427277 932.740601,172.852203 952.310913,173.275238 
	C952.540283,192.718491 952.965637,212.161697 952.969238,231.604980 
	C953.014648,474.103302 952.999084,716.601624 952.998535,959.099976 
	C952.998535,964.599121 952.887634,970.100891 953.027283,975.596436 
	C953.110291,978.860168 951.725769,980.177551 948.555115,979.961792 
	C947.062134,979.860291 945.556396,979.948303 944.056396,979.948303 
	C690.891479,979.948608 437.726532,979.908203 184.561676,980.040771 
	C167.814484,980.049561 153.911850,973.849915 143.113861,961.890747 
	C135.897888,953.899048 131.059189,943.815674 131.045181,932.462402 
	C130.966003,868.296326 131.005417,804.130066 131.110168,739.165283 
	C133.324905,736.164856 135.087524,733.403687 137.597580,731.849609 
	C158.182434,719.104919 178.906387,706.584839 199.588120,693.996582 
z"/>
<path fill="#7FC5DE" opacity="1.000000" stroke="none" 
	d="
M199.649109,693.616577 
	C178.906387,706.584839 158.182434,719.104919 137.597580,731.849609 
	C135.087524,733.403687 133.324905,736.164856 131.108826,738.698486 
	C123.565811,743.619202 116.233818,748.388123 108.669632,752.754761 
	C97.286842,759.325684 85.681915,765.511658 74.296242,772.077698 
	C70.052559,774.525085 66.153992,777.572632 62.114094,780.369629 
	C61.574028,780.743530 61.202663,781.451843 60.626827,781.666992 
	C58.547642,782.443787 56.414436,783.075928 54.301605,783.762573 
	C53.867737,781.757812 53.054382,779.753113 53.053860,777.748230 
	C52.996452,557.322327 53.007812,336.896454 52.937744,116.470573 
	C52.936447,112.388206 53.938953,110.580612 58.119350,108.631310 
	C65.623169,105.132317 72.169395,99.632050 79.303864,95.276146 
	C89.676804,88.943001 100.283134,82.992599 110.668839,76.679756 
	C124.905754,68.026009 138.980301,59.105110 153.217789,50.452320 
	C163.376038,44.278690 173.669968,38.327103 183.939651,32.338665 
	C188.278015,29.808887 192.709610,27.438999 197.471802,24.976269 
	C198.267960,28.031246 199.053268,31.105656 199.059540,34.181652 
	C199.142075,74.658180 199.114929,115.134926 199.114960,155.611618 
	C199.115036,304.859009 199.073196,454.106445 199.152405,603.353821 
	C199.167160,631.154053 199.674500,658.953918 199.931458,686.754211 
	C199.951431,688.914124 199.788193,691.075745 199.649109,693.616577 
z"/>
<path fill="#55AAAA" opacity="1.000000" stroke="none" 
	d="
M839.478394,23.104080 
	C838.150085,23.454826 836.364319,23.973930 834.578552,23.974154 
	C623.157715,24.000608 411.736816,23.988619 200.315964,23.977966 
	C200.149445,23.977959 199.982910,23.967308 199.341583,23.932055 
	C200.248093,23.601704 201.629349,23.037607 203.010681,23.037418 
	C415.014069,23.008444 627.017456,23.020168 839.478394,23.104080 
z"/>
<path fill="#FDFEFE" opacity="1.000000" stroke="none" 
	d="
M619.076294,182.971039 
	C619.649353,177.325073 622.202148,175.631363 627.710449,175.681641 
	C660.705505,175.982864 693.705322,175.937180 726.701721,175.721741 
	C731.841064,175.688187 733.109619,177.287994 733.104187,182.271698 
	C732.973816,301.430176 732.978699,420.588837 733.092346,539.747375 
	C733.096802,544.410461 732.008423,546.090759 727.036072,546.043762 
	C701.873352,545.805603 676.706177,545.816406 651.543152,546.037659 
	C646.692383,546.080322 645.343079,544.589539 645.351746,539.810181 
	C645.483826,466.981995 645.442993,394.153534 645.442627,321.325104 
	C645.442566,318.692322 645.442566,316.059540 645.442566,313.426727 
	C645.001526,313.333435 644.560486,313.240143 644.119446,313.146851 
	C643.392822,315.324646 642.538086,317.468964 641.959229,319.685364 
	C634.844971,346.923340 627.775696,374.173004 620.685547,401.417236 
	C608.611572,447.812225 596.479736,494.192261 584.540527,540.621887 
	C583.461548,544.817993 581.594421,546.062744 577.352600,546.030151 
	C552.189087,545.836487 527.022766,545.845703 501.859009,546.021851 
	C497.635376,546.051392 495.819031,544.874268 494.707092,540.571289 
	C485.121063,503.476624 475.223541,466.462555 465.465027,429.412323 
	C455.794220,392.695129 446.196045,355.958832 436.514679,319.244446 
	C435.085907,313.826202 433.373901,308.482605 431.792938,303.104492 
	C431.266235,303.143982 430.739563,303.183472 430.212891,303.222961 
	C430.212891,305.025787 430.212891,306.828583 430.212891,308.631409 
	C430.212952,381.293182 430.217987,453.954926 430.202515,526.616699 
	C430.201416,531.781067 429.951141,536.946472 430.006989,542.109375 
	C430.037109,544.895447 428.927490,545.957886 426.168030,545.952148 
	C402.503082,545.902954 378.837891,545.894104 355.173065,545.962891 
	C352.190491,545.971558 351.041046,544.916382 351.052917,541.879272 
	C351.151184,516.715210 351.128143,491.550659 351.181915,466.386322 
	C351.197205,459.223236 351.416351,452.060486 351.419495,444.897522 
	C351.441345,394.900909 351.474182,344.904205 351.416779,294.907684 
	C351.374115,257.747681 351.195221,220.587860 351.091034,183.427917 
	C351.069763,175.839630 351.098541,175.832367 358.888550,175.831772 
	C393.052917,175.829178 427.217651,175.909714 461.381134,175.735519 
	C465.835114,175.712799 467.753082,177.011566 468.852814,181.451340 
	C480.867462,229.957458 493.109467,278.407227 505.267273,326.877930 
	C515.965698,369.530334 526.633118,412.190521 537.321899,454.845367 
	C538.580566,459.868469 539.887512,464.879517 541.172058,469.896149 
	C541.689636,469.863495 542.207275,469.830811 542.724854,469.798157 
	C545.805725,458.842865 549.019836,447.922974 551.943115,436.925781 
	C561.953552,399.267700 571.873108,361.585419 581.806152,323.906799 
	C591.274170,287.992310 600.703857,252.067734 610.176208,216.154434 
	C613.062195,205.212723 616.033691,194.293594 619.076294,182.971039 
z"/>
</svg>