<svg version="1.1" id="Layer_1" xmlns="http://www.w3.org/2000/svg" xmlns:xlink="http://www.w3.org/1999/xlink" x="0px" y="0px"
	 width="100%" viewBox="0 0 256 256" enable-background="new 0 0 256 256" xml:space="preserve">
<path fill="none" opacity="1.000000" stroke="none" 
	d="
M146.000000,257.000000 
	C97.333336,257.000000 49.166672,257.000000 1.000006,257.000000 
	C1.000004,171.666672 1.000004,86.333351 1.000002,1.000018 
	C86.333321,1.000012 171.666641,1.000012 257.000000,1.000006 
	C257.000000,86.333313 257.000000,171.666626 257.000000,256.999969 
	C220.166672,257.000000 183.333328,257.000000 146.000000,257.000000 
M34.912910,153.302551 
	C34.912910,144.592972 34.912910,135.883392 34.912910,127.173820 
	C35.478649,126.925766 36.044392,126.677711 36.610130,126.429657 
	C42.596958,133.077667 48.583790,139.725693 55.706711,147.635269 
	C62.842270,139.924637 69.051247,133.215256 75.260216,126.505875 
	C75.655006,126.697273 76.049805,126.888664 76.444595,127.080063 
	C76.444595,137.612137 76.444595,148.144196 76.444595,158.652161 
	C80.526245,158.652161 83.954491,158.652161 87.651505,158.652161 
	C87.651505,138.531296 87.651505,118.702972 87.651505,97.167320 
	C76.475967,108.722626 66.287796,119.257019 54.934082,130.996552 
	C44.006916,119.857918 33.867401,109.522179 23.651793,99.108864 
	C23.651793,119.114166 23.651793,138.992477 23.651793,159.063461 
	C27.512188,159.063461 31.058346,159.063461 34.912838,159.063461 
	C34.912838,157.210602 34.912838,155.725357 34.912910,153.302551 
M224.169647,138.350113 
	C221.452728,135.653320 218.905945,132.751785 215.973221,130.314697 
	C212.743301,127.630638 212.825485,125.628754 215.899109,122.781189 
	C222.835190,116.355247 229.483017,109.618156 236.507889,102.753830 
	C233.390244,99.670853 230.840790,97.149742 227.069870,93.420753 
	C219.350204,101.814110 211.867081,109.950272 203.559875,118.982422 
	C195.389038,110.336105 187.888290,102.398880 180.512497,94.593887 
	C177.291687,97.429398 174.642380,99.761757 170.838135,103.110886 
	C179.415329,111.308670 187.306778,118.851044 195.661087,126.835808 
	C187.762558,134.498489 180.041428,141.989059 172.538879,149.267593 
	C175.423920,152.549789 177.797165,155.249771 181.223373,159.147644 
	C189.018082,150.900146 196.501175,142.982361 205.083801,133.901199 
	C212.876846,142.273514 220.189209,150.129425 227.067963,157.519485 
	C230.203659,154.823532 232.809784,152.582886 236.179291,149.685913 
	C232.124588,145.881851 228.386276,142.374634 224.169647,138.350113 
M114.813210,143.686432 
	C120.494827,149.499832 126.176453,155.313248 131.608490,160.871292 
	C141.865524,150.639328 151.606186,140.922470 161.695938,130.857376 
	C159.468048,128.751572 156.866776,126.292854 153.114136,122.745865 
	C148.560425,127.943008 144.048752,133.092178 139.537064,138.241364 
	C139.064713,137.977127 138.592361,137.712906 138.120010,137.448685 
	C138.120010,123.754410 138.120010,110.060143 138.120010,96.247604 
	C134.032089,96.247604 130.602127,96.247604 126.348923,96.247604 
	C126.348923,110.276886 126.348923,124.042999 126.348923,137.809113 
	C125.731232,138.143204 125.113533,138.477295 124.495842,138.811401 
	C120.084557,133.647034 115.673271,128.482666 111.277489,123.336456 
	C107.937164,126.450882 105.345581,128.867188 102.517273,131.504227 
	C106.759758,135.705917 110.536316,139.446167 114.813210,143.686432 
z"/>
<path fill="#F2F2F3" opacity="1.000000" stroke="none" 
	d="
M34.912872,153.771332 
	C34.912838,155.725357 34.912838,157.210602 34.912838,159.063461 
	C31.058346,159.063461 27.512188,159.063461 23.651793,159.063461 
	C23.651793,138.992477 23.651793,119.114166 23.651793,99.108864 
	C33.867401,109.522179 44.006916,119.857918 54.934082,130.996552 
	C66.287796,119.257019 76.475967,108.722626 87.651505,97.167320 
	C87.651505,118.702972 87.651505,138.531296 87.651505,158.652161 
	C83.954491,158.652161 80.526245,158.652161 76.444595,158.652161 
	C76.444595,148.144196 76.444595,137.612137 76.444595,127.080063 
	C76.049805,126.888664 75.655006,126.697273 75.260216,126.505875 
	C69.051247,133.215256 62.842270,139.924637 55.706711,147.635269 
	C48.583790,139.725693 42.596958,133.077667 36.610130,126.429657 
	C36.044392,126.677711 35.478649,126.925766 34.912910,127.173820 
	C34.912910,135.883392 34.912910,144.592972 34.912872,153.771332 
z"/>
<path fill="#F1AC2A" opacity="1.000000" stroke="none" 
	d="
M224.408813,138.608765 
	C228.386276,142.374634 232.124588,145.881851 236.179291,149.685913 
	C232.809784,152.582886 230.203659,154.823532 227.067963,157.519485 
	C220.189209,150.129425 212.876846,142.273514 205.083801,133.901199 
	C196.501175,142.982361 189.018082,150.900146 181.223373,159.147644 
	C177.797165,155.249771 175.423920,152.549789 172.538879,149.267593 
	C180.041428,141.989059 187.762558,134.498489 195.661087,126.835808 
	C187.306778,118.851044 179.415329,111.308670 170.838135,103.110886 
	C174.642380,99.761757 177.291687,97.429398 180.512497,94.593887 
	C187.888290,102.398880 195.389038,110.336105 203.559875,118.982422 
	C211.867081,109.950272 219.350204,101.814110 227.069870,93.420753 
	C230.840790,97.149742 233.390244,99.670853 236.507889,102.753830 
	C229.483017,109.618156 222.835190,116.355247 215.899109,122.781189 
	C212.825485,125.628754 212.743301,127.630638 215.973221,130.314697 
	C218.905945,132.751785 221.452728,135.653320 224.408813,138.608765 
z"/>
<path fill="#F5F5F5" opacity="1.000000" stroke="none" 
	d="
M114.563034,143.436432 
	C110.536316,139.446167 106.759758,135.705917 102.517273,131.504227 
	C105.345581,128.867188 107.937164,126.450882 111.277489,123.336456 
	C115.673271,128.482666 120.084557,133.647034 124.495842,138.811401 
	C125.113533,138.477295 125.731232,138.143204 126.348923,137.809113 
	C126.348923,124.042999 126.348923,110.276886 126.348923,96.247604 
	C130.602127,96.247604 134.032089,96.247604 138.120010,96.247604 
	C138.120010,110.060143 138.120010,123.754410 138.120010,137.448685 
	C138.592361,137.712906 139.064713,137.977127 139.537064,138.241364 
	C144.048752,133.092178 148.560425,127.943008 153.114136,122.745865 
	C156.866776,126.292854 159.468048,128.751572 161.695938,130.857376 
	C151.606186,140.922470 141.865524,150.639328 131.608490,160.871292 
	C126.176453,155.313248 120.494827,149.499832 114.563034,143.436432 
z"/>
</svg>