<svg version="1.1" id="Layer_1" xmlns="http://www.w3.org/2000/svg" xmlns:xlink="http://www.w3.org/1999/xlink" x="0px" y="0px"
	 width="100%" viewBox="0 0 256 256" enable-background="new 0 0 256 256" xml:space="preserve">
<path fill="none" opacity="1.000000" stroke="none" 
	d="
M257.000000,94.000000 
	C257.000000,148.666672 257.000000,202.833328 257.000000,257.000000 
	C171.666672,257.000000 86.333336,257.000000 1.000000,257.000000 
	C1.000000,171.666672 1.000000,86.333336 1.000000,1.000000 
	C86.333336,1.000000 171.666672,1.000000 257.000000,1.000000 
	C257.000000,31.833334 257.000000,62.666668 257.000000,94.000000 
M88.746284,93.505951 
	C89.396431,123.471321 90.037331,153.436905 90.705597,183.401855 
	C90.820305,188.545334 94.314667,190.223099 99.202560,187.377716 
	C128.567520,170.283554 157.912689,153.155350 187.245712,136.006454 
	C191.319687,133.624710 191.462967,126.635254 187.494827,124.280327 
	C157.271133,106.343925 127.043007,88.414703 96.740265,70.612610 
	C95.392715,69.820953 92.696007,69.524574 91.708107,70.327225 
	C90.061584,71.664993 88.423477,74.034142 88.317162,76.049995 
	C88.029022,81.513466 88.547310,87.019470 88.746284,93.505951 
M193.240997,60.263172 
	C192.057312,48.545258 190.873627,36.827343 189.628799,24.504206 
	C187.455566,25.115587 185.713409,25.480925 184.060867,26.089613 
	C164.385239,33.336811 144.725967,40.628460 125.055794,47.890514 
	C116.005035,51.231972 106.951721,54.567333 97.874794,57.836674 
	C94.515205,59.046734 94.362572,60.572128 97.177643,62.576393 
	C98.125130,63.250984 99.148888,63.820881 100.152069,64.414482 
	C121.355644,76.961029 142.565872,89.496338 163.764465,102.051300 
	C173.648987,107.905472 183.472107,113.865349 193.430435,119.590530 
	C194.802475,120.379341 196.949127,120.558441 198.431488,120.077553 
	C199.081985,119.866524 199.296585,117.254517 199.145569,115.790848 
	C197.266632,97.578598 195.283875,79.377060 193.240997,60.263172 
M161.018631,224.445724 
	C170.380295,228.251450 179.741959,232.057159 189.571854,236.053223 
	C192.922028,204.378632 196.203552,173.353119 199.657394,140.698410 
	C196.184891,141.220718 193.154037,140.888550 191.020935,142.116257 
	C161.455154,159.132889 131.999161,176.340759 102.578636,193.608002 
	C101.079895,194.487610 100.145119,196.328094 98.947754,197.721207 
	C100.292816,198.768005 101.487206,200.180634 103.005806,200.806091 
	C122.077866,208.660950 141.196808,216.402008 161.018631,224.445724 
M45.513023,160.998459 
	C56.378757,169.525681 67.225296,178.077652 78.140152,186.541534 
	C79.220444,187.379242 80.718262,187.678497 82.022293,188.227676 
	C82.473648,186.777832 83.335266,185.322067 83.314369,183.879059 
	C83.035004,164.584290 82.649620,145.290955 82.254951,125.997993 
	C81.911293,109.198586 81.590714,92.397865 81.044807,75.604729 
	C80.992081,73.982635 79.724960,72.027367 78.417870,70.980598 
	C77.792343,70.479652 75.447433,71.380531 74.399307,72.262291 
	C52.752258,90.473427 31.193142,108.789062 9.554609,127.010368 
	C8.441208,127.947937 6.774299,128.228195 4.833819,129.035507 
	C19.574713,140.636566 32.251854,150.613449 45.513023,160.998459 
M243.685623,109.833847 
	C228.776535,84.001572 213.867432,58.169296 198.958344,32.337025 
	C197.930649,34.567364 197.938873,36.465034 198.130798,38.343937 
	C199.768265,54.372730 201.445999,70.397400 203.097351,86.424782 
	C204.153000,96.670433 205.163818,106.920738 206.234528,117.164795 
	C206.848907,123.042870 209.534210,126.283455 214.005112,126.308426 
	C225.817276,126.374405 237.630157,126.338089 249.442581,126.295120 
	C250.320465,126.291924 251.196960,125.911461 252.676926,125.565445 
	C249.617844,120.202568 246.840179,115.333031 243.685623,109.833847 
M130.156982,219.422394 
	C119.679504,215.180725 109.207054,210.926559 98.720093,206.708450 
	C96.732025,205.908783 86.331520,207.947510 85.446930,209.565186 
	C79.981987,219.559052 74.669319,229.636185 68.999725,240.259613 
	C106.124344,240.259613 142.407486,240.259613 178.690613,240.259613 
	C178.795486,239.979080 178.900360,239.698547 179.005234,239.417999 
	C162.953934,232.863083 146.902649,226.308167 130.156982,219.422394 
M203.962936,218.453018 
	C220.078461,190.544113 236.193970,162.635223 252.707977,134.036224 
	C250.210114,133.905121 248.624786,133.753464 247.039124,133.749878 
	C237.210159,133.727631 227.381104,133.737991 217.552078,133.738876 
	C211.015289,133.739471 206.816071,137.769958 206.142334,144.400635 
	C203.534531,170.066193 200.854721,195.724457 198.222794,221.387589 
	C198.023865,223.327194 197.990143,225.283722 197.879639,227.232391 
	C198.221985,227.254440 198.564331,227.276505 198.906677,227.298553 
	C200.472336,224.563660 202.037994,221.828766 203.962936,218.453018 
M53.178993,222.337036 
	C56.067364,227.299225 58.955734,232.261398 62.225697,237.879150 
	C67.779724,227.554779 72.833031,218.203629 77.841888,208.828720 
	C79.761436,205.235962 77.432739,194.935089 74.191612,192.399643 
	C53.609253,176.298538 33.028835,160.194962 12.433576,144.110382 
	C10.875196,142.893311 9.206742,141.817184 7.589456,140.675537 
	C7.270697,141.013412 6.951937,141.351288 6.633177,141.689163 
	C22.036320,168.353683 37.439461,195.018188 53.178993,222.337036 
M150.416504,30.942446 
	C160.086441,27.391191 169.756378,23.839937 179.426300,20.288685 
	C179.313904,20.008886 179.201492,19.729090 179.089096,19.449291 
	C142.512772,19.449291 105.936440,19.449291 68.599007,19.449291 
	C69.728050,21.873545 70.503975,23.657160 71.376526,25.392183 
	C74.663391,31.927937 78.060623,38.409389 81.266647,44.984261 
	C84.655075,51.933186 88.611359,53.775795 95.902863,51.111595 
	C113.858673,44.550827 131.767639,37.861843 150.416504,30.942446 
M75.054321,56.750790 
	C75.634972,55.126999 77.163925,53.064709 76.647629,51.948139 
	C72.144394,42.209332 67.275070,32.639797 61.968632,21.917000 
	C42.833073,55.088428 24.275383,87.258118 5.717695,119.427811 
	C7.754679,119.292412 8.804674,118.510925 9.801140,117.666275 
	C28.830500,101.536095 47.817402,85.355492 66.908310,69.298538 
	C70.745102,66.071503 74.677177,63.111473 75.054321,56.750790 
z"/>
<path fill="#065AA7" opacity="1.000000" stroke="none" 
	d="
M88.746048,93.007278 
	C88.547310,87.019470 88.029022,81.513466 88.317162,76.049995 
	C88.423477,74.034142 90.061584,71.664993 91.708107,70.327225 
	C92.696007,69.524574 95.392715,69.820953 96.740265,70.612610 
	C127.043007,88.414703 157.271133,106.343925 187.494827,124.280327 
	C191.462967,126.635254 191.319687,133.624710 187.245712,136.006454 
	C157.912689,153.155350 128.567520,170.283554 99.202560,187.377716 
	C94.314667,190.223099 90.820305,188.545334 90.705597,183.401855 
	C90.037331,153.436905 89.396431,123.471321 88.746048,93.007278 
z"/>
<path fill="#2E7ED3" opacity="1.000000" stroke="none" 
	d="
M193.284393,60.717972 
	C195.283875,79.377060 197.266632,97.578598 199.145569,115.790848 
	C199.296585,117.254517 199.081985,119.866524 198.431488,120.077553 
	C196.949127,120.558441 194.802475,120.379341 193.430435,119.590530 
	C183.472107,113.865349 173.648987,107.905472 163.764465,102.051300 
	C142.565872,89.496338 121.355644,76.961029 100.152069,64.414482 
	C99.148888,63.820881 98.125130,63.250984 97.177643,62.576393 
	C94.362572,60.572128 94.515205,59.046734 97.874794,57.836674 
	C106.951721,54.567333 116.005035,51.231972 125.055794,47.890514 
	C144.725967,40.628460 164.385239,33.336811 184.060867,26.089613 
	C185.713409,25.480925 187.455566,25.115587 189.628799,24.504206 
	C190.873627,36.827343 192.057312,48.545258 193.284393,60.717972 
z"/>
<path fill="#134292" opacity="1.000000" stroke="none" 
	d="
M160.661194,224.308960 
	C141.196808,216.402008 122.077866,208.660950 103.005806,200.806091 
	C101.487206,200.180634 100.292816,198.768005 98.947754,197.721207 
	C100.145119,196.328094 101.079895,194.487610 102.578636,193.608002 
	C131.999161,176.340759 161.455154,159.132889 191.020935,142.116257 
	C193.154037,140.888550 196.184891,141.220718 199.657394,140.698410 
	C196.203552,173.353119 192.922028,204.378632 189.571854,236.053223 
	C179.741959,232.057159 170.380295,228.251450 160.661194,224.308960 
z"/>
<path fill="#134191" opacity="1.000000" stroke="none" 
	d="
M45.221008,160.794403 
	C32.251854,150.613449 19.574713,140.636566 4.833819,129.035507 
	C6.774299,128.228195 8.441208,127.947937 9.554609,127.010368 
	C31.193142,108.789062 52.752258,90.473427 74.399307,72.262291 
	C75.447433,71.380531 77.792343,70.479652 78.417870,70.980598 
	C79.724960,72.027367 80.992081,73.982635 81.044807,75.604729 
	C81.590714,92.397865 81.911293,109.198586 82.254951,125.997993 
	C82.649620,145.290955 83.035004,164.584290 83.314369,183.879059 
	C83.335266,185.322067 82.473648,186.777832 82.022293,188.227692 
	C80.718262,187.678497 79.220444,187.379242 78.140152,186.541534 
	C67.225296,178.077652 56.378757,169.525681 45.221008,160.794403 
z"/>
<path fill="#45A6ED" opacity="1.000000" stroke="none" 
	d="
M243.874069,110.148666 
	C246.840179,115.333031 249.617844,120.202568 252.676926,125.565445 
	C251.196960,125.911461 250.320465,126.291924 249.442581,126.295120 
	C237.630157,126.338089 225.817276,126.374405 214.005112,126.308426 
	C209.534210,126.283455 206.848907,123.042870 206.234528,117.164795 
	C205.163818,106.920738 204.153000,96.670433 203.097351,86.424782 
	C201.445999,70.397400 199.768265,54.372730 198.130798,38.343937 
	C197.938873,36.465034 197.930649,34.567364 198.958344,32.337025 
	C213.867432,58.169296 228.776535,84.001572 243.874069,110.148666 
z"/>
<path fill="#1C365E" opacity="1.000000" stroke="none" 
	d="
M130.504166,219.587830 
	C146.902649,226.308167 162.953934,232.863083 179.005234,239.417999 
	C178.900360,239.698547 178.795486,239.979080 178.690613,240.259613 
	C142.407486,240.259613 106.124344,240.259613 68.999725,240.259613 
	C74.669319,229.636185 79.981987,219.559052 85.446930,209.565186 
	C86.331520,207.947510 96.732025,205.908783 98.720093,206.708450 
	C109.207054,210.926559 119.679504,215.180725 130.504166,219.587830 
z"/>
<path fill="#0870C1" opacity="1.000000" stroke="none" 
	d="
M203.783295,218.773438 
	C202.037994,221.828766 200.472336,224.563660 198.906677,227.298553 
	C198.564331,227.276505 198.221985,227.254440 197.879639,227.232391 
	C197.990143,225.283722 198.023865,223.327194 198.222794,221.387589 
	C200.854721,195.724457 203.534531,170.066193 206.142334,144.400635 
	C206.816071,137.769958 211.015289,133.739471 217.552078,133.738876 
	C227.381104,133.737991 237.210159,133.727631 247.039124,133.749878 
	C248.624786,133.753464 250.210114,133.905121 252.707977,134.036224 
	C236.193970,162.635223 220.078461,190.544113 203.783295,218.773438 
z"/>
<path fill="#1B3D73" opacity="1.000000" stroke="none" 
	d="
M53.010796,222.009872 
	C37.439461,195.018188 22.036320,168.353683 6.633177,141.689163 
	C6.951937,141.351288 7.270697,141.013412 7.589456,140.675537 
	C9.206742,141.817184 10.875196,142.893311 12.433576,144.110382 
	C33.028835,160.194962 53.609253,176.298538 74.191612,192.399643 
	C77.432739,194.935089 79.761436,205.235962 77.841888,208.828720 
	C72.833031,218.203629 67.779724,227.554779 62.225697,237.879150 
	C58.955734,232.261398 56.067364,227.299225 53.010796,222.009872 
z"/>
<path fill="#47A7ED" opacity="1.000000" stroke="none" 
	d="
M150.055969,31.083431 
	C131.767639,37.861843 113.858673,44.550827 95.902863,51.111595 
	C88.611359,53.775795 84.655075,51.933186 81.266647,44.984261 
	C78.060623,38.409389 74.663391,31.927937 71.376526,25.392183 
	C70.503975,23.657160 69.728050,21.873545 68.599007,19.449291 
	C105.936440,19.449291 142.512772,19.449291 179.089096,19.449291 
	C179.201492,19.729090 179.313904,20.008886 179.426300,20.288685 
	C169.756378,23.839937 160.086441,27.391191 150.055969,31.083431 
z"/>
<path fill="#077CD4" opacity="1.000000" stroke="none" 
	d="
M74.900764,57.114689 
	C74.677177,63.111473 70.745102,66.071503 66.908310,69.298538 
	C47.817402,85.355492 28.830500,101.536095 9.801140,117.666275 
	C8.804674,118.510925 7.754679,119.292412 5.717695,119.427811 
	C24.275383,87.258118 42.833073,55.088428 61.968632,21.917000 
	C67.275070,32.639797 72.144394,42.209332 76.647629,51.948139 
	C77.163925,53.064709 75.634972,55.126999 74.900764,57.114689 
z"/>
</svg>