<?xml version="1.0" encoding="UTF-8" standalone="no"?>
<!-- Created with Inkscape (http://www.inkscape.org/) -->

<svg
   version="1.1"
   id="svg1"
   width="448"
   height="409.60001"
   viewBox="0 0 448 409.60001"
   sodipodi:docname="oauth.svg"
   inkscape:version="1.3.2 (091e20e, 2023-11-25, custom)"
   xmlns:inkscape="http://www.inkscape.org/namespaces/inkscape"
   xmlns:sodipodi="http://sodipodi.sourceforge.net/DTD/sodipodi-0.dtd"
   xmlns="http://www.w3.org/2000/svg"
   xmlns:svg="http://www.w3.org/2000/svg">
  <defs
     id="defs1" />
  <sodipodi:namedview
     id="namedview1"
     pagecolor="#ffffff"
     bordercolor="#000000"
     borderopacity="0.25"
     inkscape:showpageshadow="2"
     inkscape:pageopacity="0.0"
     inkscape:pagecheckerboard="0"
     inkscape:deskcolor="#d1d1d1"
     inkscape:zoom="0.96069335"
     inkscape:cx="185.80331"
     inkscape:cy="156.65769"
     inkscape:window-width="1920"
     inkscape:window-height="1001"
     inkscape:window-x="-9"
     inkscape:window-y="-9"
     inkscape:window-maximized="1"
     inkscape:current-layer="g1" />
  <g
     inkscape:groupmode="layer"
     inkscape:label="Image"
     id="g1">
    <g
       id="g2"
       style="display:inline"
       transform="matrix(1.0769227,0,0,1.0769227,-14.615362,-12.484669)">
      <path
         style="display:inline;fill:#0a0a0a;stroke-width:1.00053"
         d="m 209.63858,364.22351 c -15.14703,-1.35617 -34.59938,-5.6939 -45.56163,-10.15991 -12.8397,-5.23088 -32.38125,-17.11496 -45.46728,-27.65066 -30.590746,-24.62894 -49.490016,-57.8052 -56.682806,-99.50253 -2.56592,-14.87491 -2.56971,-40.33508 -0.008,-54.72039 4.11019,-23.08204 16.284,-49.85792 32.14286,-70.69713 5.4511,-7.16297 18.883466,-20.700682 26.152116,-26.357214 31.43353,-24.461872 64.28049,-35.70433 104.26218,-35.685589 63.14958,0.0296 114.84254,32.700413 143.03663,90.401543 7.88158,16.1302 12.04461,28.3577 15.50263,45.53374 2.47004,12.26879 2.67126,38.12005 0.39797,51.12562 -6.2992,36.03773 -21.99382,66.55777 -47.19122,91.76888 -24.9208,24.93436 -52.2713,38.66509 -87.6855,44.0206 -10.69566,1.61745 -31.06401,2.62442 -38.89782,1.92304 z m 33.77605,-9.5503 c 22.70156,-2.7671 46.61603,-11.54396 65.27303,-23.95588 22.92231,-15.24952 40.74894,-35.8493 52.56835,-60.74605 15.7193,-33.11156 19.42988,-70.83953 10.40805,-105.82561 -5.14992,-19.97106 -13.4274,-39.78991 -20.82914,-49.87138 -1.93544,-2.63616 -6.50231,-8.22763 -10.14859,-12.42547 C 315.14919,72.448658 285.67726,55.349976 248.93741,48.618985 237.34268,46.494752 210.97381,46.682605 197.55153,48.98506 170.964,53.545879 143.69577,66.71412 119.68714,86.586949 98.611134,104.03233 82.766014,129.60106 73.813504,160.61162 c -3.89103,13.47814 -5.32988,24.33363 -5.32988,40.21183 0,29.384 6.14803,53.99981 19.06009,76.31381 7.70119,13.30881 14.622966,22.69233 23.805266,32.27163 26.38992,27.53089 61.34041,43.52798 101.34248,46.38516 10.09568,0.72109 17.96801,0.4339 30.72317,-1.12084 z m -35.78109,-5.65196 c -1.76444,-0.18689 -6.9976,-1.08116 -11.62924,-1.98724 -38.75208,-7.58101 -74.43555,-31.19263 -95.85703,-63.42822 -10.270236,-15.45492 -18.718316,-36.7992 -22.146556,-55.95382 -2.637,-14.73373 -2.66148,-37.26524 -0.0556,-51.21239 4.5939,-24.58772 14.05235,-45.91552 28.638996,-64.57787 5.79973,-7.42024 18.36348,-19.937205 26.46191,-26.363359 30.0682,-23.859311 69.11845,-35.220393 105.48625,-30.689635 22.11223,2.754775 49.76196,12.635443 65.74434,23.493827 45.0346,30.596377 69.13413,80.346997 64.99466,134.173767 -1.50235,19.53547 -4.46796,30.33374 -14.62991,53.26984 -6.26504,14.14056 -8.18501,17.51093 -14.96469,26.26953 -18.75214,24.22569 -44.70984,42.35656 -73.56731,51.38511 -13.10103,4.09888 -22.79915,5.50369 -39.62838,5.74037 -8.60164,0.12095 -17.08296,0.067 -18.8474,-0.11991 z m 15.15878,-9.0644 c 1.42391,-0.0102 1.49199,-0.5037 1.03187,-7.48061 -0.44842,-6.79964 -0.34572,-7.62678 1.14503,-9.22057 3.1239,-3.33981 7.12583,-0.44847 7.12583,5.14831 0,1.83183 0.22951,4.99842 0.51003,7.03686 0.50668,3.68205 0.53027,3.70627 3.60907,3.70627 h 3.09905 l -0.0585,-4.99273 c -0.1592,-13.57503 -2.21168,-17.36651 -9.73776,-17.98815 -5.87441,-0.48522 -9.94033,1.26795 -11.486,4.95262 -1.21208,2.88941 -1.54001,11.32288 -0.64911,16.69344 0.43548,2.62516 0.7469,2.99478 2.19673,2.60714 0.92911,-0.24842 2.37533,-0.45658 3.2138,-0.46258 z m -24.06677,-3.67101 c 1.09701,-2.84742 0.48224,-4.20588 -2.32025,-5.12711 -1.54388,-0.50751 -2.80583,-1.34421 -2.80434,-1.85934 0.001,-0.51512 0.87641,-4.17189 1.94423,-8.12614 1.06784,-3.95424 1.64743,-7.49173 1.288,-7.86108 -0.35942,-0.36935 -1.82002,-0.72883 -3.24575,-0.79884 -2.84684,-0.13979 -2.32688,-1.15555 -5.93296,11.59026 l -1.28107,4.528 -2.95656,-0.81311 c -2.509,-0.69002 -3.11553,-0.59656 -4.00674,0.61742 -2.30391,3.13829 -1.40783,3.90606 7.5715,6.48739 10.15453,2.91916 11.10188,3.02908 11.74394,1.36255 z m 70.83452,-4.49872 c 3.21713,-1.15871 3.20357,-1.10457 3.80901,-15.20718 0.4365,-10.16743 0.3657,-10.98314 -0.95233,-10.97224 -2.78801,0.0231 -5.41941,1.99217 -5.8319,4.36411 -0.34235,1.96863 -1.00261,2.52019 -4.20113,3.50957 -3.4877,1.07882 -3.92185,1.05947 -5.36229,-0.23893 -1.34732,-1.21449 -1.96839,-1.28095 -4.42466,-0.47352 -1.57154,0.5166 -2.85735,1.27216 -2.85735,1.67904 0,0.71679 16.09302,18.25206 16.78541,18.28972 0.18924,0.0103 1.55509,-0.41747 3.03524,-0.95057 z m -5.25923,-10.47076 -1.87993,-2.00361 1.74812,-0.93185 c 2.20914,-1.17762 2.5885,-0.77785 2.2688,2.39094 l -0.25706,2.54811 z m -96.86461,-6.53381 5.29664,-8.78721 -2.19908,-1.79341 c -1.20949,-0.98639 -2.56752,-1.79521 -3.01784,-1.79739 -0.45032,-0.002 -1.70596,1.61367 -2.79031,3.5908 -1.08435,1.97712 -2.16598,3.59477 -2.40362,3.59477 -0.23765,0 -1.79813,-0.92456 -3.46771,-2.05458 l -3.03563,-2.05458 2.08782,-3.54847 c 1.1483,-1.95166 1.89693,-3.85611 1.66363,-4.2321 -0.50283,-0.81038 -5.21514,-2.84108 -5.56266,-2.39717 -0.13229,0.16899 -2.80366,4.5237 -5.93638,9.67715 l -5.69585,9.36992 2.06017,1.6141 c 2.93054,2.29603 3.90923,2.03595 5.9503,-1.58125 0.99166,-1.75744 2.13199,-3.19535 2.53406,-3.19535 0.57439,0 3.58805,1.83107 6.08869,3.69942 0.16387,0.12243 -0.66168,1.85359 -1.83456,3.84702 l -2.1325,3.62441 2.62318,1.58893 c 3.21766,1.94901 2.88371,2.26223 9.77165,-9.16501 z m 138.10878,-2.83619 c 8.22465,-5.06296 7.94832,-17.50786 -0.48242,-21.72682 -3.74472,-1.87396 -6.94551,-1.76057 -11.23951,0.39817 -8.66585,4.35664 -9.5163,15.77152 -1.57717,21.1692 3.49289,2.37477 9.58179,2.44776 13.2991,0.15945 z m -9.10498,-5.28742 c -1.22958,-0.49276 -3.3917,-4.4783 -3.3917,-6.2521 0,-1.92913 3.68524,-5.19581 5.86156,-5.19581 2.74656,0 6.16869,3.42552 6.16869,6.17481 0,3.48707 -2.05294,5.8187 -5.05808,5.7447 -1.40859,-0.0346 -3.0198,-0.24691 -3.58047,-0.4716 z m -83.12379,-4.76783 c -0.26959,-0.69974 1.55773,-3.20711 4.69219,-6.43848 l 5.13373,-5.29242 5.32665,5.09463 c 3.45559,3.30508 5.20361,5.56335 4.97635,6.42897 -0.25993,0.98998 0.1437,1.30618 1.56401,1.22525 1.05289,-0.06 1.76079,-0.50842 1.57313,-0.99651 -0.18768,-0.4881 2.12421,-3.3243 5.13751,-6.30264 l 5.47872,-5.4152 4.04629,4.27007 c 2.22545,2.34855 4.30986,4.00754 4.63202,3.68666 0.32216,-0.32088 -1.28704,-2.47224 -3.57601,-4.78081 l -4.16174,-4.19739 5.43259,-5.36958 5.43258,-5.36959 5.43751,5.45777 c 4.8401,4.85813 5.29561,5.57508 4.14598,6.52539 -0.71035,0.5872 -1.66875,1.76967 -2.12978,2.6277 -0.99425,1.85041 0.19139,1.35041 3.19598,-1.3478 1.02804,-0.9232 2.02053,-1.58868 2.20555,-1.47884 0.18501,0.10984 0.34539,-0.0699 0.35636,-0.39942 0.011,-0.32952 2.43089,-3.01901 5.37755,-5.97666 l 5.35757,-5.37754 1.84061,1.72231 c 2.12575,1.98913 2.50455,1.10209 0.48061,-1.12547 -1.29853,-1.42916 -1.11889,-1.73699 3.97398,-6.80967 5.26518,-5.24431 5.3552,-5.2937 6.97903,-3.82998 2.13576,1.92518 3.14495,0.93282 1.21335,-1.19311 -1.45941,-1.60623 -1.40515,-1.70704 3.65597,-6.79332 3.88995,-3.90928 5.51366,-5.04393 6.68707,-4.67298 1.22695,0.38787 1.43881,0.20204 1.01723,-0.89223 -0.36381,-0.94431 0.37968,-2.3878 2.34707,-4.55684 3.70203,-4.08146 2.92979,-4.95879 -1.00992,-1.14733 -1.65307,1.59926 -3.26471,2.90774 -3.58141,2.90774 -0.73057,0 -10.29817,-9.55748 -10.29817,-10.28728 0,-0.29874 2.34546,-2.85857 5.21212,-5.6885 l 5.21214,-5.14533 4.7921,4.72331 c 2.63566,2.59781 4.97308,4.54305 5.19425,4.32275 0.22118,-0.2203 -1.57392,-2.34432 -3.98911,-4.72005 -2.41519,-2.37573 -4.39125,-4.6816 -4.39125,-5.12414 0,-0.44256 2.22487,-3.04057 4.94417,-5.77337 l 4.94417,-4.96874 1.99541,1.56337 c 2.58774,2.02745 3.33211,1.27222 1.08953,-1.10543 l -1.73667,-1.84128 2.79085,-2.69428 c 1.53497,-1.48186 2.61041,-2.87402 2.38985,-3.0937 -0.22055,-0.21968 -1.66706,0.82282 -3.21446,2.31668 l -2.81346,2.71611 -5.63301,-5.61069 -5.63301,-5.61069 5.56251,-5.27276 5.56252,-5.27277 3.05873,3.12001 c 4.27388,4.35949 5.28019,3.91819 1.17663,-0.516 l -3.36489,-3.63601 2.46073,-2.50692 c 3.31881,-3.38111 3.15356,-4.78355 -0.184,-1.56149 -1.4546,1.40427 -2.90771,2.55321 -3.22912,2.55321 -0.96248,0 -10.16648,-9.01594 -10.16648,-9.95875 0,-0.47944 2.33332,-3.17512 5.18514,-5.99039 5.10284,-5.03744 5.21104,-5.09533 6.81714,-3.64759 0.89761,0.8091 1.63201,1.07711 1.63201,0.59559 0,-0.48153 -0.36091,-1.09767 -0.80202,-1.36922 -0.44111,-0.27153 -0.80202,-1.2299 -0.80202,-2.1297 0,-1.05256 -0.38966,-1.48707 -1.09263,-1.21838 -1.13366,0.4333 -10.93762,-8.80262 -10.93762,-10.3039 0,-0.45518 1.07895,-1.85721 2.39769,-3.11562 3.357,-3.20347 2.30026,-3.57099 -1.27572,-0.44369 l -2.94198,2.57286 -5.10511,-5.03969 c -2.80783,-2.77183 -5.09917,-5.40955 -5.09189,-5.86161 0.007,-0.45205 1.64724,-2.39378 3.64436,-4.31497 1.9971,-1.92119 3.42645,-3.6969 3.17633,-3.94603 -0.25012,-0.24913 -2.25613,1.31429 -4.45781,3.47427 l -4.00305,3.92722 -5.38329,-5.36195 -5.3833,-5.36195 3.94286,-3.98718 c 2.16857,-2.19295 3.68563,-4.24341 3.37121,-4.55656 -0.3144,-0.31316 -2.373,1.19787 -4.57468,3.35785 l -4.00306,3.92723 -5.38157,-5.36024 -5.38156,-5.36024 3.53846,-3.59114 c 1.94615,-1.97512 3.35706,-3.77181 3.13535,-3.99264 -0.2217,-0.22083 -1.80629,1.0298 -3.52131,2.77919 -1.71503,1.74937 -3.50654,3.18068 -3.98115,3.18068 -0.4746,0 -3.17024,-2.31879 -5.99029,-5.15285 l -5.12737,-5.15286 1.94247,-1.5685 c 1.06836,-0.86268 1.67037,-1.84052 1.33781,-2.17297 -0.33258,-0.33247 -1.43353,0.1711 -2.44656,1.11902 l -1.84188,1.72349 -3.93943,-3.98371 c -2.16669,-2.19105 -4.30158,-3.98373 -4.7442,-3.98373 -0.44263,0 1.15651,1.97809 3.55363,4.39574 l 4.35841,4.39573 -5.16465,5.19032 c -2.84056,2.85468 -5.47685,5.19032 -5.85842,5.19032 -0.94091,0 -5.78771,-4.58287 -8.31811,-7.86517 l -2.06048,-2.67272 4.66514,-4.69564 c 2.56582,-2.5826 4.43747,-4.92238 4.15923,-5.19952 -0.27824,-0.27714 -2.54487,1.51085 -5.03695,3.9733 -2.49208,2.46246 -4.86272,4.47718 -5.2681,4.47718 -0.95141,0 -10.35078,-9.49363 -10.35078,-10.454579 0,-1.7506 -1.98336,-0.35858 -6.92847,4.862719 -2.91284,3.07552 -5.69215,5.59186 -6.17623,5.59186 -0.48408,0 -2.77734,-1.86618 -5.09612,-4.14708 -2.31878,-2.2809 -4.44784,-3.91614 -4.73125,-3.63387 -0.2834,0.28228 1.54713,2.50285 4.06784,4.9346 l 4.58311,4.42135 -5.01682,5.20378 c -2.75925,2.86209 -5.44377,5.20379 -5.96559,5.20379 -0.52182,0 -3.24299,-2.37973 -6.04705,-5.28829 l -5.09828,-5.28827 3.36712,-3.12837 c 1.85192,-1.72061 3.36712,-3.54971 3.36712,-4.06468 0,-0.51497 -1.54752,0.57645 -3.43893,2.42537 -3.75064,3.66639 -4.66853,3.98375 -6.20135,2.14412 -0.55799,-0.66966 -1.20147,-1.03134 -1.42999,-0.80375 -0.2285,0.22761 0.25115,1.14752 1.06592,2.04427 1.45941,1.60623 1.40515,1.70706 -3.65766,6.79501 -2.82647,2.84053 -5.3777,5.16459 -5.66937,5.16459 -0.29169,0 -2.02527,-1.489 -3.85241,-3.30891 -1.82714,-1.8199 -3.56141,-3.07054 -3.85391,-2.77918 -0.29252,0.29134 1.06047,2.14574 3.00662,4.12086 l 3.53846,3.59114 -5.38297,5.36164 -5.38297,5.36162 -4.4013,-4.32939 c -5.56628,-5.47535 -6.51757,-4.96419 -1.2017,0.64569 2.18838,2.30941 3.97887,4.4607 3.97887,4.78064 0,0.31993 -2.34494,2.89658 -5.21097,5.72589 l -5.21098,5.14418 -4.41323,-4.34113 c -2.42727,-2.38763 -4.41322,-3.97891 -4.41322,-3.53621 0,0.44272 1.62408,2.39254 3.60907,4.33294 1.98499,1.94041 3.60908,3.91289 3.60908,4.3833 0,0.47042 -2.28227,3.10832 -5.07171,5.862 l -5.0717,5.0067 -3.09316,-2.822 c -3.807,-3.47325 -4.85468,-3.00517 -1.34542,0.60111 1.40346,1.44226 2.55174,2.95498 2.55174,3.3616 0,1.56061 -9.84951,10.63151 -11.04706,10.17379 -0.79886,-0.30533 -1.06595,-0.0818 -0.79628,0.6664 0.22319,0.61921 -0.14641,1.75713 -0.82133,2.52871 -0.67492,0.77156 -0.96166,1.66727 -0.63721,1.99043 0.32445,0.32317 0.94168,-0.0385 1.37163,-0.80373 0.42995,-0.76523 1.13369,-1.39132 1.56388,-1.39132 1.07515,0 10.36637,9.54221 10.36637,10.6464 0,1.15631 -8.90257,10.12338 -10.05056,10.12338 -0.48267,0 -1.91128,-1.07467 -3.17471,-2.38817 -1.26342,-1.3135 -2.47922,-2.20681 -2.70179,-1.98513 -0.22255,0.22167 0.81565,1.65709 2.30713,3.18981 l 2.71177,2.78674 -3.11549,3.17791 c -1.71352,1.74784 -2.93382,3.35885 -2.71178,3.58001 0.22205,0.22117 1.6228,-0.85066 3.11279,-2.38185 1.48998,-1.53118 3.09982,-2.78397 3.57742,-2.78397 0.4776,0 3.11741,2.26025 5.86627,5.02275 l 4.99791,5.02274 -3.10649,3.16534 c -1.70856,1.74095 -4.23028,4.21311 -5.60383,5.49371 l -2.49734,2.32835 -2.86299,-3.02361 c -1.57463,-1.66298 -3.09348,-2.79401 -3.37522,-2.5134 -0.28172,0.28062 0.81224,1.86121 2.43104,3.51244 l 2.94326,3.00223 -1.99285,2.14068 c -2.96261,3.18238 -2.41359,4.52768 0.64338,1.57649 l 2.63624,-2.54501 5.4066,5.42676 5.40661,5.42675 -5.93715,5.73411 -5.93714,5.73411 5.51345,5.66869 c 3.03241,3.11778 5.51347,6.06176 5.51347,6.54217 0,0.48041 -0.59731,1.53087 -1.32733,2.33434 -0.73003,0.80348 -0.95467,1.46087 -0.49922,1.46087 0.45547,0 1.27742,-0.53922 1.82655,-1.19826 0.54913,-0.65904 1.3417,-1.19826 1.76127,-1.19826 0.90572,0 10.26898,9.42459 10.26898,10.33624 0,0.3463 -0.95696,1.58279 -2.12656,2.74776 -2.81514,2.80399 -1.94496,3.51328 1.13911,0.9285 1.33211,-1.11646 2.61852,-2.02993 2.85869,-2.02993 0.58935,0 10.15901,9.62026 10.15901,10.21273 0,0.25773 -0.78339,1.29919 -1.74087,2.31433 -2.42437,2.5704 -1.3028,3.21333 1.22075,0.69978 l 2.05606,-2.04791 5.29315,5.29819 c 3.30856,3.31171 5.12535,5.73373 4.8456,6.45985 -0.27275,0.70797 -0.0557,1.02549 0.55553,0.813 0.55168,-0.19176 2.18857,0.6769 3.63752,1.93034 3.84981,3.33039 5.06654,2.78658 1.56613,-0.69996 l -2.99083,-2.97897 5.38942,-5.40951 5.38943,-5.40951 5.43258,5.36959 5.43259,5.36958 -4.16175,4.19739 c -2.28896,2.30857 -3.90328,4.45482 -3.58738,4.76948 0.3159,0.31464 2.4707,-1.29328 4.78845,-3.57316 l 4.21409,-4.14525 5.29741,5.3903 c 2.91357,2.96468 5.15902,5.74979 4.98989,6.18915 -0.16914,0.43936 0.61902,0.85221 1.75144,0.91742 1.4864,0.0856 1.93619,-0.2001 1.61744,-1.02746 z m -7.51962,-7.26377 -5.04499,-5.29952 5.02182,-5.04677 c 2.762,-2.77572 5.40445,-5.04678 5.87211,-5.04678 1.07447,0 10.02327,8.95634 10.02327,10.03172 0,0.80147 -9.7359,10.7719 -10.44779,10.69947 -0.20869,-0.0213 -2.64967,-2.42339 -5.42442,-5.33812 z m 23.98922,0.28159 c -5.86251,-5.89163 -5.87748,-5.70462 0.98305,-12.27275 l 4.37345,-4.18704 5.2935,5.24663 c 2.91142,2.88565 5.2935,5.52167 5.2935,5.85782 0,0.58917 -9.98397,10.45046 -10.58048,10.45046 -0.16119,0 -2.57456,-2.2928 -5.36302,-5.09512 z m -59.26875,-11.90167 c -2.74419,-2.75782 -4.98943,-5.26785 -4.98943,-5.57783 0,-0.30999 1.62192,-2.24964 3.60427,-4.31033 4.85428,-5.04612 3.81447,-5.59269 -1.22815,-0.64558 l -4.00305,3.92723 -5.38683,-5.36549 -5.38684,-5.36547 5.17292,-5.19863 c 3.20509,-3.22102 5.64003,-5.05171 6.40081,-4.81243 0.90215,0.28374 1.25019,-0.23981 1.312,-1.97361 0.0683,-1.91492 -0.15179,-2.2283 -1.16724,-1.66228 -0.94895,0.52895 -2.47133,-0.55406 -6.29975,-4.48159 -2.77661,-2.84852 -5.04839,-5.43084 -5.04839,-5.73851 0,-0.30767 2.34257,-2.87194 5.2057,-5.69839 l 5.20571,-5.13898 3.20075,3.11306 c 1.7604,1.71219 3.38241,2.93211 3.60446,2.71094 0.22205,-0.22117 -0.85406,-1.61636 -2.39132,-3.10044 -1.53728,-1.48408 -2.79505,-3.0687 -2.79505,-3.52138 0,-0.45268 2.55062,-3.38063 5.66805,-6.50657 l 5.66804,-5.68352 -5.66804,-5.45035 c -3.11743,-2.99769 -5.66805,-5.85423 -5.66805,-6.34786 0,-0.84196 5.87668,-6.80967 9.05555,-9.19585 1.26429,-0.94901 1.76735,-0.7587 4.19858,1.5884 3.70804,3.57974 4.34615,2.60254 0.81086,-1.24178 l -2.80878,-3.05433 5.60013,-5.60007 c 3.08007,-3.08004 5.60013,-5.81296 5.60013,-6.07318 0,-0.2602 -2.3459,-2.78893 -5.21311,-5.61939 -2.86721,-2.83046 -5.21311,-5.52654 -5.21311,-5.99128 0,-0.46475 2.2646,-3.08057 5.03245,-5.81295 l 5.03246,-4.96795 2.98771,2.45297 c 3.56553,2.92735 3.99987,2.00375 0.58856,-1.25153 l -2.39915,-2.28943 5.20621,-5.37132 c 2.86342,-2.95423 5.20621,-5.98443 5.20621,-6.73378 0,-0.74935 -2.37231,-3.71377 -5.2718,-6.5876 l -5.27182,-5.22513 5.04814,-5.07323 c 2.77648,-2.79027 5.40976,-5.07322 5.85175,-5.07322 0.44198,0 3.04938,2.21699 5.79421,4.92664 4.31042,4.25517 4.87452,5.1427 4.13887,6.51184 -0.71815,1.33653 -0.63812,1.50353 0.51017,1.06464 0.74906,-0.28631 1.89507,-0.52055 2.54668,-0.52055 0.6579,0 0.94214,-0.39104 0.63916,-0.87931 -0.52076,-0.83927 8.94786,-11.10326 10.24286,-11.10326 1.10914,0 10.25851,9.66695 10.25851,10.83884 0,0.62905 0.51184,1.14373 1.13743,1.14373 0.62558,0 1.74404,0.23186 2.48547,0.51524 1.19159,0.45544 1.22415,0.31765 0.28045,-1.18745 -0.9843,-1.56987 -0.69533,-2.07735 3.70506,-6.50652 2.62495,-2.64211 5.15526,-4.80384 5.62293,-4.80384 0.46765,0 3.1757,2.33698 6.01789,5.19328 l 5.1676,5.19328 -5.57027,5.59103 c -3.06364,3.07507 -5.2281,5.59103 -4.80989,5.59103 0.41822,0 3.12471,-2.33691 6.01444,-5.19314 l 5.25406,-5.19313 5.41922,5.43942 5.41921,5.4394 -5.34001,5.42456 -5.34002,5.42456 -5.51364,-5.44971 c -3.03249,-2.99732 -5.51363,-4.99668 -5.51363,-4.44298 0,0.55368 2.16544,3.13694 4.8121,5.74056 2.64666,2.60362 4.8121,5.0653 4.8121,5.47041 0,0.4051 -0.90227,1.32539 -2.00504,2.04509 -1.10277,0.71969 -2.00504,1.90999 -2.00504,2.64509 0,0.99971 0.67611,0.68383 2.68273,-1.25336 l 2.68275,-2.5899 5.39689,5.3491 5.39689,5.34912 -5.42899,5.44922 c -2.98595,2.99708 -5.22045,5.65695 -4.96557,5.91082 0.25488,0.25387 2.89435,-1.9242 5.86547,-4.84016 l 5.40204,-5.30175 3.28207,3.06544 c 4.71633,4.40502 6.95218,6.93997 6.95331,7.88347 10e-4,1.05457 -9.00489,9.96045 -10.07259,9.96045 -0.44214,0 -2.93738,-2.14745 -5.54501,-4.77213 -2.60761,-2.62467 -4.92201,-4.59197 -5.14309,-4.37176 -0.22109,0.2202 1.85754,2.6711 4.61916,5.44644 l 5.02112,5.04607 -2.15827,2.55478 c -2.58999,3.06584 -2.22132,4.1185 0.45036,1.2859 1.03437,-1.09667 2.27932,-1.99395 2.76655,-1.99395 0.48724,0 3.13442,2.25971 5.88261,5.02155 l 4.99671,5.02154 -5.21189,5.16364 c -2.86655,2.84001 -5.21573,5.69385 -5.22039,6.3419 -0.005,0.64805 2.61717,-1.41954 5.82632,-4.59463 l 5.83482,-5.7729 5.39411,5.41421 5.39411,5.41422 -5.50054,5.43675 -5.50054,5.43676 -4.95345,-4.96454 c -2.72439,-2.73049 -5.19174,-4.72719 -5.48298,-4.4371 -0.29124,0.29008 1.70456,2.77261 4.43512,5.51673 l 4.96463,4.9893 -2.58807,2.57781 c -3.08854,3.0763 -1.98641,3.49023 1.27439,0.47865 l 2.27286,-2.09918 5.13759,5.07174 c 2.82568,2.78945 5.13759,5.45198 5.13759,5.91672 0,0.46476 -2.3459,3.16083 -5.21311,5.99128 -2.86721,2.83047 -5.21311,5.44626 -5.21311,5.81289 0,0.36661 2.3459,3.00318 5.21311,5.85902 2.86721,2.85585 5.2011,5.44208 5.18642,5.7472 -0.0352,0.73254 -2.06315,2.96352 -6.64757,7.31316 l -3.75539,3.56305 -4.00837,-3.93244 c -2.2046,-2.16285 -4.00837,-3.59884 -4.00837,-3.19108 0,0.40775 1.61132,2.37136 3.5807,4.36357 1.96938,1.99222 3.31125,3.98169 2.98193,4.42105 -0.32932,0.43936 -2.79987,2.90204 -5.49011,5.47261 l -4.89135,4.67377 -5.38132,-5.35999 -5.38131,-5.35999 2.63595,-2.70884 c 1.44979,-1.48986 2.26718,-2.70884 1.81642,-2.70884 -0.45074,0 -1.66717,0.89869 -2.70318,1.99709 -1.036,1.0984 -2.1587,1.99709 -2.4949,1.99709 -0.33619,0 -2.84133,-2.14664 -5.56698,-4.77034 -4.39107,-4.22683 -4.89344,-5.02322 -4.40926,-6.98983 0.51158,-2.07787 0.45981,-2.13473 -0.81136,-0.8911 -1.26965,1.24214 -1.68966,0.99949 -6.46891,-3.73745 -2.81111,-2.78623 -5.11111,-5.34877 -5.11111,-5.69457 0,-0.34578 1.69256,-2.34028 3.76123,-4.43221 2.06867,-2.09193 3.51534,-4.04843 3.21481,-4.34776 -0.30053,-0.29933 -2.40349,1.2766 -4.67325,3.50208 l -4.12681,4.04634 -4.10059,-4.11962 c -6.46393,-6.49392 -6.5697,-6.67842 -4.889,-8.52821 1.74512,-1.9207 0.69917,-2.11135 -1.36675,-0.24913 -1.38614,1.24947 -1.55035,1.23695 -2.60412,-0.19845 -1.47888,-2.01447 -2.47363,-0.97771 -1.12528,1.17279 0.95313,1.52016 0.62945,2.08165 -3.7289,6.46849 -2.62495,2.64212 -5.12963,4.80384 -5.56595,4.80384 -0.43631,0 -2.1553,-1.32467 -3.81995,-2.94372 -4.1266,-4.01355 -4.68733,-2.89362 -0.72268,1.44337 l 3.19718,3.49745 -4.94768,4.99273 c -2.72123,2.74601 -5.57837,4.99274 -6.34921,4.99274 -0.79941,0 -1.23453,0.43346 -1.01283,1.00893 0.21379,0.5549 -1.92795,3.29588 -4.75942,6.09107 l -5.14814,5.08214 -2.7601,-2.09688 c -3.90185,-2.96428 -4.61689,-2.60096 -1.39577,0.70921 l 2.7306,2.8061 -5.15666,5.18228 c -2.83616,2.85026 -5.35797,5.18228 -5.604,5.18228 -0.24604,0 -2.69259,-2.2564 -5.43679,-5.01423 z m 18.81226,-15.82411 c 1.90062,-0.91643 4.23037,-2.74988 5.17722,-4.07432 1.61518,-2.25934 2.40245,-4.46378 7.58315,-21.23382 l 2.04015,-6.60402 20.10291,0.21332 20.10292,0.21331 4.1054,12.52398 c 2.25796,6.88818 4.86113,13.5385 5.78481,14.7785 2.3429,3.14516 7.37829,5.82056 10.98429,5.83614 3.29862,0.0143 8.17631,-2.11515 10.36368,-4.5244 1.91432,-2.10851 3.84016,-6.9579 3.84016,-9.66979 0,-3.05424 -33.84207,-104.79022 -36.03214,-108.3198 -3.05409,-4.92203 -6.86107,-6.08573 -19.90903,-6.08573 -19.06805,0 -18.92364,-0.14946 -28.17458,29.15757 -2.21899,7.02977 -8.42204,26.62127 -13.78456,43.53666 -12.79993,40.37572 -12.81807,40.44436 -11.86359,44.90185 0.48417,2.26112 1.7305,4.58797 3.33772,6.23141 4.85238,4.96174 10.34552,6.01023 16.34149,3.11914 z m 4.37423,15.52354 -5.10776,-5.23524 5.08459,-5.10987 c 2.79653,-2.81043 5.46637,-5.10987 5.93296,-5.10987 0.4666,0 3.11264,2.27554 5.8801,5.05675 l 5.03174,5.05674 -5.42878,5.32815 c -2.98584,2.93048 -5.62146,5.31025 -5.85694,5.28837 -0.23547,-0.0219 -2.72663,-2.39564 -5.53591,-5.27503 z m 23.95517,0.12235 -5.16677,-5.19244 5.16677,-5.19245 c 2.84173,-2.85584 5.39142,-5.19244 5.666,-5.19244 0.73551,0 10.37434,9.48856 10.37434,10.21261 0,0.66872 -9.80772,10.55717 -10.47096,10.55717 -0.22144,0 -2.72765,-2.3366 -5.56938,-5.19245 z m 24.23784,0.17822 c -2.74419,-2.75782 -4.98944,-5.38809 -4.98944,-5.84504 0,-0.45695 2.29858,-3.02013 5.10797,-5.69595 l 5.10795,-4.86515 5.49643,5.51691 5.49642,5.51691 -5.1676,5.19328 c -2.84219,2.8563 -5.36891,5.19327 -5.61495,5.19327 -0.24604,0 -2.69259,-2.2564 -5.43678,-5.01423 z m -36.26809,-12.16078 -5.16677,-5.19245 5.16677,-5.19244 c 2.84172,-2.85585 5.48748,-5.19245 5.87944,-5.19245 0.82748,0 10.16089,9.49128 10.16089,10.33276 0,0.70488 -9.66212,10.43702 -10.36193,10.43702 -0.2814,0 -2.83668,-2.3366 -5.6784,-5.19244 z m 24.05266,-0.008 -5.1746,-5.20032 5.39828,-5.37689 5.39828,-5.37688 5.39828,5.37688 5.39828,5.37689 -5.1746,5.20032 c -2.84604,2.8603 -5.37592,5.20043 -5.62196,5.20043 -0.24604,0 -2.77592,-2.34013 -5.62196,-5.20031 z m -83.40975,-11.98256 -5.1746,-5.20033 5.39038,-5.36901 5.39037,-5.369 5.22101,5.1541 c 2.87156,2.83474 5.21446,5.34421 5.20645,5.57658 -0.0255,0.7387 -9.49241,10.40797 -10.19016,10.40797 -0.36786,0 -2.99741,-2.34015 -5.84345,-5.20031 z m 71.3795,0 -5.1746,-5.20033 5.39037,-5.36901 5.39038,-5.369 5.22101,5.1541 c 2.87156,2.83474 5.22102,5.37375 5.22102,5.64223 0,0.68941 -9.62028,10.34232 -10.30736,10.34232 -0.31142,0 -2.89478,-2.34015 -5.74082,-5.20031 z m 71.3795,0 -5.17461,-5.20033 5.39828,-5.37689 5.39828,-5.37687 5.39829,5.37687 5.39827,5.37689 -5.1746,5.20033 c -2.84604,2.86016 -5.37592,5.20031 -5.62196,5.20031 -0.24603,0 -2.77592,-2.34015 -5.62195,-5.20031 z m -154.71354,-11.90648 -5.09889,-5.12424 5.29795,-5.46036 5.29796,-5.46038 5.23773,5.16937 c 2.88074,2.84316 5.23772,5.52881 5.23772,5.96813 0,1.07537 -8.94881,10.0317 -10.02328,10.0317 -0.46765,0 -3.14479,-2.3059 -5.94919,-5.12422 z m 12.11393,-11.30925 -5.06157,-5.15095 1.5704,-2.1889 c 0.86371,-1.20389 3.26272,-3.76548 5.33112,-5.69241 l 3.76075,-3.50352 5.14404,5.07811 c 2.82923,2.79297 5.14405,5.45836 5.14405,5.92311 0,0.83972 -9.72244,10.82935 -10.44779,10.73491 -0.2087,-0.0272 -2.65714,-2.36733 -5.441,-5.20035 z m 143.00845,-0.0301 c -2.64665,-2.84749 -4.96762,-5.34581 -5.15771,-5.55185 -0.19008,-0.20604 2.09415,-2.75737 5.07608,-5.66964 l 5.42169,-5.29502 5.14964,5.08363 c 2.8323,2.79599 5.14963,5.46387 5.14963,5.92862 0,0.84097 -9.72455,10.83089 -10.44779,10.7329 -0.2087,-0.0283 -2.54488,-2.38117 -5.19154,-5.22864 z m -155.02794,-12.03649 -5.05079,-5.33058 5.02762,-5.05262 c 2.76521,-2.77893 5.41027,-5.05261 5.87792,-5.05261 1.07447,0 10.02328,8.95634 10.02328,10.03171 0,0.77861 -9.69339,10.73974 -10.44779,10.73638 -0.2087,-9.3e-4 -2.65229,-2.40045 -5.43024,-5.33228 z m 23.99503,0.23884 c -4.29448,-4.31582 -4.9443,-5.32896 -4.24853,-6.62387 1.0091,-1.87807 8.62415,-9.05078 9.60893,-9.05078 0.97048,0 10.5831,9.16668 10.5831,10.09214 0,0.75093 -9.73457,10.67764 -10.47096,10.67764 -0.22144,0 -2.68408,-2.2928 -5.47254,-5.09513 z m 142.83949,0.0809 c -2.74419,-2.75783 -4.98777,-5.36404 -4.98572,-5.79158 0.002,-0.42754 2.25976,-3.00421 5.01717,-5.72594 l 5.01349,-4.9486 4.0055,3.76873 c 2.20303,2.07279 4.70442,4.58181 5.55865,5.57558 l 1.55315,1.80686 -5.13906,5.16458 c -2.82647,2.84053 -5.34036,5.16459 -5.58639,5.16459 -0.24604,0 -2.69259,-2.2564 -5.43679,-5.01422 z m -154.96658,-12.1608 -5.16677,-5.19245 5.16677,-5.19244 c 2.84173,-2.85585 5.36552,-5.19245 5.60844,-5.19245 0.53965,0 7.03594,6.09805 9.17799,8.61537 l 1.55314,1.82524 -5.13905,5.16459 c -2.82648,2.84053 -5.34036,5.16458 -5.5864,5.16458 -0.24604,0 -2.77239,-2.3366 -5.61412,-5.19244 z m 142.759,0 -5.16678,-5.19245 5.16678,-5.19244 c 2.84172,-2.85585 5.36354,-5.19245 5.60404,-5.19245 0.56559,0 8.16975,7.14901 9.60513,9.03022 0.98863,1.29567 0.5822,1.96131 -4.02401,6.59041 -2.81803,2.83204 -5.32501,5.14915 -5.57105,5.14915 -0.24603,0 -2.77239,-2.3366 -5.61411,-5.19244 z M 134.249,199.74997 l -5.16677,-5.19244 5.16677,-5.19245 c 2.84173,-2.85584 5.43006,-5.19244 5.75185,-5.19244 0.8405,0 10.28849,9.49694 10.28849,10.3418 0,0.74521 -9.69321,10.42798 -10.43921,10.42798 -0.2389,0 -2.7594,-2.3366 -5.60113,-5.19245 z m 24.05267,-0.008 -5.17461,-5.20033 5.39828,-5.37688 5.39828,-5.37688 5.39829,5.37688 5.39827,5.37688 -5.1746,5.20033 c -2.84604,2.86016 -5.37592,5.20031 -5.62196,5.20031 -0.24603,0 -2.77592,-2.34015 -5.62195,-5.20031 z m 118.71208,0.0137 -5.17253,-5.19814 5.16677,-5.19245 c 2.84173,-2.85584 5.45688,-5.19244 5.81145,-5.19244 0.83215,0 10.22889,9.55149 10.22889,10.39735 0,0.65013 -9.25658,9.80044 -10.29671,10.1785 -0.31094,0.11303 -2.89299,-2.1337 -5.73787,-4.99273 z m 24.04691,-0.0137 -5.1746,-5.20033 5.39827,-5.37688 5.39829,-5.37688 5.39828,5.37688 5.39828,5.37688 -5.17461,5.20033 c -2.84603,2.86016 -5.37592,5.20031 -5.62195,5.20031 -0.24604,0 -2.77592,-2.34015 -5.62196,-5.20031 z m -154.78925,-11.98257 -5.1746,-5.20032 5.39828,-5.37689 5.39828,-5.37688 5.39829,5.37688 5.39827,5.37689 -5.1746,5.20032 c -2.84604,2.86017 -5.37592,5.20031 -5.62196,5.20031 -0.24604,0 -2.77592,-2.34014 -5.62196,-5.20031 z m 23.86784,0.4475 c -2.53637,-2.51384 -4.61159,-4.90968 -4.61159,-5.32407 0,-0.4144 2.34946,-3.0728 5.22102,-5.90755 l 5.22101,-5.1541 5.39037,5.36901 5.39038,5.36901 -5.17461,5.20032 c -2.84603,2.86017 -5.54594,5.15929 -5.99979,5.10916 -0.45386,-0.0501 -2.90041,-2.14794 -5.43679,-4.66178 z m 118.89116,-0.44738 -5.17461,-5.20032 5.39038,-5.36901 5.39037,-5.36901 5.22101,5.1541 c 2.87156,2.83475 5.22102,5.35873 5.22102,5.60885 0,0.60418 -9.79591,10.3757 -10.40159,10.3757 -0.25959,0 -2.80055,-2.34014 -5.64658,-5.20031 z m -154.78447,-11.97776 -5.16982,-5.19552 5.47029,-5.29021 5.47028,-5.2902 5.13632,5.07048 c 2.82499,2.78878 5.13633,5.42993 5.13633,5.86924 0,1.07539 -8.94881,10.03172 -10.02328,10.03172 -0.46765,0 -3.17671,-2.33798 -6.02012,-5.19551 z m 24.20182,0.53271 c -2.72269,-2.56454 -4.95035,-5.00139 -4.95035,-5.41523 0,-0.41384 2.34589,-3.06826 5.2131,-5.89873 l 5.21311,-5.14629 5.21311,5.14629 c 2.86721,2.83047 5.21311,5.39588 5.21311,5.70094 0,0.6651 -9.80008,10.27582 -10.47829,10.27582 -0.26039,0 -2.70109,-2.09826 -5.42379,-4.6628 z m 118.53707,-0.55416 -5.18995,-5.21697 5.4821,-5.27695 5.4821,-5.27695 5.14462,5.07869 c 2.82955,2.79327 5.14463,5.43811 5.14463,5.87742 0,1.07539 -8.9488,10.03172 -10.02327,10.03172 -0.46766,0 -3.18577,-2.34764 -6.04023,-5.21696 z m 23.88316,0.48797 c -2.53637,-2.56589 -4.61159,-4.98839 -4.61159,-5.38336 0,-0.39496 2.3459,-3.03394 5.21311,-5.86441 l 5.21311,-5.14629 5.21311,5.14629 c 2.86721,2.83047 5.2131,5.36189 5.2131,5.62539 0,0.89271 -9.84411,10.3516 -10.73977,10.31949 -0.48921,-0.0175 -2.96469,-2.13122 -5.50107,-4.69711 z M 170.47923,164.74123 c -2.72336,-2.7369 -4.95157,-5.33636 -4.95157,-5.77659 0,-0.44023 2.25567,-3.02099 5.0126,-5.73501 l 5.01261,-4.93457 5.49576,5.19907 5.49576,5.19906 -4.68148,4.95103 c -2.57482,2.72308 -5.07538,5.20353 -5.5568,5.51212 -0.49668,0.31837 -3.01717,-1.59143 -5.82688,-4.41511 z m 95.07851,-0.35992 -5.39348,-5.41359 5.43513,-5.3721 5.43512,-5.37211 5.39349,5.41359 5.39348,5.41359 -5.43513,5.3721 -5.43513,5.3721 z m 23.68101,0.12694 c -2.75693,-2.86642 -5.0126,-5.43089 -5.0126,-5.69882 0,-0.26792 2.39988,-2.78524 5.33309,-5.59403 l 5.33308,-5.10689 5.09314,5.02785 c 2.80121,2.76532 5.09312,5.43061 5.09312,5.92286 0,0.79009 -9.87002,10.79119 -10.55731,10.6975 -0.14845,-0.0203 -2.52559,-2.38205 -5.28252,-5.24847 z m -142.63706,0.23336 c -2.24875,-2.2741 -4.34889,-4.58991 -4.66697,-5.14625 -0.6949,-1.2154 8.14048,-10.57163 9.98311,-10.57163 1.34301,0 10.40176,8.73817 10.40176,10.03364 0,1.28846 -9.15517,9.94305 -10.44948,9.87814 -0.64887,-0.0326 -3.01966,-1.9198 -5.26842,-4.1939 z m 11.88515,-11.94489 c -2.74419,-2.75783 -4.98943,-5.33357 -4.98943,-5.72387 0,-0.99443 9.32076,-10.03168 10.34639,-10.03168 1.02565,0 10.50604,9.13665 10.50604,10.12512 0,0.72839 -9.75446,10.64466 -10.47096,10.64466 -0.22144,0 -2.64785,-2.2564 -5.39204,-5.01423 z m 23.65964,-0.3995 -5.39363,-5.41373 5.03571,-4.97116 c 2.76963,-2.73414 5.39732,-4.97116 5.8393,-4.97116 0.44199,0 3.06565,2.27328 5.83036,5.05172 l 5.02675,5.05173 -5.35438,5.33316 c -2.94492,2.93325 -5.40752,5.33317 -5.47244,5.33317 -0.065,0 -2.54518,-2.43618 -5.51167,-5.41373 z m 94.91833,0.15615 -5.15631,-5.19493 5.13314,-5.15864 c 2.82322,-2.83724 5.51576,-5.15863 5.98342,-5.15863 1.07447,0 10.02327,8.95633 10.02327,10.03171 0,0.79695 -9.72809,10.76615 -10.44779,10.70674 -0.2087,-0.0172 -2.69977,-2.36904 -5.53573,-5.22625 z M 170.51709,140.81416 c -2.74419,-2.75783 -4.98884,-5.36404 -4.98813,-5.79158 0.002,-0.99885 9.0963,-9.96398 10.1079,-9.96398 0.4204,0 3.09289,2.34009 5.93886,5.20021 l 5.1745,5.20021 -5.19767,5.16668 c -2.85871,2.84167 -5.38855,5.17477 -5.62184,5.18468 -0.2333,0.01 -2.66942,-2.2384 -5.41362,-4.99622 z m 94.61453,-0.35776 -5.05924,-5.27562 5.03607,-5.06108 c 2.76984,-2.7836 5.41782,-5.0611 5.88442,-5.0611 0.46659,0 3.10373,2.26659 5.86031,5.03687 l 5.01197,5.03686 -5.3693,5.34803 c -2.95312,2.94141 -5.57985,5.32634 -5.83715,5.29984 -0.25732,-0.0265 -2.7445,-2.42222 -5.52708,-5.3238 z m -82.76064,-11.44715 c -2.42557,-2.60903 -4.531,-5.10489 -4.67874,-5.54635 -0.3151,-0.94155 8.69967,-10.38687 9.91341,-10.38687 0.4542,0 3.15087,2.3366 5.9926,5.19245 l 5.16677,5.19244 -5.16677,5.19245 c -2.84173,2.85584 -5.53811,5.17155 -5.99196,5.14601 -0.45385,-0.0256 -2.80975,-2.18109 -5.23531,-4.79013 z m 23.25752,-0.35588 -5.16677,-5.19245 5.16677,-5.19244 c 2.84172,-2.85585 5.48748,-5.19245 5.87944,-5.19245 0.86928,0 10.16089,9.51269 10.16089,10.40265 0,0.74414 -9.62387,10.36713 -10.36807,10.36713 -0.27802,0 -2.83054,-2.3366 -5.67226,-5.19244 z m 24.05266,-0.008 -5.1746,-5.20032 5.39828,-5.37689 5.39828,-5.37688 5.39828,5.37688 5.39828,5.37689 -5.1746,5.20032 c -2.84604,2.86029 -5.37592,5.20043 -5.62196,5.20043 -0.24604,0 -2.77592,-2.34014 -5.62196,-5.20031 z m 24.2566,0.461 c -2.7502,-2.60651 -5.00035,-5.24786 -5.00035,-5.86956 0,-1.18369 9.00232,-10.16079 10.18934,-10.16079 0.37633,0 3.00927,2.3366 5.85099,5.19245 l 5.16677,5.19244 -5.16677,5.19245 c -2.84172,2.85584 -5.36316,5.19244 -5.6032,5.19244 -0.24003,0 -2.68658,-2.13268 -5.43678,-4.73931 z m -36.28685,-12.44356 -5.1746,-5.20033 5.39037,-5.36901 5.39038,-5.369 5.22101,5.1541 c 2.87156,2.83474 5.22102,5.37785 5.22102,5.65133 0,0.7326 -9.52633,10.33322 -10.25326,10.33322 -0.34117,0 -2.94888,-2.34015 -5.79492,-5.20031 z m -61.78304,-6.76417 c 6.55452,-3.33061 8.85851,-10.339609 5.50098,-16.734568 -5.973,-11.376534 -23.41823,-6.550879 -23.41823,6.477889 0,9.006479 9.58245,14.491929 17.91725,10.256679 z m -9.49663,-6.87317 c -2.13494,-2.70339 -2.17413,-6.248939 -0.092,-8.32283 4.85487,-4.835627 13.1465,2.366081 9.04749,7.8582 -2.32614,3.11672 -6.68258,3.34273 -8.9555,0.46463 z m 154.97451,-0.72812 c 3.37639,-5.049369 6.13888,-9.465324 6.13888,-9.813118 0,-0.347794 -1.14921,-1.308517 -2.5538,-2.13494 l -2.5538,-1.502589 -1.25578,1.886117 c -3.39436,5.098181 -3.40339,5.102441 -6.69725,3.166712 -3.52872,-2.073741 -3.63416,-2.798446 -0.93568,-6.430823 l 2.04403,-2.751421 -2.08876,-1.797385 c -1.1488,-0.988561 -2.51975,-1.7908 -3.04654,-1.782754 -0.91057,0.01391 -12.70603,17.128732 -12.89712,18.713282 -0.05,0.414729 1.06247,1.425009 2.47218,2.245059 l 2.56311,1.49101 2.15506,-3.24362 c 1.18529,-1.783979 2.44739,-3.243609 2.80467,-3.243609 0.99243,0 6.3554,3.280579 6.3554,3.887649 0,0.29398 -0.90227,1.85705 -2.00504,3.47349 -1.10278,1.61645 -2.00505,3.27369 -2.00505,3.68277 0,0.87342 3.2149,3.23258 4.48784,3.29327 0.48332,0.0231 3.64127,-4.0895 7.01765,-9.13898 z M 180.39072,95.142951 c 2.10967,-0.877979 2.78131,-1.634101 2.78131,-3.131151 0,-1.662774 0.64098,-2.185714 4.06934,-3.319916 3.9659,-1.312042 4.11441,-1.304082 5.84272,0.313149 1.57198,1.470936 2.11178,1.555962 4.75284,0.74861 1.63872,-0.500938 2.97947,-1.155195 2.97947,-1.453903 0,-0.841794 -16.01708,-19.159777 -16.75314,-19.159777 -0.35853,0 -1.76254,0.385646 -3.12002,0.85699 -2.3167,0.804407 -2.49605,1.159766 -2.9229,5.791574 -0.25011,2.714021 -0.76604,8.169875 -1.14653,12.124122 -0.64714,6.725534 -0.57655,8.387792 0.35619,8.387792 0.20868,0 1.63102,-0.52087 3.16072,-1.15749 z m 3.33159,-11.499195 c -0.13933,-0.288273 -0.18479,-0.973479 -0.10104,-1.52268 0.0837,-0.549201 0.19738,-1.600425 0.25252,-2.336052 0.0847,-1.130422 0.40687,-1.050604 2.08057,0.515538 1.08918,1.019173 1.81662,2.116875 1.61654,2.439336 -0.51187,0.824934 -3.5427,1.536739 -3.84859,0.903858 z m 77.75334,1.475974 c 2.4405,-8.476624 2.78777,-8.829789 7.0829,-7.203259 1.84759,0.699671 2.17219,0.549719 2.892,-1.336015 0.44594,-1.16828 0.65506,-2.528426 0.46469,-3.022547 -0.33852,-0.87867 -16.04637,-6.015621 -18.39467,-6.015621 -1.09027,0 -2.13942,2.207179 -2.16617,4.557119 -0.006,0.529292 1.25223,1.198384 2.79612,1.486869 3.46425,0.647321 3.55162,1.723483 0.79642,9.809577 -2.45225,7.196984 -2.46931,7.974937 -0.19491,8.885511 3.95919,1.585093 4.3142,1.206962 6.72362,-7.161634 z m -31.96716,0.792472 c 3.46639,-2.105076 3.97735,-3.719285 4.31059,-13.61769 l 0.28101,-8.346994 -3.40857,-0.24564 -3.40857,-0.245642 v 7.63489 c 0,6.63324 -0.21582,7.849856 -1.64505,9.273428 -1.64262,1.636096 -4.112,1.56626 -5.97411,-0.168955 -0.44111,-0.411048 -0.92606,-4.324891 -1.07768,-8.69743 l -0.27565,-7.95007 h -3.13292 -3.13291 v 8.427466 c 0,9.375455 0.94632,12.300851 4.62168,14.287175 3.22747,1.744264 9.68286,1.568059 12.84218,-0.350538 z"
         id="path2" />
    </g>
  </g>
</svg>
