<svg version="1.1" id="Layer_1" xmlns="http://www.w3.org/2000/svg" xmlns:xlink="http://www.w3.org/1999/xlink" x="0px" y="0px"
	 width="100%" viewBox="0 0 765 765" enable-background="new 0 0 765 765" xml:space="preserve">
<path fill="none" opacity="1.000000" stroke="none" 
	d="
M464.000000,766.000000 
	C309.333344,766.000000 155.166672,766.000000 1.000000,766.000000 
	C1.000000,511.000000 1.000000,256.000000 1.000000,1.000000 
	C256.000000,1.000000 511.000000,1.000000 766.000000,1.000000 
	C766.000000,256.000000 766.000000,511.000000 766.000000,766.000000 
	C665.500000,766.000000 565.000000,766.000000 464.000000,766.000000 
M294.867310,59.282642 
	C267.097809,66.832924 240.622879,77.573891 215.702621,91.969109 
	C158.998032,124.724602 114.828911,169.698532 84.941208,228.117874 
	C45.684097,304.850891 36.732109,385.315277 59.319561,468.395844 
	C82.247673,552.729431 131.515671,618.570618 205.575729,664.980164 
	C265.007507,702.223022 330.290131,718.261963 400.410339,714.194824 
	C452.152649,711.193542 500.541931,696.861328 545.590576,671.258057 
	C658.835571,606.895630 724.211914,483.325806 713.103760,353.513397 
	C705.732666,267.373016 669.724670,194.756653 606.449219,136.133148 
	C545.849609,79.988747 473.481659,51.406788 391.086578,48.196499 
	C358.768341,46.937317 326.935883,50.803619 294.867310,59.282642 
z"/>
<path fill="#FF6C38" opacity="1.000000" stroke="none" 
	d="
M295.261566,59.182152 
	C326.935883,50.803619 358.768341,46.937317 391.086578,48.196499 
	C473.481659,51.406788 545.849609,79.988747 606.449219,136.133148 
	C669.724670,194.756653 705.732666,267.373016 713.103760,353.513397 
	C724.211914,483.325806 658.835571,606.895630 545.590576,671.258057 
	C500.541931,696.861328 452.152649,711.193542 400.410339,714.194824 
	C330.290131,718.261963 265.007507,702.223022 205.575729,664.980164 
	C131.515671,618.570618 82.247673,552.729431 59.319561,468.395844 
	C36.732109,385.315277 45.684097,304.850891 84.941208,228.117874 
	C114.828911,169.698532 158.998032,124.724602 215.702621,91.969109 
	C240.622879,77.573891 267.097809,66.832924 295.261566,59.182152 
M262.411560,529.885376 
	C309.770935,505.432465 355.339600,478.234253 396.587158,443.097046 
	C388.602631,435.220428 381.208496,427.805359 373.618408,420.596588 
	C372.703888,419.728027 370.638367,419.510956 369.259064,419.778687 
	C355.095367,422.527985 340.930054,425.290802 326.848358,428.423767 
	C323.797791,429.102509 320.488617,430.676788 318.296356,432.846710 
	C285.636047,465.173370 253.141861,497.667938 220.618317,530.132690 
	C219.378067,531.370667 218.236038,532.706909 216.929474,534.126343 
	C228.407761,545.580872 239.432800,556.682190 250.630051,567.606995 
	C251.773834,568.722961 253.950684,568.780090 255.648148,569.328552 
	C256.021332,567.540588 256.956787,565.653198 256.661713,563.983337 
	C255.794312,559.074585 254.373764,554.266602 253.286148,549.393250 
	C250.279343,535.920288 248.818298,537.065979 262.411560,529.885376 
M384.352539,356.852570 
	C413.346954,327.877289 442.405365,298.965515 471.280426,269.871826 
	C476.885834,264.223999 482.585205,259.230042 491.576569,258.751373 
	C481.565063,249.550430 470.895355,248.020828 459.095215,252.273193 
	C445.256653,257.260132 433.456940,265.674988 422.000122,274.570465 
	C389.551483,299.764740 360.365173,328.552124 331.248230,357.406464 
	C329.503448,359.135498 327.847961,360.954681 326.686096,362.171417 
	C335.500244,371.053406 344.007202,379.625824 352.828674,388.515167 
	C362.962036,378.336456 373.407257,367.844513 384.352539,356.852570 
M428.434875,361.924530 
	C438.077057,353.478943 447.735107,345.051392 457.357819,336.583740 
	C472.979126,322.837524 488.613068,309.105225 504.165619,295.281494 
	C509.501434,290.538818 511.291046,284.501221 509.273102,277.623627 
	C507.272003,270.803467 502.658844,266.563263 495.608734,265.301422 
	C488.467621,264.023376 483.135925,267.411041 478.331482,272.225922 
	C438.938385,311.704498 399.513123,351.151062 360.106506,390.616180 
	C359.187836,391.536163 358.372040,392.558868 357.606293,393.423096 
	C363.206451,398.802063 368.642548,404.023468 374.279999,409.438263 
	C391.881409,393.995361 409.892090,378.193359 428.434875,361.924530 
M539.419861,273.825775 
	C546.651550,273.399841 553.748352,272.481506 560.451416,268.523346 
	C549.841064,257.847900 539.654968,247.583282 529.449829,237.337662 
	C523.532410,231.396774 523.539673,231.431534 529.304749,225.649734 
	C542.927368,211.987610 556.527954,198.303497 570.279968,184.485123 
	C569.459229,183.728577 568.786438,183.016800 568.024231,182.419022 
	C543.327576,163.049774 504.012054,173.841080 491.821045,203.498993 
	C478.537933,235.813599 500.402527,273.486969 539.419861,273.825775 
M505.339905,302.847107 
	C462.929413,340.072357 420.518921,377.297638 378.416687,414.252319 
	C386.331543,422.136444 393.954285,429.729523 401.721069,437.466156 
	C401.709625,437.472595 402.204559,437.311920 402.540710,436.986969 
	C429.613922,410.819946 457.085419,385.022705 480.586212,355.449219 
	C492.323639,340.678802 503.438599,325.473541 509.251221,307.170166 
	C510.112122,304.459381 510.572540,301.621429 511.218231,298.842285 
	C510.900513,298.729156 510.582794,298.616028 510.265076,298.502899 
	C508.801636,299.797089 507.338226,301.091278 505.339905,302.847107 
M587.299133,210.260040 
	C585.113220,202.484833 581.736511,195.388245 576.153381,189.757629 
	C561.977417,204.059326 548.084351,218.075562 534.380737,231.900742 
	C544.980530,242.455444 556.042664,253.470444 567.179382,264.559753 
	C581.312378,256.569275 593.189392,233.964584 587.299133,210.260040 
M192.177246,569.327576 
	C209.631516,570.509338 227.085785,571.691040 244.716660,572.884766 
	C233.428940,561.655945 222.529114,550.812988 211.231461,539.574280 
	C203.038284,547.783630 194.444458,556.311096 186.053085,565.033203 
	C185.603882,565.500122 186.500443,568.021851 187.429459,568.824341 
	C188.234924,569.520142 189.976242,569.132690 192.177246,569.327576 
M288.415833,403.793243 
	C290.053589,403.716461 291.740295,403.867340 293.321411,403.527252 
	C307.299133,400.520447 321.259125,397.430908 335.221954,394.354889 
	C338.164917,393.706573 341.098053,393.013611 344.853607,392.153992 
	C336.188202,383.783600 328.321198,376.184357 320.265228,368.402618 
	C309.770203,378.831604 299.021942,389.469055 288.374603,400.206573 
	C287.774963,400.811310 288.005646,402.239410 288.415833,403.793243 
M337.420898,419.417267 
	C346.770172,417.431976 356.119446,415.446686 365.401154,413.475739 
	C360.603729,408.710999 356.085876,404.223907 351.047333,399.219666 
	C345.850037,404.538910 340.230011,410.163116 334.768738,415.937500 
	C332.264587,418.585236 333.607330,419.671631 337.420898,419.417267 
z"/>
<path fill="#FFFDFD" opacity="1.000000" stroke="none" 
	d="
M262.078308,530.040466 
	C248.818298,537.065979 250.279343,535.920288 253.286148,549.393250 
	C254.373764,554.266602 255.794312,559.074585 256.661713,563.983337 
	C256.956787,565.653198 256.021332,567.540588 255.648132,569.328552 
	C253.950684,568.780090 251.773834,568.722961 250.630051,567.606995 
	C239.432800,556.682190 228.407761,545.580872 216.929474,534.126343 
	C218.236038,532.706909 219.378067,531.370667 220.618317,530.132690 
	C253.141861,497.667938 285.636047,465.173370 318.296356,432.846710 
	C320.488617,430.676788 323.797791,429.102509 326.848358,428.423767 
	C340.930054,425.290802 355.095367,422.527985 369.259064,419.778687 
	C370.638367,419.510956 372.703888,419.728027 373.618408,420.596588 
	C381.208496,427.805359 388.602631,435.220428 396.587158,443.097046 
	C355.339600,478.234253 309.770935,505.432465 262.078308,530.040466 
z"/>
<path fill="#FFFCFC" opacity="1.000000" stroke="none" 
	d="
M384.102509,357.102539 
	C373.407257,367.844513 362.962036,378.336456 352.828674,388.515167 
	C344.007202,379.625824 335.500244,371.053406 326.686096,362.171417 
	C327.847961,360.954681 329.503448,359.135498 331.248230,357.406464 
	C360.365173,328.552124 389.551483,299.764740 422.000122,274.570465 
	C433.456940,265.674988 445.256653,257.260132 459.095215,252.273193 
	C470.895355,248.020828 481.565063,249.550430 491.576569,258.751373 
	C482.585205,259.230042 476.885834,264.223999 471.280426,269.871826 
	C442.405365,298.965515 413.346954,327.877289 384.102509,357.102539 
z"/>
<path fill="#FFFDFC" opacity="1.000000" stroke="none" 
	d="
M428.168823,362.157959 
	C409.892090,378.193359 391.881409,393.995361 374.279999,409.438263 
	C368.642548,404.023468 363.206451,398.802063 357.606293,393.423096 
	C358.372040,392.558868 359.187836,391.536163 360.106506,390.616180 
	C399.513123,351.151062 438.938385,311.704498 478.331482,272.225922 
	C483.135925,267.411041 488.467621,264.023376 495.608734,265.301422 
	C502.658844,266.563263 507.272003,270.803467 509.273102,277.623627 
	C511.291046,284.501221 509.501434,290.538818 504.165619,295.281494 
	C488.613068,309.105225 472.979126,322.837524 457.357819,336.583740 
	C447.735107,345.051392 438.077057,353.478943 428.168823,362.157959 
z"/>
<path fill="#FFFDFD" opacity="1.000000" stroke="none" 
	d="
M538.960205,273.828400 
	C500.402527,273.486969 478.537933,235.813599 491.821045,203.498993 
	C504.012054,173.841080 543.327576,163.049774 568.024231,182.419022 
	C568.786438,183.016800 569.459229,183.728577 570.279968,184.485123 
	C556.527954,198.303497 542.927368,211.987610 529.304749,225.649734 
	C523.539673,231.431534 523.532410,231.396774 529.449829,237.337662 
	C539.654968,247.583282 549.841064,257.847900 560.451416,268.523346 
	C553.748352,272.481506 546.651550,273.399841 538.960205,273.828400 
z"/>
<path fill="#FFFCFB" opacity="1.000000" stroke="none" 
	d="
M505.607361,302.616272 
	C507.338226,301.091278 508.801636,299.797089 510.265076,298.502899 
	C510.582794,298.616028 510.900513,298.729156 511.218231,298.842285 
	C510.572540,301.621429 510.112122,304.459381 509.251221,307.170166 
	C503.438599,325.473541 492.323639,340.678802 480.586212,355.449219 
	C457.085419,385.022705 429.613922,410.819946 402.540710,436.986969 
	C402.204559,437.311920 401.709625,437.472595 401.721069,437.466156 
	C393.954285,429.729523 386.331543,422.136444 378.416687,414.252319 
	C420.518921,377.297638 462.929413,340.072357 505.607361,302.616272 
z"/>
<path fill="#FFFBFA" opacity="1.000000" stroke="none" 
	d="
M587.410522,210.658951 
	C593.189392,233.964584 581.312378,256.569275 567.179382,264.559753 
	C556.042664,253.470444 544.980530,242.455444 534.380737,231.900742 
	C548.084351,218.075562 561.977417,204.059326 576.153381,189.757629 
	C581.736511,195.388245 585.113220,202.484833 587.410522,210.658951 
M571.024292,224.779312 
	C570.212585,227.763794 569.129456,230.709732 568.697998,233.748199 
	C568.465393,235.386383 569.348267,237.182983 569.727905,238.908112 
	C571.462158,238.367783 573.878845,238.367859 574.810120,237.191711 
	C578.455505,232.587631 579.940430,227.174774 578.483521,221.331558 
	C577.665588,218.051239 577.043762,213.579895 572.126892,215.059296 
	C567.632080,216.411713 569.903992,220.090042 570.684692,223.001877 
	C570.770325,223.321381 570.843689,223.644196 571.024292,224.779312 
z"/>
<path fill="#FFFCFA" opacity="1.000000" stroke="none" 
	d="
M191.740601,569.275757 
	C189.976242,569.132690 188.234924,569.520142 187.429459,568.824341 
	C186.500443,568.021851 185.603882,565.500122 186.053085,565.033203 
	C194.444458,556.311096 203.038284,547.783630 211.231461,539.574280 
	C222.529114,550.812988 233.428940,561.655945 244.716660,572.884766 
	C227.085785,571.691040 209.631516,570.509338 191.740601,569.275757 
z"/>
<path fill="#FFFCFB" opacity="1.000000" stroke="none" 
	d="
M288.132874,403.538757 
	C288.005646,402.239410 287.774963,400.811310 288.374603,400.206573 
	C299.021942,389.469055 309.770203,378.831604 320.265228,368.402618 
	C328.321198,376.184357 336.188202,383.783600 344.853607,392.153992 
	C341.098053,393.013611 338.164917,393.706573 335.221954,394.354889 
	C321.259125,397.430908 307.299133,400.520447 293.321411,403.527252 
	C291.740295,403.867340 290.053589,403.716461 288.132874,403.538757 
z"/>
<path fill="#FFF7F4" opacity="1.000000" stroke="none" 
	d="
M337.058014,419.525391 
	C333.607330,419.671631 332.264587,418.585236 334.768738,415.937500 
	C340.230011,410.163116 345.850037,404.538910 351.047333,399.219666 
	C356.085876,404.223907 360.603729,408.710999 365.401154,413.475739 
	C356.119446,415.446686 346.770172,417.431976 337.058014,419.525391 
z"/>
<path fill="#FF7644" opacity="1.000000" stroke="none" 
	d="
M570.973511,224.372391 
	C570.843689,223.644196 570.770325,223.321381 570.684692,223.001877 
	C569.903992,220.090042 567.632080,216.411713 572.126892,215.059296 
	C577.043762,213.579895 577.665588,218.051239 578.483521,221.331558 
	C579.940430,227.174774 578.455505,232.587631 574.810120,237.191711 
	C573.878845,238.367859 571.462158,238.367783 569.727905,238.908112 
	C569.348267,237.182983 568.465393,235.386383 568.697998,233.748199 
	C569.129456,230.709732 570.212585,227.763794 570.973511,224.372391 
z"/>
</svg>