<svg version="1.1" id="Layer_1" xmlns="http://www.w3.org/2000/svg" xmlns:xlink="http://www.w3.org/1999/xlink" x="0px" y="0px"
	 width="100%" viewBox="0 0 540 557" enable-background="new 0 0 540 557" xml:space="preserve">
<path fill="none" opacity="1.000000" stroke="none" 
	d="
M1.000000,154.000000 
	C1.000000,102.678238 1.000000,51.856476 1.000000,1.017357 
	C180.947449,1.017357 360.894897,1.017357 540.921143,1.017357 
	C540.921143,186.571823 540.921143,372.143707 540.921143,557.857788 
	C361.000092,557.857788 181.000061,557.857788 1.000000,557.857788 
	C1.000000,423.438324 1.000000,288.969147 1.000000,154.000000 
M474.538177,37.963753 
	C463.342590,32.973251 452.513397,26.792099 440.883423,23.213190 
	C404.492249,12.014504 367.870667,14.150771 331.554199,24.111593 
	C325.455750,25.784269 319.827454,26.475780 313.650299,25.012804 
	C308.006287,23.676094 302.170166,22.968033 296.376862,22.475187 
	C269.228638,20.165648 243.256805,23.659721 219.536545,38.287785 
	C217.903000,39.295170 215.187271,39.438175 213.260269,38.920525 
	C206.049759,36.983555 199.034607,34.307693 191.808441,32.442600 
	C160.456207,24.350494 128.819153,19.454763 96.501984,26.014456 
	C64.740479,32.461361 41.162251,49.645042 28.048899,79.807121 
	C16.929499,105.382896 14.194490,132.567154 17.912918,159.637711 
	C21.976343,189.219864 28.325296,218.575790 35.255630,247.654358 
	C44.046131,284.537872 55.658073,320.610046 73.087868,354.514679 
	C79.734612,367.444061 87.305656,379.756744 98.294693,389.584930 
	C114.216621,403.824890 132.390366,403.606110 147.821289,388.879700 
	C150.825775,386.012421 153.542068,382.832458 156.284821,379.703369 
	C169.669540,364.433197 183.018173,349.131378 195.474182,334.876862 
	C206.708649,337.911865 216.820099,340.643463 227.074249,343.413605 
	C221.065628,351.949860 214.881866,360.611389 203.145416,363.030396 
	C194.692856,364.772644 186.233139,366.741333 178.045776,369.428925 
	C171.119293,371.702637 164.450974,375.440613 164.216461,383.980316 
	C163.995255,392.034882 169.719513,396.635040 176.226044,399.727600 
	C195.195496,408.743927 215.119415,410.356110 235.048431,404.251007 
	C244.647507,401.310364 253.410583,395.640686 262.539520,391.212982 
	C262.539520,392.912415 262.447876,395.538422 262.553589,398.156464 
	C263.682129,426.105469 264.637421,454.063782 266.074982,481.997131 
	C266.854095,497.136322 272.125702,510.938049 281.227112,523.074646 
	C289.547852,534.170166 300.516815,541.055176 314.440826,543.274353 
	C326.075317,545.128540 337.311493,543.391846 348.555542,540.773254 
	C379.558319,533.553040 399.186920,515.116638 404.215057,483.101562 
	C408.242218,457.459656 411.476196,431.692505 414.996735,405.972015 
	C416.043610,398.323822 416.869171,390.645325 417.804871,382.908783 
	C434.381561,386.931488 450.254517,385.672638 466.098969,382.936371 
	C486.505066,379.412323 504.334595,370.735504 518.889038,355.837738 
	C525.212158,349.365387 526.903442,342.760803 524.063354,337.496796 
	C521.200317,332.190308 514.907410,330.103394 505.889679,331.644684 
	C491.282349,334.141327 476.705475,337.258911 461.776306,335.880615 
	C456.436066,335.387604 451.205566,333.705841 445.360443,332.444885 
	C446.571289,330.402557 447.129547,329.400085 447.743988,328.433319 
	C474.647125,286.104340 495.513733,241.011993 509.483337,192.811874 
	C517.242554,166.039566 523.041016,138.862137 522.756042,110.816589 
	C522.596985,95.161423 520.256531,79.996773 509.087616,67.573753 
	C499.002869,56.356697 488.098389,46.190575 474.538177,37.963753 
z"/>
<path fill="#FCFCFD" opacity="1.000000" stroke="none" 
	d="
M474.863831,38.127869 
	C488.098389,46.190575 499.002869,56.356697 509.087616,67.573753 
	C520.256531,79.996773 522.596985,95.161423 522.756042,110.816589 
	C523.041016,138.862137 517.242554,166.039566 509.483337,192.811874 
	C495.513733,241.011993 474.647125,286.104340 447.743988,328.433319 
	C447.129547,329.400085 446.571289,330.402557 445.360443,332.444885 
	C451.205566,333.705841 456.436066,335.387604 461.776306,335.880615 
	C476.705475,337.258911 491.282349,334.141327 505.889679,331.644684 
	C514.907410,330.103394 521.200317,332.190308 524.063354,337.496796 
	C526.903442,342.760803 525.212158,349.365387 518.889038,355.837738 
	C504.334595,370.735504 486.505066,379.412323 466.098969,382.936371 
	C450.254517,385.672638 434.381561,386.931488 417.804871,382.908783 
	C416.869171,390.645325 416.043610,398.323822 414.996735,405.972015 
	C411.476196,431.692505 408.242218,457.459656 404.215057,483.101562 
	C399.186920,515.116638 379.558319,533.553040 348.555542,540.773254 
	C337.311493,543.391846 326.075317,545.128540 314.440826,543.274353 
	C300.516815,541.055176 289.547852,534.170166 281.227112,523.074646 
	C272.125702,510.938049 266.854095,497.136322 266.074982,481.997131 
	C264.637421,454.063782 263.682129,426.105469 262.553589,398.156464 
	C262.447876,395.538422 262.539520,392.912415 262.539520,391.212982 
	C253.410583,395.640686 244.647507,401.310364 235.048431,404.251007 
	C215.119415,410.356110 195.195496,408.743927 176.226044,399.727600 
	C169.719513,396.635040 163.995255,392.034882 164.216461,383.980316 
	C164.450974,375.440613 171.119293,371.702637 178.045776,369.428925 
	C186.233139,366.741333 194.692856,364.772644 203.145416,363.030396 
	C214.881866,360.611389 221.065628,351.949860 227.074249,343.413605 
	C216.820099,340.643463 206.708649,337.911865 195.474182,334.876862 
	C183.018173,349.131378 169.669540,364.433197 156.284821,379.703369 
	C153.542068,382.832458 150.825775,386.012421 147.821289,388.879700 
	C132.390366,403.606110 114.216621,403.824890 98.294693,389.584930 
	C87.305656,379.756744 79.734612,367.444061 73.087868,354.514679 
	C55.658073,320.610046 44.046131,284.537872 35.255630,247.654358 
	C28.325296,218.575790 21.976343,189.219864 17.912918,159.637711 
	C14.194490,132.567154 16.929499,105.382896 28.048899,79.807121 
	C41.162251,49.645042 64.740479,32.461361 96.501984,26.014456 
	C128.819153,19.454763 160.456207,24.350494 191.808441,32.442600 
	C199.034607,34.307693 206.049759,36.983555 213.260269,38.920525 
	C215.187271,39.438175 217.903000,39.295170 219.536545,38.287785 
	C243.256805,23.659721 269.228638,20.165648 296.376862,22.475187 
	C302.170166,22.968033 308.006287,23.676094 313.650299,25.012804 
	C319.827454,26.475780 325.455750,25.784269 331.554199,24.111593 
	C367.870667,14.150771 404.492249,12.014504 440.883423,23.213190 
	C452.513397,26.792099 463.342590,32.973251 474.863831,38.127869 
M326.443024,43.975365 
	C307.081299,37.986782 287.231018,36.025665 267.170502,38.200275 
	C242.827072,40.839161 222.396362,51.323563 206.715347,70.552124 
	C192.034912,88.553757 183.985489,109.530708 179.083252,131.857788 
	C176.931686,141.656952 175.702850,151.658707 173.875748,162.646637 
	C176.533722,161.479111 177.748657,161.021072 178.895126,160.430222 
	C191.454666,153.957458 204.668442,149.522781 218.804306,148.495743 
	C239.582108,146.986115 256.629669,154.980896 263.706604,176.182739 
	C265.539185,181.672989 266.497009,187.487488 267.505646,193.214859 
	C271.425232,215.471329 273.985718,237.949722 268.767151,260.186676 
	C265.638611,273.517792 260.157684,286.310272 255.528748,299.271515 
	C251.927185,309.356079 248.008484,319.327393 244.111969,329.664032 
	C266.081085,330.829285 279.652222,344.382446 278.839661,363.238525 
	C277.187653,401.574768 277.932617,439.863922 281.076538,478.107086 
	C282.162872,491.321014 285.934174,503.578857 294.066681,514.237671 
	C298.960693,520.651978 305.201569,525.192566 313.151611,527.094421 
	C327.738464,530.583862 341.524292,526.889404 355.210785,522.331055 
	C371.842590,516.791748 382.855530,505.656067 386.803314,488.599670 
	C389.873230,475.336304 392.233368,461.843719 393.872437,448.327301 
	C397.598633,417.600006 400.611023,386.786835 404.071991,356.026398 
	C405.426086,343.991364 411.321442,335.119720 423.092102,330.801544 
	C424.117157,330.425507 425.099182,329.932098 425.898315,329.582092 
	C420.088104,320.714203 414.021149,312.367371 408.931183,303.462128 
	C402.084198,291.482819 395.812592,279.162109 389.628113,266.820557 
	C384.266479,256.120941 378.936493,245.367218 374.372803,234.315201 
	C367.993011,218.864975 363.283234,202.910568 363.964630,185.880753 
	C364.703369,167.418213 374.829620,153.629791 392.747864,148.948761 
	C401.466339,146.671112 410.806061,146.720703 419.879822,145.882095 
	C422.901733,145.602798 425.971161,145.837982 430.094086,145.837982 
	C409.564331,97.057938 377.948669,60.999382 326.443024,43.975365 
M37.335236,99.981934 
	C31.979200,120.211166 30.663568,140.872864 33.476898,161.435333 
	C40.260262,211.014633 52.539421,259.344177 69.307388,306.482697 
	C76.784286,327.501923 85.146362,348.233612 98.550636,366.348358 
	C102.458977,371.630157 107.219025,376.503418 112.357628,380.599243 
	C119.401733,386.213867 126.765541,385.856873 133.883575,380.242188 
	C137.381714,377.482819 140.444305,374.107544 143.415817,370.755554 
	C155.237946,357.419708 166.944717,343.981659 178.699417,330.585999 
	C180.298996,328.763092 181.927826,326.965912 183.903687,324.752960 
	C181.469925,322.542999 179.338852,320.902802 177.557587,318.944427 
	C161.172974,300.930939 153.938461,279.567291 156.566498,255.538132 
	C158.838623,234.762863 160.165436,213.995422 158.707993,193.213562 
	C157.259644,172.561325 159.095581,152.285080 163.093964,132.145828 
	C168.413010,105.354599 178.136139,80.439499 195.895584,59.196609 
	C197.858505,56.848682 199.936554,54.596996 201.959030,52.303143 
	C201.338852,51.796734 201.117004,51.488804 200.826584,51.396431 
	C170.572479,41.774071 139.830444,36.361259 107.904488,39.815605 
	C72.230606,43.675472 47.341972,64.539070 37.335236,99.981934 
M409.808472,81.697540 
	C420.422119,94.192764 428.820740,108.087776 436.728333,122.428062 
	C447.128448,141.288559 449.392120,160.990204 445.438324,181.782181 
	C441.606781,201.931183 441.634003,222.059708 444.523865,242.389984 
	C447.895721,266.111145 447.748810,289.596100 435.327728,311.364929 
	C434.689850,312.482819 435.507721,314.431335 435.647797,315.993134 
	C437.725220,314.821503 438.497223,313.763062 439.186218,312.653046 
	C463.009247,274.273987 481.293457,233.405655 494.026367,190.074738 
	C502.125366,162.513306 508.235046,134.619431 506.992920,105.608284 
	C506.493164,93.936424 503.087128,83.684074 494.814636,74.837471 
	C482.811127,62.000965 469.259766,51.480446 453.298553,44.219509 
	C426.796021,32.163216 398.843475,29.777081 370.236023,32.516739 
	C363.745117,33.138351 357.304871,34.288654 350.841309,35.195606 
	C350.776184,35.632259 350.711090,36.068909 350.645966,36.505562 
	C373.659668,46.930199 392.880127,62.261932 409.808472,81.697540 
M188.022675,307.457886 
	C198.118271,318.394379 210.307114,325.163361 225.335281,326.515869 
	C228.129944,326.767365 229.256989,326.194092 230.271683,323.307220 
	C234.456497,311.401123 239.170761,299.682465 243.542999,287.840424 
	C246.818542,278.968811 250.736069,270.214813 252.856033,261.058411 
	C259.136169,233.933746 255.407990,207.065247 248.647537,180.581482 
	C245.951614,170.020203 237.385803,164.382263 226.238480,164.021591 
	C209.334900,163.474686 194.379684,169.560760 179.896774,177.500427 
	C175.238098,180.054382 173.474503,183.142502 173.968613,188.589447 
	C175.885269,209.718689 175.362656,230.867172 172.556427,251.888260 
	C169.812607,272.441895 174.020630,290.899933 188.022675,307.457886 
M415.885345,282.656647 
	C418.510406,287.842529 421.135437,293.028412 424.100555,298.886108 
	C432.114990,281.423920 431.618256,264.184814 429.455627,246.887680 
	C426.990295,227.169724 425.284058,207.526657 428.874603,187.731049 
	C430.370697,179.482681 430.955902,171.069092 431.976501,162.554016 
	C420.635315,160.924255 410.233429,160.419357 399.891541,162.927246 
	C385.104034,166.513138 377.862457,176.200180 379.543274,191.429764 
	C380.484955,199.962234 382.171021,208.545349 384.693207,216.745300 
	C391.826843,239.937500 403.851807,260.910217 415.885345,282.656647 
M188.953629,382.265564 
	C186.724289,383.005005 184.494965,383.744446 181.365875,384.782349 
	C183.466904,385.934906 184.533875,386.759369 185.740738,387.138397 
	C189.693985,388.379913 193.634918,389.807648 197.693039,390.544098 
	C222.288223,395.007416 243.661942,389.805176 259.645691,369.215973 
	C265.517853,361.651855 262.268463,350.142273 253.433975,346.386536 
	C249.961624,344.910339 246.926910,345.179199 244.359116,347.988831 
	C241.554260,351.057861 238.481415,353.983429 236.215912,357.425964 
	C227.677826,370.400024 215.285110,376.945435 200.465714,379.757263 
	C196.875763,380.438416 193.321625,381.308350 188.953629,382.265564 
M441.639374,346.892334 
	C436.933319,342.998047 432.025574,343.401703 426.882172,346.015137 
	C421.370636,348.815643 417.393677,357.275024 419.206299,364.615112 
	C420.491119,369.818024 425.850647,368.812958 429.626709,369.236725 
	C446.766510,371.160278 463.524231,368.991058 479.727966,363.145691 
	C488.666016,359.921356 496.672974,354.985809 504.658722,348.082001 
	C494.622986,349.320221 485.674133,350.648560 476.679291,351.478302 
	C464.968048,352.558563 453.390289,351.902740 441.639374,346.892334 
z"/>
<path fill="#346791" opacity="1.000000" stroke="none" 
	d="
M326.833862,44.063961 
	C377.948669,60.999382 409.564331,97.057938 430.094086,145.837982 
	C425.971161,145.837982 422.901733,145.602798 419.879822,145.882095 
	C410.806061,146.720703 401.466339,146.671112 392.747864,148.948761 
	C374.829620,153.629791 364.703369,167.418213 363.964630,185.880753 
	C363.283234,202.910568 367.993011,218.864975 374.372803,234.315201 
	C378.936493,245.367218 384.266479,256.120941 389.628113,266.820557 
	C395.812592,279.162109 402.084198,291.482819 408.931183,303.462128 
	C414.021149,312.367371 420.088104,320.714203 425.898315,329.582092 
	C425.099182,329.932098 424.117157,330.425507 423.092102,330.801544 
	C411.321442,335.119720 405.426086,343.991364 404.071991,356.026398 
	C400.611023,386.786835 397.598633,417.600006 393.872437,448.327301 
	C392.233368,461.843719 389.873230,475.336304 386.803314,488.599670 
	C382.855530,505.656067 371.842590,516.791748 355.210785,522.331055 
	C341.524292,526.889404 327.738464,530.583862 313.151611,527.094421 
	C305.201569,525.192566 298.960693,520.651978 294.066681,514.237671 
	C285.934174,503.578857 282.162872,491.321014 281.076538,478.107086 
	C277.932617,439.863922 277.187653,401.574768 278.839661,363.238525 
	C279.652222,344.382446 266.081085,330.829285 244.111969,329.664032 
	C248.008484,319.327393 251.927185,309.356079 255.528748,299.271515 
	C260.157684,286.310272 265.638611,273.517792 268.767151,260.186676 
	C273.985718,237.949722 271.425232,215.471329 267.505646,193.214859 
	C266.497009,187.487488 265.539185,181.672989 263.706604,176.182739 
	C256.629669,154.980896 239.582108,146.986115 218.804306,148.495743 
	C204.668442,149.522781 191.454666,153.957458 178.895126,160.430222 
	C177.748657,161.021072 176.533722,161.479111 173.875748,162.646637 
	C175.702850,151.658707 176.931686,141.656952 179.083252,131.857788 
	C183.985489,109.530708 192.034912,88.553757 206.715347,70.552124 
	C222.396362,51.323563 242.827072,40.839161 267.170502,38.200275 
	C287.231018,36.025665 307.081299,37.986782 326.833862,44.063961 
z"/>
<path fill="#346791" opacity="1.000000" stroke="none" 
	d="
M37.480343,99.600006 
	C47.341972,64.539070 72.230606,43.675472 107.904488,39.815605 
	C139.830444,36.361259 170.572479,41.774071 200.826584,51.396431 
	C201.117004,51.488804 201.338852,51.796734 201.959030,52.303143 
	C199.936554,54.596996 197.858505,56.848682 195.895584,59.196609 
	C178.136139,80.439499 168.413010,105.354599 163.093964,132.145828 
	C159.095581,152.285080 157.259644,172.561325 158.707993,193.213562 
	C160.165436,213.995422 158.838623,234.762863 156.566498,255.538132 
	C153.938461,279.567291 161.172974,300.930939 177.557587,318.944427 
	C179.338852,320.902802 181.469925,322.542999 183.903687,324.752960 
	C181.927826,326.965912 180.298996,328.763092 178.699417,330.585999 
	C166.944717,343.981659 155.237946,357.419708 143.415817,370.755554 
	C140.444305,374.107544 137.381714,377.482819 133.883575,380.242188 
	C126.765541,385.856873 119.401733,386.213867 112.357628,380.599243 
	C107.219025,376.503418 102.458977,371.630157 98.550636,366.348358 
	C85.146362,348.233612 76.784286,327.501923 69.307388,306.482697 
	C52.539421,259.344177 40.260262,211.014633 33.476898,161.435333 
	C30.663568,140.872864 31.979200,120.211166 37.480343,99.600006 
z"/>
<path fill="#346892" opacity="1.000000" stroke="none" 
	d="
M409.570587,81.435944 
	C392.880127,62.261932 373.659668,46.930199 350.645966,36.505562 
	C350.711090,36.068909 350.776184,35.632259 350.841309,35.195606 
	C357.304871,34.288654 363.745117,33.138351 370.236023,32.516739 
	C398.843475,29.777081 426.796021,32.163216 453.298553,44.219509 
	C469.259766,51.480446 482.811127,62.000965 494.814636,74.837471 
	C503.087128,83.684074 506.493164,93.936424 506.992920,105.608284 
	C508.235046,134.619431 502.125366,162.513306 494.026367,190.074738 
	C481.293457,233.405655 463.009247,274.273987 439.186218,312.653046 
	C438.497223,313.763062 437.725220,314.821503 435.647797,315.993134 
	C435.507721,314.431335 434.689850,312.482819 435.327728,311.364929 
	C447.748810,289.596100 447.895721,266.111145 444.523865,242.389984 
	C441.634003,222.059708 441.606781,201.931183 445.438324,181.782181 
	C449.392120,160.990204 447.128448,141.288559 436.728333,122.428062 
	C428.820740,108.087776 420.422119,94.192764 409.570587,81.435944 
z"/>
<path fill="#346892" opacity="1.000000" stroke="none" 
	d="
M187.792435,307.185913 
	C174.020630,290.899933 169.812607,272.441895 172.556427,251.888260 
	C175.362656,230.867172 175.885269,209.718689 173.968613,188.589447 
	C173.474503,183.142502 175.238098,180.054382 179.896774,177.500427 
	C194.379684,169.560760 209.334900,163.474686 226.238480,164.021591 
	C237.385803,164.382263 245.951614,170.020203 248.647537,180.581482 
	C255.407990,207.065247 259.136169,233.933746 252.856033,261.058411 
	C250.736069,270.214813 246.818542,278.968811 243.542999,287.840424 
	C239.170761,299.682465 234.456497,311.401123 230.271683,323.307220 
	C229.256989,326.194092 228.129944,326.767365 225.335281,326.515869 
	C210.307114,325.163361 198.118271,318.394379 187.792435,307.185913 
M241.972580,178.709152 
	C235.092178,172.142502 226.901154,171.631287 218.278793,173.845840 
	C214.773911,174.746033 213.056290,176.924698 214.517471,180.934692 
	C218.530090,191.946594 233.078751,194.961945 240.574326,186.021820 
	C241.911346,184.427109 241.793320,181.612457 241.972580,178.709152 
z"/>
<path fill="#366992" opacity="1.000000" stroke="none" 
	d="
M415.697266,282.337097 
	C403.851807,260.910217 391.826843,239.937500 384.693207,216.745300 
	C382.171021,208.545349 380.484955,199.962234 379.543274,191.429764 
	C377.862457,176.200180 385.104034,166.513138 399.891541,162.927246 
	C410.233429,160.419357 420.635315,160.924255 431.976501,162.554016 
	C430.955902,171.069092 430.370697,179.482681 428.874603,187.731049 
	C425.284058,207.526657 426.990295,227.169724 429.455627,246.887680 
	C431.618256,264.184814 432.114990,281.423920 424.100555,298.886108 
	C421.135437,293.028412 418.510406,287.842529 415.697266,282.337097 
M405.012909,184.797379 
	C408.679169,182.158524 412.835480,179.978973 415.866669,176.744904 
	C418.609863,173.818024 417.179596,170.679474 413.217621,169.627609 
	C406.332092,167.799637 399.674225,168.664825 393.573578,172.415970 
	C390.316071,174.418945 389.854797,177.754639 392.787048,179.808517 
	C396.138672,182.156158 400.368286,183.250336 405.012909,184.797379 
z"/>
<path fill="#366A93" opacity="1.000000" stroke="none" 
	d="
M189.352325,382.178528 
	C193.321625,381.308350 196.875763,380.438416 200.465714,379.757263 
	C215.285110,376.945435 227.677826,370.400024 236.215912,357.425964 
	C238.481415,353.983429 241.554260,351.057861 244.359116,347.988831 
	C246.926910,345.179199 249.961624,344.910339 253.433975,346.386536 
	C262.268463,350.142273 265.517853,361.651855 259.645691,369.215973 
	C243.661942,389.805176 222.288223,395.007416 197.693039,390.544098 
	C193.634918,389.807648 189.693985,388.379913 185.740738,387.138397 
	C184.533875,386.759369 183.466904,385.934906 181.365875,384.782349 
	C184.494965,383.744446 186.724289,383.005005 189.352325,382.178528 
z"/>
<path fill="#376A93" opacity="1.000000" stroke="none" 
	d="
M442.002502,347.036438 
	C453.390289,351.902740 464.968048,352.558563 476.679291,351.478302 
	C485.674133,350.648560 494.622986,349.320221 504.658722,348.082001 
	C496.672974,354.985809 488.666016,359.921356 479.727966,363.145691 
	C463.524231,368.991058 446.766510,371.160278 429.626709,369.236725 
	C425.850647,368.812958 420.491119,369.818024 419.206299,364.615112 
	C417.393677,357.275024 421.370636,348.815643 426.882172,346.015137 
	C432.025574,343.401703 436.933319,342.998047 442.002502,347.036438 
z"/>
<path fill="#FBFCFD" opacity="1.000000" stroke="none" 
	d="
M242.159882,179.035126 
	C241.793320,181.612457 241.911346,184.427109 240.574326,186.021820 
	C233.078751,194.961945 218.530090,191.946594 214.517471,180.934692 
	C213.056290,176.924698 214.773911,174.746033 218.278793,173.845840 
	C226.901154,171.631287 235.092178,172.142502 242.159882,179.035126 
z"/>
<path fill="#FAFCFD" opacity="1.000000" stroke="none" 
	d="
M404.614655,184.843277 
	C400.368286,183.250336 396.138672,182.156158 392.787048,179.808517 
	C389.854797,177.754639 390.316071,174.418945 393.573578,172.415970 
	C399.674225,168.664825 406.332092,167.799637 413.217621,169.627609 
	C417.179596,170.679474 418.609863,173.818024 415.866669,176.744904 
	C412.835480,179.978973 408.679169,182.158524 404.614655,184.843277 
z"/>
</svg>