<svg version="1.1" id="Layer_1" xmlns="http://www.w3.org/2000/svg" xmlns:xlink="http://www.w3.org/1999/xlink" x="0px" y="0px"
	 width="100%" viewBox="0 0 1000 1000" enable-background="new 0 0 1000 1000" xml:space="preserve">
<path fill="none" opacity="1.000000" stroke="none" 
	d="
M527.000000,1001.000000 
	C351.333344,1001.000000 176.166672,1001.000000 1.000000,1001.000000 
	C1.000000,667.666687 1.000000,334.333344 1.000000,1.000000 
	C334.333344,1.000000 667.666687,1.000000 1001.000000,1.000000 
	C1001.000000,334.333344 1001.000000,667.666687 1001.000000,1001.000000 
	C843.166687,1001.000000 685.333313,1001.000000 527.000000,1001.000000 
M858.708496,735.006165 
	C873.594238,734.952393 887.253662,730.103210 899.630981,722.550842 
	C919.223999,710.595581 932.155212,692.246826 941.728333,672.046082 
	C955.132446,643.761414 965.529907,614.283142 972.272888,583.563171 
	C976.847290,562.722839 980.304260,541.801025 979.930725,520.440125 
	C979.598083,501.418793 979.356384,482.350342 977.776611,463.410980 
	C976.565002,448.885590 973.744568,434.446533 970.888245,420.118866 
	C967.698608,404.119324 964.391968,388.072571 959.771362,372.450043 
	C955.720032,358.752075 950.305725,345.381866 944.552979,332.279846 
	C935.562256,311.803589 922.610779,294.360687 903.496094,281.894409 
	C887.698975,271.591736 870.519836,266.155334 851.750000,266.044861 
	C822.584778,265.873199 793.417847,265.997223 764.251648,265.995911 
	C762.630920,265.995819 761.010193,265.995911 758.993896,265.995911 
	C758.993896,268.200378 758.993774,269.990265 758.993896,271.780151 
	C758.995850,307.446228 759.038513,343.112427 758.945984,378.778259 
	C758.934937,383.021637 758.671509,387.378387 757.695007,391.485229 
	C753.700928,408.283569 748.927307,424.784271 740.080933,439.893829 
	C731.497253,454.554810 720.983826,467.633545 708.358215,478.826599 
	C697.191223,488.726562 684.525635,496.568909 670.808594,502.697266 
	C654.154907,510.137634 636.608521,514.673462 618.592712,514.788635 
	C541.263794,515.282959 463.929749,515.078125 386.597931,514.931580 
	C371.421875,514.902771 356.829163,517.090210 342.816254,523.022095 
	C329.829651,528.519470 317.806366,535.642883 307.974121,545.741882 
	C301.003448,552.901733 294.682434,560.783508 288.738800,568.835632 
	C275.607666,586.624878 269.500854,607.394226 269.279938,628.908813 
	C268.523712,702.566467 268.886688,776.237122 269.145386,849.901733 
	C269.176636,858.809021 270.406586,867.887268 272.413696,876.578552 
	C277.847168,900.106750 291.576935,918.673645 310.128021,933.391357 
	C328.737183,948.155029 349.802063,958.670959 372.427795,966.221130 
	C396.901154,974.387695 421.784515,980.693298 447.358276,983.895630 
	C462.805328,985.829895 478.369385,987.066467 493.919525,987.851624 
	C503.304840,988.325500 512.778748,987.557495 522.186584,986.943970 
	C533.966736,986.175781 545.869324,985.837219 557.448547,983.786072 
	C573.486877,980.945007 589.260437,976.624634 605.170715,973.041199 
	C626.976074,968.130066 647.824585,960.623108 667.424683,949.868591 
	C687.274292,938.977234 704.656677,925.300598 717.084106,905.875610 
	C726.823547,890.652222 731.541443,873.925171 731.861694,856.182068 
	C732.384949,827.192017 731.867432,798.184387 732.123901,769.187134 
	C732.170044,763.974487 730.549377,762.880615 725.612366,762.891235 
	C652.947266,763.047485 580.281677,762.998779 507.616180,762.998779 
	C505.843414,762.998779 504.070648,762.998840 502.295288,762.998840 
	C502.295288,753.720764 502.295288,744.987427 502.295288,736.000122 
	C504.395569,736.000122 506.204987,736.000122 508.014404,736.000122 
	C622.512512,736.000366 737.010681,736.005737 851.508789,735.961731 
	C853.599060,735.960938 855.689148,735.372253 858.708496,735.006165 
M640.103760,484.902100 
	C653.585938,481.232025 666.303406,476.117096 678.285217,468.584473 
	C694.771484,458.220032 707.179077,444.266876 716.893250,427.873138 
	C726.782227,411.184479 731.841248,392.634735 731.848511,373.344696 
	C731.878357,294.409241 731.470703,215.472382 730.786438,136.539825 
	C730.718445,128.695679 728.551208,120.557686 725.838318,113.109734 
	C718.976257,94.270760 707.677124,78.413727 692.640747,64.873878 
	C678.345520,52.001427 662.245728,42.572723 644.381592,36.067516 
	C627.037415,29.751665 608.899231,26.804379 590.581360,25.006121 
	C573.046875,23.284775 555.524597,20.622019 537.956848,20.245235 
	C510.702728,19.660704 483.394684,20.143919 456.147858,21.181332 
	C438.406372,21.856834 420.599121,23.464329 403.065094,26.210646 
	C384.070160,29.185780 365.292847,33.686909 346.543365,38.050041 
	C330.944916,41.679905 316.656586,48.571373 303.792969,58.116367 
	C294.809967,64.781883 287.434875,72.915787 281.947876,82.868217 
	C272.087738,100.752693 269.952454,120.481453 269.287628,140.087204 
	C268.243347,170.882889 269.005096,201.739838 269.002075,232.570831 
	C269.001892,234.314560 269.002045,236.058273 269.002045,238.237396 
	C346.437195,238.237396 423.022583,238.237396 499.561279,238.237396 
	C499.561279,247.726593 499.561279,256.766357 499.561279,265.998962 
	C496.962189,265.998962 494.800232,265.998932 492.638306,265.998932 
	C386.812927,265.999390 280.987549,265.985504 175.162201,266.045410 
	C170.221481,266.048187 165.208847,266.293152 160.353073,267.136017 
	C138.857773,270.867065 118.415970,277.588776 100.445572,290.334778 
	C93.114685,295.534393 85.862564,301.040680 79.484383,307.330048 
	C73.715446,313.018677 69.165367,319.947876 64.113319,326.358032 
	C53.583534,339.718353 46.894768,355.099335 42.163986,371.177673 
	C37.782600,386.068512 34.514969,401.314301 31.348610,416.526917 
	C28.778643,428.874207 26.017590,441.337341 25.234741,453.867401 
	C23.766611,477.365997 23.665634,500.950073 23.007408,524.498901 
	C22.970200,525.830078 22.891567,527.184387 23.075485,528.493713 
	C25.014898,542.300781 26.632929,556.166870 29.072407,569.886353 
	C32.164299,587.275146 35.417469,604.668091 39.558846,621.828064 
	C43.659924,638.820984 49.759830,655.155334 58.126591,670.673767 
	C66.929512,687.001160 77.888428,701.421997 92.464088,712.876831 
	C111.863457,728.122620 134.234146,735.526306 158.742142,735.909546 
	C184.567215,736.313416 210.403503,736.000000 236.234894,736.000000 
	C238.011078,736.000000 239.787247,736.000000 242.000885,736.000000 
	C242.000885,733.779785 241.988632,732.150818 242.002701,730.522156 
	C242.333389,692.250183 242.423904,653.973755 243.127060,615.708557 
	C243.385559,601.641052 247.822906,588.060730 253.579636,575.503967 
	C262.589050,555.852295 274.845947,538.269592 291.458710,523.774902 
	C304.883270,512.061890 319.732483,502.730408 336.036957,496.357666 
	C352.240112,490.024536 369.415100,486.783905 387.117981,486.924896 
	C419.946747,487.186340 452.785522,487.413940 485.608459,486.904144 
	C536.816956,486.108795 588.077942,489.427063 640.103760,484.902100 
z"/>
<path fill="#FFE364" opacity="1.000000" stroke="none" 
	d="
M858.243896,735.031982 
	C855.689148,735.372253 853.599060,735.960938 851.508789,735.961731 
	C737.010681,736.005737 622.512512,736.000366 508.014404,736.000122 
	C506.204987,736.000122 504.395569,736.000122 502.295288,736.000122 
	C502.295288,744.987427 502.295288,753.720764 502.295288,762.998840 
	C504.070648,762.998840 505.843414,762.998779 507.616180,762.998779 
	C580.281677,762.998779 652.947266,763.047485 725.612366,762.891235 
	C730.549377,762.880615 732.170044,763.974487 732.123901,769.187134 
	C731.867432,798.184387 732.384949,827.192017 731.861694,856.182068 
	C731.541443,873.925171 726.823547,890.652222 717.084106,905.875610 
	C704.656677,925.300598 687.274292,938.977234 667.424683,949.868591 
	C647.824585,960.623108 626.976074,968.130066 605.170715,973.041199 
	C589.260437,976.624634 573.486877,980.945007 557.448547,983.786072 
	C545.869324,985.837219 533.966736,986.175781 522.186584,986.943970 
	C512.778748,987.557495 503.304840,988.325500 493.919525,987.851624 
	C478.369385,987.066467 462.805328,985.829895 447.358276,983.895630 
	C421.784515,980.693298 396.901154,974.387695 372.427795,966.221130 
	C349.802063,958.670959 328.737183,948.155029 310.128021,933.391357 
	C291.576935,918.673645 277.847168,900.106750 272.413696,876.578552 
	C270.406586,867.887268 269.176636,858.809021 269.145386,849.901733 
	C268.886688,776.237122 268.523712,702.566467 269.279938,628.908813 
	C269.500854,607.394226 275.607666,586.624878 288.738800,568.835632 
	C294.682434,560.783508 301.003448,552.901733 307.974121,545.741882 
	C317.806366,535.642883 329.829651,528.519470 342.816254,523.022095 
	C356.829163,517.090210 371.421875,514.902771 386.597931,514.931580 
	C463.929749,515.078125 541.263794,515.282959 618.592712,514.788635 
	C636.608521,514.673462 654.154907,510.137634 670.808594,502.697266 
	C684.525635,496.568909 697.191223,488.726562 708.358215,478.826599 
	C720.983826,467.633545 731.497253,454.554810 740.080933,439.893829 
	C748.927307,424.784271 753.700928,408.283569 757.695007,391.485229 
	C758.671509,387.378387 758.934937,383.021637 758.945984,378.778259 
	C759.038513,343.112427 758.995850,307.446228 758.993896,271.780151 
	C758.993774,269.990265 758.993896,268.200378 758.993896,265.995911 
	C761.010193,265.995911 762.630920,265.995819 764.251648,265.995911 
	C793.417847,265.997223 822.584778,265.873199 851.750000,266.044861 
	C870.519836,266.155334 887.698975,271.591736 903.496094,281.894409 
	C922.610779,294.360687 935.562256,311.803589 944.552979,332.279846 
	C950.305725,345.381866 955.720032,358.752075 959.771362,372.450043 
	C964.391968,388.072571 967.698608,404.119324 970.888245,420.118866 
	C973.744568,434.446533 976.565002,448.885590 977.776611,463.410980 
	C979.356384,482.350342 979.598083,501.418793 979.930725,520.440125 
	C980.304260,541.801025 976.847290,562.722839 972.272888,583.563171 
	C965.529907,614.283142 955.132446,643.761414 941.728333,672.046082 
	C932.155212,692.246826 919.223999,710.595581 899.630981,722.550842 
	C887.253662,730.103210 873.594238,734.952393 858.243896,735.031982 
M665.955200,843.635193 
	C658.011230,831.032654 646.459106,824.529419 631.703186,824.066833 
	C620.391052,823.712219 610.680359,827.387939 601.994995,835.219543 
	C590.854492,845.264893 585.379517,863.391907 589.561768,878.167969 
	C593.565857,892.314697 602.249695,901.790222 615.817139,907.480713 
	C629.740051,913.320312 647.785828,908.598816 658.140503,899.444031 
	C667.322937,891.325745 672.107239,881.007690 672.814575,869.142944 
	C673.335571,860.403015 671.919983,851.642273 665.955200,843.635193 
z"/>
<path fill="#3670A0" opacity="1.000000" stroke="none" 
	d="
M639.670654,484.940643 
	C588.077942,489.427063 536.816956,486.108795 485.608459,486.904144 
	C452.785522,487.413940 419.946747,487.186340 387.117981,486.924896 
	C369.415100,486.783905 352.240112,490.024536 336.036957,496.357666 
	C319.732483,502.730408 304.883270,512.061890 291.458710,523.774902 
	C274.845947,538.269592 262.589050,555.852295 253.579636,575.503967 
	C247.822906,588.060730 243.385559,601.641052 243.127060,615.708557 
	C242.423904,653.973755 242.333389,692.250183 242.002701,730.522156 
	C241.988632,732.150818 242.000885,733.779785 242.000885,736.000000 
	C239.787247,736.000000 238.011078,736.000000 236.234894,736.000000 
	C210.403503,736.000000 184.567215,736.313416 158.742142,735.909546 
	C134.234146,735.526306 111.863457,728.122620 92.464088,712.876831 
	C77.888428,701.421997 66.929512,687.001160 58.126591,670.673767 
	C49.759830,655.155334 43.659924,638.820984 39.558846,621.828064 
	C35.417469,604.668091 32.164299,587.275146 29.072407,569.886353 
	C26.632929,556.166870 25.014898,542.300781 23.075485,528.493713 
	C22.891567,527.184387 22.970200,525.830078 23.007408,524.498901 
	C23.665634,500.950073 23.766611,477.365997 25.234741,453.867401 
	C26.017590,441.337341 28.778643,428.874207 31.348610,416.526917 
	C34.514969,401.314301 37.782600,386.068512 42.163986,371.177673 
	C46.894768,355.099335 53.583534,339.718353 64.113319,326.358032 
	C69.165367,319.947876 73.715446,313.018677 79.484383,307.330048 
	C85.862564,301.040680 93.114685,295.534393 100.445572,290.334778 
	C118.415970,277.588776 138.857773,270.867065 160.353073,267.136017 
	C165.208847,266.293152 170.221481,266.048187 175.162201,266.045410 
	C280.987549,265.985504 386.812927,265.999390 492.638306,265.998932 
	C494.800232,265.998932 496.962189,265.998962 499.561279,265.998962 
	C499.561279,256.766357 499.561279,247.726593 499.561279,238.237396 
	C423.022583,238.237396 346.437195,238.237396 269.002045,238.237396 
	C269.002045,236.058273 269.001892,234.314560 269.002075,232.570831 
	C269.005096,201.739838 268.243347,170.882889 269.287628,140.087204 
	C269.952454,120.481453 272.087738,100.752693 281.947876,82.868217 
	C287.434875,72.915787 294.809967,64.781883 303.792969,58.116367 
	C316.656586,48.571373 330.944916,41.679905 346.543365,38.050041 
	C365.292847,33.686909 384.070160,29.185780 403.065094,26.210646 
	C420.599121,23.464329 438.406372,21.856834 456.147858,21.181332 
	C483.394684,20.143919 510.702728,19.660704 537.956848,20.245235 
	C555.524597,20.622019 573.046875,23.284775 590.581360,25.006121 
	C608.899231,26.804379 627.037415,29.751665 644.381592,36.067516 
	C662.245728,42.572723 678.345520,52.001427 692.640747,64.873878 
	C707.677124,78.413727 718.976257,94.270760 725.838318,113.109734 
	C728.551208,120.557686 730.718445,128.695679 730.786438,136.539825 
	C731.470703,215.472382 731.878357,294.409241 731.848511,373.344696 
	C731.841248,392.634735 726.782227,411.184479 716.893250,427.873138 
	C707.179077,444.266876 694.771484,458.220032 678.285217,468.584473 
	C666.303406,476.117096 653.585938,481.232025 639.670654,484.940643 
M349.410187,97.890175 
	C331.661835,108.034851 323.992493,130.334915 331.892303,151.123550 
	C342.818604,179.876511 380.105377,186.747650 401.214630,165.141647 
	C416.816315,149.172775 417.201233,123.041946 403.515045,107.199844 
	C388.978119,90.373001 367.492523,86.553055 349.410187,97.890175 
z"/>
<path fill="#000000" opacity="1.000000" stroke="none" 
	d="
M666.002563,844.008423 
	C671.919983,851.642273 673.335571,860.403015 672.814575,869.142944 
	C672.107239,881.007690 667.322937,891.325745 658.140503,899.444031 
	C647.785828,908.598816 629.740051,913.320312 615.817139,907.480713 
	C602.249695,901.790222 593.565857,892.314697 589.561768,878.167969 
	C585.379517,863.391907 590.854492,845.264893 601.994995,835.219543 
	C610.680359,827.387939 620.391052,823.712219 631.703186,824.066833 
	C646.459106,824.529419 658.011230,831.032654 666.002563,844.008423 
z"/>
<path fill="#000000" opacity="1.000000" stroke="none" 
	d="
M349.710938,97.667191 
	C367.492523,86.553055 388.978119,90.373001 403.515045,107.199844 
	C417.201233,123.041946 416.816315,149.172775 401.214630,165.141647 
	C380.105377,186.747650 342.818604,179.876511 331.892303,151.123550 
	C323.992493,130.334915 331.661835,108.034851 349.710938,97.667191 
z"/>
</svg>