<svg version="1.1" id="Layer_1" xmlns="http://www.w3.org/2000/svg" xmlns:xlink="http://www.w3.org/1999/xlink" x="0px" y="0px"
	 width="100%" viewBox="0 0 256 256" enable-background="new 0 0 256 256" xml:space="preserve">
<path fill="none" opacity="1.000000" stroke="none" 
	d="
M147.000000,257.000000 
	C98.000000,257.000000 49.500008,257.000000 1.000006,257.000000 
	C1.000004,171.666672 1.000004,86.333351 1.000002,1.000018 
	C86.333321,1.000012 171.666641,1.000012 257.000000,1.000006 
	C257.000000,86.333313 257.000000,171.666626 257.000000,256.999969 
	C220.500000,257.000000 184.000000,257.000000 147.000000,257.000000 
M114.619034,7.006884 
	C105.869339,8.799748 97.119644,10.592613 88.107918,12.439170 
	C157.237900,60.400780 199.384140,126.635033 226.709320,204.050125 
	C227.658783,202.886215 228.422012,202.033157 229.094879,201.113922 
	C264.007294,153.417526 259.352753,85.774246 217.967438,43.741158 
	C189.798447,15.131271 155.548706,2.844349 114.619034,7.006884 
M118.141594,251.339981 
	C141.972260,253.742020 164.479187,249.285309 185.822876,238.485336 
	C188.412109,237.175186 188.403107,235.629227 187.860092,233.271255 
	C179.886765,198.647888 167.272095,165.846100 149.262817,135.190186 
	C144.767654,127.538353 139.773544,120.179642 134.389359,111.712128 
	C133.300766,113.392113 132.919113,114.154045 132.382660,114.784210 
	C102.559593,149.817917 83.261528,190.121201 72.553406,234.674088 
	C72.256523,235.909302 73.623909,238.389206 74.861305,239.018661 
	C88.182129,245.794968 102.264603,250.099976 118.141594,251.339981 
M80.176445,123.693321 
	C90.391785,110.436409 100.607124,97.179497 111.056129,83.619354 
	C94.566292,66.062355 75.726494,50.714931 53.865070,39.075954 
	C49.437145,36.718536 46.858864,37.325256 43.668278,40.690037 
	C7.812985,78.502838 -2.314648,122.142700 14.162230,171.637436 
	C18.824802,185.643280 26.430529,198.127289 36.883286,209.744507 
	C47.576153,178.972916 61.915710,150.733994 80.176445,123.693321 
z"/>
<path fill="#405CAA" opacity="1.000000" stroke="none" 
	d="
M115.069839,6.981273 
	C155.548706,2.844349 189.798447,15.131271 217.967438,43.741158 
	C259.352753,85.774246 264.007294,153.417526 229.094879,201.113922 
	C228.422012,202.033157 227.658783,202.886215 226.709320,204.050125 
	C199.384140,126.635033 157.237900,60.400780 88.107918,12.439170 
	C97.119644,10.592613 105.869339,8.799748 115.069839,6.981273 
z"/>
<path fill="#A01F22" opacity="1.000000" stroke="none" 
	d="
M117.688919,251.285522 
	C102.264603,250.099976 88.182129,245.794968 74.861305,239.018661 
	C73.623909,238.389206 72.256523,235.909302 72.553406,234.674088 
	C83.261528,190.121201 102.559593,149.817917 132.382660,114.784210 
	C132.919113,114.154045 133.300766,113.392113 134.389359,111.712128 
	C139.773544,120.179642 144.767654,127.538353 149.262817,135.190186 
	C167.272095,165.846100 179.886765,198.647888 187.860092,233.271255 
	C188.403107,235.629227 188.412109,237.175186 185.822876,238.485336 
	C164.479187,249.285309 141.972260,253.742020 117.688919,251.285522 
z"/>
<path fill="#A01F22" opacity="1.000000" stroke="none" 
	d="
M79.982056,123.995132 
	C61.915710,150.733994 47.576153,178.972916 36.883286,209.744507 
	C26.430529,198.127289 18.824802,185.643280 14.162230,171.637436 
	C-2.314648,122.142700 7.812985,78.502838 43.668278,40.690037 
	C46.858864,37.325256 49.437145,36.718536 53.865070,39.075954 
	C75.726494,50.714931 94.566292,66.062355 111.056129,83.619354 
	C100.607124,97.179497 90.391785,110.436409 79.982056,123.995132 
z"/>
</svg>