<svg version="1.1" id="Layer_1" xmlns="http://www.w3.org/2000/svg" xmlns:xlink="http://www.w3.org/1999/xlink" x="0px" y="0px"
	 width="100%" viewBox="0 0 256 256" enable-background="new 0 0 256 256" xml:space="preserve">
<path fill="none" opacity="1.000000" stroke="none" 
	d="
M148.000000,257.000000 
	C98.666672,257.000000 49.833340,257.000000 1.000006,257.000000 
	C1.000004,171.666672 1.000004,86.333351 1.000002,1.000018 
	C86.333321,1.000012 171.666641,1.000012 257.000000,1.000006 
	C257.000000,86.333313 257.000000,171.666626 257.000000,256.999969 
	C220.833328,257.000000 184.666672,257.000000 148.000000,257.000000 
M127.500000,251.999268 
	C161.661484,251.999222 195.822952,252.006409 229.984436,251.995209 
	C241.718735,251.991348 251.994049,241.718307 251.995407,229.984497 
	C252.003250,162.661438 252.003342,95.338364 251.995224,28.015299 
	C251.993820,16.279259 241.719193,6.006139 229.982407,6.004747 
	C162.659348,5.996763 95.336273,5.996739 28.013210,6.004666 
	C16.280041,6.006047 6.005972,16.282656 6.004610,28.017841 
	C5.996796,95.340912 5.996695,162.663971 6.004734,229.987045 
	C6.006135,241.719849 16.281605,251.991241 28.015020,251.995270 
	C60.843342,252.006546 93.671669,251.999252 127.500000,251.999268 
z"/>
<path fill="#3178C6" opacity="1.000000" stroke="none" 
	d="
M127.000000,251.999268 
	C93.671669,251.999252 60.843342,252.006546 28.015020,251.995270 
	C16.281605,251.991241 6.006135,241.719849 6.004734,229.987045 
	C5.996695,162.663971 5.996796,95.340912 6.004610,28.017841 
	C6.005972,16.282656 16.280041,6.006047 28.013210,6.004666 
	C95.336273,5.996739 162.659348,5.996763 229.982407,6.004747 
	C241.719193,6.006139 251.993820,16.279259 251.995224,28.015299 
	C252.003342,95.338364 252.003250,162.661438 251.995407,229.984497 
	C251.994049,241.718307 241.718735,251.991348 229.984436,251.995209 
	C195.822952,252.006409 161.661484,251.999222 127.000000,251.999268 
M209.748291,120.843170 
	C197.657974,119.713463 185.740814,120.142273 174.575211,125.583160 
	C154.577972,135.327591 151.420792,161.368942 168.849365,175.229492 
	C173.963669,179.296768 180.370850,181.732864 186.167099,184.949692 
	C191.663147,187.999939 197.659927,190.442169 202.486603,194.330811 
	C208.703049,199.339142 207.115326,207.025909 199.835297,210.415497 
	C198.055206,211.244308 196.062225,211.757797 194.112045,212.055939 
	C182.928757,213.765533 172.639221,211.244064 163.135620,205.240555 
	C161.676071,204.318527 160.234406,203.368210 158.160995,202.027985 
	C158.160995,209.136307 158.389908,215.289230 158.072250,221.413818 
	C157.891434,224.900146 159.227982,226.516296 162.351624,227.551239 
	C177.449753,232.553619 192.758575,233.322845 208.105591,229.309128 
	C220.668472,226.023529 229.366867,218.614120 231.316483,204.934525 
	C233.293686,191.061432 228.392136,180.419281 216.369522,173.279327 
	C211.812271,170.572876 206.861893,168.536621 202.158585,166.065689 
	C197.171494,163.445694 191.853699,161.212448 187.421021,157.837479 
	C180.975128,152.929657 182.013443,145.005096 189.570175,142.012024 
	C194.043243,140.240326 199.377365,139.247513 204.096786,139.810776 
	C211.697540,140.717926 219.110260,143.200668 227.008545,145.116287 
	C227.008545,143.209259 227.008499,140.615051 227.008545,138.020844 
	C227.008835,122.155441 227.008850,122.155441 209.748291,120.843170 
M113.346130,230.212738 
	C114.769325,230.086685 116.192520,229.960632 118.158432,229.786514 
	C118.158432,200.537903 118.158432,171.670197 118.158432,142.207596 
	C128.641296,142.207596 138.548218,142.207596 148.420166,142.207596 
	C148.420166,135.503784 148.420166,129.410660 148.420166,123.289093 
	C119.737152,123.289093 91.385483,123.289093 63.146717,123.289093 
	C63.146717,129.817993 63.146717,135.913315 63.146717,142.712753 
	C73.330818,142.712753 83.206238,142.712753 93.529678,142.712753 
	C93.529678,172.178925 93.529678,200.932938 93.529678,230.213455 
	C100.122025,230.213455 106.247688,230.213455 113.346130,230.212738 
z"/>
<path fill="#FCFDFE" opacity="1.000000" stroke="none" 
	d="
M210.198822,120.874252 
	C227.008850,122.155441 227.008835,122.155441 227.008545,138.020844 
	C227.008499,140.615051 227.008545,143.209259 227.008545,145.116287 
	C219.110260,143.200668 211.697540,140.717926 204.096786,139.810776 
	C199.377365,139.247513 194.043243,140.240326 189.570175,142.012024 
	C182.013443,145.005096 180.975128,152.929657 187.421021,157.837479 
	C191.853699,161.212448 197.171494,163.445694 202.158585,166.065689 
	C206.861893,168.536621 211.812271,170.572876 216.369522,173.279327 
	C228.392136,180.419281 233.293686,191.061432 231.316483,204.934525 
	C229.366867,218.614120 220.668472,226.023529 208.105591,229.309128 
	C192.758575,233.322845 177.449753,232.553619 162.351624,227.551239 
	C159.227982,226.516296 157.891434,224.900146 158.072250,221.413818 
	C158.389908,215.289230 158.160995,209.136307 158.160995,202.027985 
	C160.234406,203.368210 161.676071,204.318527 163.135620,205.240555 
	C172.639221,211.244064 182.928757,213.765533 194.112045,212.055939 
	C196.062225,211.757797 198.055206,211.244308 199.835297,210.415497 
	C207.115326,207.025909 208.703049,199.339142 202.486603,194.330811 
	C197.659927,190.442169 191.663147,187.999939 186.167099,184.949692 
	C180.370850,181.732864 173.963669,179.296768 168.849365,175.229492 
	C151.420792,161.368942 154.577972,135.327591 174.575211,125.583160 
	C185.740814,120.142273 197.657974,119.713463 210.198822,120.874252 
z"/>
<path fill="#FCFDFE" opacity="1.000000" stroke="none" 
	d="
M112.859741,230.213104 
	C106.247688,230.213455 100.122025,230.213455 93.529678,230.213455 
	C93.529678,200.932938 93.529678,172.178925 93.529678,142.712753 
	C83.206238,142.712753 73.330818,142.712753 63.146717,142.712753 
	C63.146717,135.913315 63.146717,129.817993 63.146717,123.289093 
	C91.385483,123.289093 119.737152,123.289093 148.420166,123.289093 
	C148.420166,129.410660 148.420166,135.503784 148.420166,142.207596 
	C138.548218,142.207596 128.641296,142.207596 118.158432,142.207596 
	C118.158432,171.670197 118.158432,200.537903 118.158432,229.786514 
	C116.192520,229.960632 114.769325,230.086685 112.859741,230.213104 
z"/>
</svg>