<?xml version="1.0" encoding="UTF-8" standalone="no"?>
<!-- Created with Inkscape (http://www.inkscape.org/) -->

<svg
   version="1.1"
   id="svg1"
   width="800"
   height="755"
   viewBox="0 0 800 755"
   sodipodi:docname="vscode.svg"
   inkscape:version="1.3.2 (091e20e, 2023-11-25, custom)"
   xmlns:inkscape="http://www.inkscape.org/namespaces/inkscape"
   xmlns:sodipodi="http://sodipodi.sourceforge.net/DTD/sodipodi-0.dtd"
   xmlns="http://www.w3.org/2000/svg"
   xmlns:svg="http://www.w3.org/2000/svg">
  <defs
     id="defs1" />
  <sodipodi:namedview
     id="namedview1"
     pagecolor="#ffffff"
     bordercolor="#000000"
     borderopacity="0.25"
     inkscape:showpageshadow="2"
     inkscape:pageopacity="0.0"
     inkscape:pagecheckerboard="0"
     inkscape:deskcolor="#d1d1d1"
     inkscape:zoom="0.73707687"
     inkscape:cx="368.34693"
     inkscape:cy="338.49929"
     inkscape:window-width="1920"
     inkscape:window-height="1001"
     inkscape:window-x="-9"
     inkscape:window-y="-9"
     inkscape:window-maximized="1"
     inkscape:current-layer="g1" />
  <g
     inkscape:groupmode="layer"
     inkscape:label="Image"
     id="g1">
    <g
       id="g20"
       transform="matrix(0.99930484,0,0,1.0015994,-3.9755027,0.9568162)">
      <path
         style="display:none;fill:#e3e4e4"
         d="M 0,377.5 V 0 H 400 800 V 377.5 755 H 400 0 Z"
         id="path23" />
      <path
         style="display:inline;fill:#149ae4"
         d="m 555,724.11426 c -10.04461,-3.2475 -13.50989,-5.83175 -38.62608,-28.80567 C 502.65942,682.76387 453.44638,637.85 407.01161,595.5 360.57683,553.15 308.6616,505.7875 291.64442,490.25 274.62724,474.7125 259.98317,462.00436 259.10205,462.0097 258.22092,462.01503 230.5,482.54385 197.5,507.62929 c -33,25.08544 -62.39436,46.72865 -65.32081,48.09602 -7.09856,3.31679 -17.4182,3.00683 -24.44894,-0.73435 -2.57467,-1.37003 -13.129746,-10.20156 -23.455731,-19.62563 -31.515698,-28.76298 -30.620204,-27.49174 -30.111772,-42.74652 0.285286,-8.55961 0.704011,-10.70876 2.717412,-13.94745 1.309087,-2.10574 26.284087,-25.6589 55.500001,-52.34035 C 141.59607,399.64957 165.5,377.22037 165.5,376.48833 c 0,-0.73203 -23.90252,-23.1537 -53.1167,-49.82593 -29.214187,-26.67223 -54.189187,-50.22014 -55.500001,-52.32868 -1.940675,-3.12173 -2.449417,-5.49117 -2.73931,-12.7582 -0.626727,-15.71082 -0.20748,-16.32019 30.049178,-43.67598 23.680483,-21.41011 27.068233,-23.42107 38.168333,-22.65663 3.92617,0.27038 8.47781,1.11384 10.11474,1.87435 1.63692,0.76051 30.21192,22.04406 63.5,47.29678 33.28807,25.25272 61.43414,46.09816 62.54683,46.32319 1.51367,0.30614 8.06039,-5.10317 26,-21.48284 C 470.45083,99.494092 541.0983,35.440659 544.79897,33.271926 550.46286,29.952661 561.04896,27 567.28554,27 577.11347,27 577.78333,27.277594 639,56.718846 649.175,61.612362 675.25968,74.140014 696.96596,84.558074 734.2498,102.45268 736.77,103.83175 742.54631,109.5 c 3.67952,3.61069 7.27705,8.38931 9.03404,12 l 2.91965,6 v 249 249 l -2.93115,6 c -1.71196,3.50435 -5.45544,8.51106 -9,12.03703 -5.96461,5.93334 -7.38237,6.66883 -82.54402,42.82136 -42.06134,20.23138 -78.94338,37.42721 -81.96009,38.21297 -7.29865,1.90105 -16.32413,1.72218 -23.06474,-0.4571 z M 580,376.5 C 580,251.13759 579.74494,219.01113 578.75,219.05452 577.0517,219.1286 371.6027,375.2401 371.54545,376.5 371.4898,377.72438 576.9968,533.88766 578.75,533.95324 579.74491,533.99046 580,501.85827 580,376.5 Z"
         id="path22" />
      <path
         style="display:inline;fill:#007acb"
         d="m 548.75908,719.62675 c -5.54186,-2.05151 -6.98938,-3.17342 -22.26132,-17.25376 C 512.67352,689.62739 483.7056,663.14616 425.99753,610.5 409.71971,595.65 366.1346,555.825 329.14173,522 292.14886,488.175 261.19493,460.34707 260.35522,460.16016 258.88994,459.834 239.17317,474.43019 167.5,528.90022 c -23.27346,17.68732 -34.44044,25.56152 -37.8871,26.71543 -6.16066,2.06253 -15.62154,1.44092 -21.17282,-1.39114 -2.20061,-1.12266 -13.925605,-11.0774 -26.055558,-22.12165 -26.19703,-23.85222 -27.395932,-25.52764 -27.36256,-38.23819 0.02349,-8.9472 1.630548,-13.91839 6.140827,-18.99574 C 62.448255,473.42185 79.025,458.14463 98,440.91957 c 54.07681,-49.08968 70,-63.96805 70,-65.40687 0,-0.7342 -1.4625,-2.56402 -3.25,-4.06626 -1.7875,-1.50224 -25.9807,-23.55698 -53.76266,-49.01053 C 54.52587,270.7065 56,272.38917 56,259.66959 c 0,-12.132 1.561086,-14.28877 27.014099,-37.32222 15.11264,-13.67603 23.564171,-20.59881 27.180611,-22.26404 6.66174,-3.06747 14.52313,-3.21125 20.80529,-0.38051 2.475,1.11524 14.25863,9.40084 26.18584,18.41244 94.7528,71.59049 100.75904,76.0138 102.12854,75.21278 1.50106,-0.87798 34.63412,-30.86078 102.71789,-92.95158 22.84275,-20.83205 69.19275,-63.07283 103,-93.8684 C 498.83952,75.71249 529.8,47.465008 533.83332,43.735874 543.22461,35.052881 547.24106,33 554.83804,33 c 10.2473,0 18.50488,5.246444 22.81065,14.492721 l 2.33177,5.007279 0.01,81.71504 0.01,81.71503 -15.59701,11.78497 C 519.23132,261.84634 395.42129,355.83495 380.5,367.32235 c -9.66952,7.44424 -11.73347,9.49087 -10.91185,10.82029 0.517,0.83652 141.99521,108.12975 187.16185,141.93846 L 580,537.48448 v 82.06142 82.06141 l -2.54888,5.11494 c -5.2087,10.4525 -18.8013,16.56589 -28.69204,12.9045 z"
         id="path21" />
      <path
         style="display:inline;fill:#0072b4"
         d="m 111.75908,555.57707 c -5.63877,-2.0125 -6.59212,-2.77812 -29.884135,-23.99941 C 56.294709,508.27157 55,506.46523 55,494.08255 c 0,-9.04218 1.525566,-13.89548 5.803048,-18.4613 C 62.286372,474.03794 80.825,456.90672 102,437.55188 c 21.175,-19.35483 44.50426,-40.75407 51.84279,-47.55384 12.2313,-11.33334 13.51331,-12.25675 15.38969,-11.08493 3.78219,2.36202 88.8741,80.26823 88.56904,81.08972 -0.16583,0.44658 -16.95152,13.38242 -37.30152,28.7463 -20.35,15.36388 -48.025,36.32379 -61.5,46.57758 -15.02143,11.43054 -26.21316,19.22938 -28.92814,20.15827 -5.40077,1.84779 -13.28246,1.88742 -18.31278,0.0921 z M 315.06479,335.13812 c -29.38937,-22.41217 -53.59557,-41.23047 -53.79156,-41.81844 -0.196,-0.58798 7.64985,-8.21045 17.43521,-16.93882 9.78536,-8.72837 49.76145,-44.89726 88.83576,-80.37531 C 406.61851,160.5275 449.5676,121.6 462.98662,109.5 c 28.86428,-26.027059 31.40136,-28.330072 58.38667,-53 22.8901,-20.926097 26.00916,-22.877901 35.30848,-22.094896 6.47575,0.54526 11.0879,2.697899 15.73319,7.343187 C 579.16156,48.494892 579,46.180367 579,136.08705 v 80.72405 l -17.25,12.74814 C 539.99038,245.64008 414.99225,340.61391 389,360.81504 c -10.725,8.33545 -19.725,15.13671 -20,15.11391 -0.275,-0.0228 -24.54585,-18.37867 -53.93521,-40.79083 z"
         id="path20" />
    </g>
  </g>
</svg>
